<svg
      width="1440"
      height="1024"
      viewBox="0 0 1440 1024"
      fill="none"
      xmlns="http://www.w3.org/2000/svg"
    >
      <style>
        #wheel {
          animation: 2s linear 0s 1 normal forwards running wheel;
          transform: rotate(240deg);
          transform-box: fill-box;
          transform-origin: 190px 210px;
        }
        @keyframes wheel {
          0% {
            transform: rotate(240deg);
          }
          100% {
            transform: rotate(360deg);
            transform-box: fill-box;
          }
        }
        #staged,
        #staged-sha {
          animation: 2s linear 1s 1 normal forwards running staged;
          opacity: 1;
        }
        @keyframes staged {
          0% {
            opacity: 1;
          }
          50% {
            opacity: 0;
          }
          100% {
            opacity: 0;
          }
        }
        #committed,
        #committed-sha {
          animation: 2s linear 0s 1 normal forwards running committed;
          opacity: 0;
        }
        @keyframes committed {
          0% {
            opacity: 0;
          }
          50% {
            opacity: 0;
          }
          100% {
            opacity: 1;
          }
        }
      </style>
      <rect width="1440" height="1024" fill="white" />
      <g filter="url(#filter0_d_17_1987)" id="wheel">
        <path
          d="M363.257 302.816L725.696 512.07L363.257 721.324L363.257 302.816Z"
          fill="#0A061F"
          class="pointers"
        />
        <path
          fill-rule="evenodd"
          clip-rule="evenodd"
          d="M304.108 504.455L480.689 504.469L569.025 351.466C543.72 337.9 514.795 330.206 484.073 330.206C386.574 330.206 307.174 407.7 304.108 504.455ZM579.081 357.283L490.769 510.244L579.098 663.234C630.15 631.453 664.131 574.826 664.131 510.263C664.131 445.693 630.143 389.061 579.081 357.283ZM569.043 669.051L480.728 516.086L304.108 516.072C307.174 612.827 386.574 690.321 484.073 690.321C514.802 690.321 543.733 682.623 569.043 669.051ZM484.073 510.263L484.108 510.244L484.073 510.224V510.263ZM292.399 510.263C292.399 404.405 378.215 318.589 484.073 318.589C589.932 318.589 675.748 404.405 675.748 510.263C675.748 616.122 589.932 701.938 484.073 701.938C378.215 701.938 292.399 616.122 292.399 510.263Z"
          fill="#0A061F"
          class="wheel-outlines"
        />
        <path
          fill-rule="evenodd"
          clip-rule="evenodd"
          d="M579.081 357.283L490.769 510.244L579.098 663.234C630.15 631.453 664.131 574.826 664.131 510.263C664.131 445.693 630.143 389.061 579.081 357.283Z"
          fill="#3C871B"
          class="green-piece"
        />
        <path
          fill-rule="evenodd"
          clip-rule="evenodd"
          d="M304.108 504.455L480.689 504.47L569.025 351.466C543.72 337.9 514.795 330.206 484.073 330.206C386.574 330.206 307.174 407.7 304.108 504.455Z"
          fill="#932424"
          class="red-piece"
        />
        <path
          fill-rule="evenodd"
          clip-rule="evenodd"
          d="M569.043 669.051L480.728 516.086L304.108 516.072C307.174 612.827 386.574 690.321 484.073 690.321C514.802 690.321 543.733 682.623 569.043 669.051Z"
          fill="#CF9B27"
          class="yellow-piece"
        />
        <g filter="url(#filter1_i_17_1987)" id="checkcircle">
          <path
            fill-rule="evenodd"
            clip-rule="evenodd"
            d="M590.503 563.003C618.394 563.003 641.003 540.394 641.003 512.503C641.003 484.613 618.394 462.003 590.503 462.003C562.613 462.003 540.003 484.613 540.003 512.503C540.003 540.394 562.613 563.003 590.503 563.003ZM567.706 513.785L583.306 531.218C584.244 532.265 585.763 532.265 586.7 531.218L614.301 500.375C615.238 499.327 615.238 497.629 614.301 496.582L610.906 492.789C609.969 491.742 608.45 491.742 607.512 492.789L585.003 517.942L574.494 506.199C573.557 505.151 572.038 505.151 571.1 506.199L567.706 509.992C566.769 511.039 566.769 512.737 567.706 513.785Z"
            fill="white"
          />
        </g>
        <g filter="url(#filter2_i_17_1987)" id="exclcircle">
          <path
            fill-rule="evenodd"
            clip-rule="evenodd"
            d="M432.503 471.003C460.394 471.003 483.003 448.394 483.003 420.503C483.003 392.613 460.394 370.003 432.503 370.003C404.613 370.003 382.003 392.613 382.003 420.503C382.003 448.394 404.613 471.003 432.503 471.003ZM453.988 408.003C452.003 404.565 447.474 403.45 443.893 405.518C440.311 407.586 439.013 412.065 440.998 415.503C442.983 418.942 447.511 420.057 451.093 417.989C454.674 415.921 455.973 411.442 453.988 408.003ZM439.12 422.526L417.648 436.336C416.566 437.032 415.141 436.719 414.523 435.649L410.314 428.358C409.696 427.288 410.138 425.898 411.281 425.309L433.977 413.619C435.043 413.07 436.331 413.421 436.907 414.418L439.892 419.589C440.468 420.586 440.128 421.877 439.12 422.526Z"
            fill="white"
          />
        </g>
        <g filter="url(#filter3_i_17_1987)" id="xcircle">
          <path
            fill-rule="evenodd"
            clip-rule="evenodd"
            d="M407.258 643.243C431.412 657.188 462.298 648.912 476.243 624.758C490.188 600.605 481.912 569.719 457.758 555.774C433.605 541.829 402.719 550.105 388.774 574.258C374.829 598.412 383.105 629.298 407.258 643.243ZM438.524 597.381L450.215 604.131C451.65 604.959 452.141 606.794 451.313 608.229L449.813 610.827C448.985 612.262 447.15 612.753 445.715 611.925L434.024 605.175L427.274 616.866C426.445 618.301 424.61 618.793 423.175 617.964L420.577 616.464C419.143 615.636 418.651 613.801 419.479 612.366L426.229 600.675L414.538 593.925C413.103 593.097 412.612 591.262 413.44 589.827L414.94 587.229C415.768 585.794 417.603 585.302 419.038 586.131L430.729 592.881L437.479 581.189C438.308 579.755 440.143 579.263 441.577 580.091L444.175 581.591C445.61 582.42 446.102 584.255 445.274 585.689L438.524 597.381Z"
            fill="white"
          />
        </g>
        <g filter="url(#filter4_i_17_1987)" id="staged-sha">
          <path
            d="M561.136 603.384C561.904 603.384 562.624 603.16 563.296 602.712C563.968 602.248 564.512 601.64 564.928 600.888H565.264C565.264 601.96 565.408 602.664 565.696 603H570.448C570.32 602.024 570.232 601.208 570.184 600.552C570.136 599.896 570.112 599.192 570.112 598.44V582.312C570.112 581.192 569.848 580.184 569.32 579.288C568.792 578.392 568.08 577.68 567.184 577.152C566.304 576.624 565.312 576.36 564.208 576.36C563.008 576.36 561.912 576.672 560.92 577.296C559.928 577.92 559.136 578.768 558.544 579.84C557.968 580.896 557.68 582.072 557.68 583.368V584.472H562.528C562.528 582.984 562.616 581.968 562.792 581.424C562.968 580.864 563.328 580.584 563.872 580.584C564.576 580.584 564.984 580.872 565.096 581.448C565.208 582.024 565.264 582.536 565.264 582.984V585.288C565.264 585.608 565.224 585.856 565.144 586.032C565.08 586.192 564.872 586.376 564.52 586.584C564.184 586.792 563.592 587.12 562.744 587.568C560.776 588.592 559.352 589.864 558.472 591.384C557.592 592.888 557.152 594.688 557.152 596.784C557.152 598.736 557.496 600.328 558.184 601.56C558.888 602.776 559.872 603.384 561.136 603.384ZM563.296 598.632C562.368 598.632 561.904 597.856 561.904 596.304C561.904 594.928 562.192 593.72 562.768 592.68C563.36 591.64 564.192 590.872 565.264 590.376V597.048C565.264 597.448 565.064 597.816 564.664 598.152C564.264 598.472 563.808 598.632 563.296 598.632ZM575.548 603H580.732V567.72H577.612C577.308 568.376 576.924 568.984 576.46 569.544C576.012 570.024 575.444 570.504 574.756 570.984C574.068 571.464 573.18 571.816 572.092 572.04V575.352H575.548V603ZM587.808 603.384C588.576 603.384 589.296 603.16 589.968 602.712C590.64 602.248 591.184 601.64 591.6 600.888H591.936C591.936 601.96 592.08 602.664 592.368 603H597.12C596.992 602.024 596.904 601.208 596.856 600.552C596.808 599.896 596.784 599.192 596.784 598.44V582.312C596.784 581.192 596.52 580.184 595.992 579.288C595.464 578.392 594.752 577.68 593.856 577.152C592.976 576.624 591.984 576.36 590.88 576.36C589.68 576.36 588.584 576.672 587.592 577.296C586.6 577.92 585.808 578.768 585.216 579.84C584.64 580.896 584.352 582.072 584.352 583.368V584.472H589.2C589.2 582.984 589.288 581.968 589.464 581.424C589.64 580.864 590 580.584 590.544 580.584C591.248 580.584 591.656 580.872 591.768 581.448C591.88 582.024 591.936 582.536 591.936 582.984V585.288C591.936 585.608 591.896 585.856 591.816 586.032C591.752 586.192 591.544 586.376 591.192 586.584C590.856 586.792 590.264 587.12 589.416 587.568C587.448 588.592 586.024 589.864 585.144 591.384C584.264 592.888 583.824 594.688 583.824 596.784C583.824 598.736 584.168 600.328 584.856 601.56C585.56 602.776 586.544 603.384 587.808 603.384ZM589.968 598.632C589.04 598.632 588.576 597.856 588.576 596.304C588.576 594.928 588.864 593.72 589.44 592.68C590.032 591.64 590.864 590.872 591.936 590.376V597.048C591.936 597.448 591.736 597.816 591.336 598.152C590.936 598.472 590.48 598.632 589.968 598.632ZM602.22 603H607.404V567.72H604.284C603.98 568.376 603.596 568.984 603.132 569.544C602.684 570.024 602.116 570.504 601.428 570.984C600.74 571.464 599.852 571.816 598.764 572.04V575.352H602.22V603ZM614.48 603.384C615.248 603.384 615.968 603.16 616.64 602.712C617.312 602.248 617.856 601.64 618.272 600.888H618.608C618.608 601.96 618.752 602.664 619.04 603H623.792C623.664 602.024 623.576 601.208 623.528 600.552C623.48 599.896 623.456 599.192 623.456 598.44V582.312C623.456 581.192 623.192 580.184 622.664 579.288C622.136 578.392 621.424 577.68 620.528 577.152C619.648 576.624 618.656 576.36 617.552 576.36C616.352 576.36 615.256 576.672 614.264 577.296C613.272 577.92 612.48 578.768 611.888 579.84C611.312 580.896 611.024 582.072 611.024 583.368V584.472H615.872C615.872 582.984 615.96 581.968 616.136 581.424C616.312 580.864 616.672 580.584 617.216 580.584C617.92 580.584 618.328 580.872 618.44 581.448C618.552 582.024 618.608 582.536 618.608 582.984V585.288C618.608 585.608 618.568 585.856 618.488 586.032C618.424 586.192 618.216 586.376 617.864 586.584C617.528 586.792 616.936 587.12 616.088 587.568C614.12 588.592 612.696 589.864 611.816 591.384C610.936 592.888 610.496 594.688 610.496 596.784C610.496 598.736 610.84 600.328 611.528 601.56C612.232 602.776 613.216 603.384 614.48 603.384ZM616.64 598.632C615.712 598.632 615.248 597.856 615.248 596.304C615.248 594.928 615.536 593.72 616.112 592.68C616.704 591.64 617.536 590.872 618.608 590.376V597.048C618.608 597.448 618.408 597.816 618.008 598.152C617.608 598.472 617.152 598.632 616.64 598.632Z"
            fill="white"
          />
        </g>
        <g filter="url(#filter4_i_17_1987)" id="committed-sha">
          <path
            d="M558.608 603.384C559.68 603.384 560.568 602.896 561.272 601.92C561.992 600.944 562.352 599.72 562.352 598.248V581.496C562.352 580.072 561.984 578.864 561.248 577.872C560.528 576.864 559.648 576.36 558.608 576.36C558.064 576.36 557.488 576.528 556.88 576.864C556.272 577.184 555.568 577.728 554.768 578.496V567.72H549.92V603H554.768V601.272C555.68 602.072 556.416 602.624 556.976 602.928C557.552 603.232 558.096 603.384 558.608 603.384ZM556.208 598.824C555.824 598.824 555.488 598.664 555.2 598.344C554.912 598.024 554.768 597.656 554.768 597.24V582.504C554.768 582.088 554.912 581.72 555.2 581.4C555.504 581.08 555.84 580.92 556.208 580.92C556.576 580.92 556.88 581.08 557.12 581.4C557.376 581.704 557.504 582.072 557.504 582.504V597.24C557.504 597.688 557.376 598.064 557.12 598.368C556.88 598.672 556.576 598.824 556.208 598.824ZM565.374 603H579.438V597.864H571.23C573.998 593.224 576.038 589.128 577.35 585.576C578.678 582.024 579.342 578.872 579.342 576.12C579.342 573.288 578.75 571.12 577.566 569.616C576.382 568.096 574.67 567.336 572.43 567.336C570.158 567.336 568.438 568.112 567.27 569.664C566.102 571.2 565.518 573.464 565.518 576.456V578.904H570.702V576.456C570.702 573.576 571.278 572.136 572.43 572.136C572.974 572.136 573.406 572.536 573.726 573.336C574.046 574.136 574.19 575.176 574.158 576.456C574.126 579.048 573.358 582.168 571.854 585.816C570.366 589.448 568.206 593.464 565.374 597.864V603ZM591.842 603.384C592.914 603.384 593.802 602.896 594.506 601.92C595.226 600.944 595.586 599.72 595.586 598.248V581.496C595.586 580.072 595.218 578.864 594.482 577.872C593.762 576.864 592.882 576.36 591.842 576.36C591.298 576.36 590.722 576.528 590.114 576.864C589.506 577.184 588.802 577.728 588.002 578.496V567.72H583.154V603H588.002V601.272C588.914 602.072 589.65 602.624 590.21 602.928C590.786 603.232 591.33 603.384 591.842 603.384ZM589.442 598.824C589.058 598.824 588.722 598.664 588.434 598.344C588.146 598.024 588.002 597.656 588.002 597.24V582.504C588.002 582.088 588.146 581.72 588.434 581.4C588.738 581.08 589.074 580.92 589.442 580.92C589.81 580.92 590.114 581.08 590.354 581.4C590.61 581.704 590.738 582.072 590.738 582.504V597.24C590.738 597.688 590.61 598.064 590.354 598.368C590.114 598.672 589.81 598.824 589.442 598.824ZM598.609 603H612.673V597.864H604.465C607.233 593.224 609.273 589.128 610.585 585.576C611.913 582.024 612.577 578.872 612.577 576.12C612.577 573.288 611.985 571.12 610.801 569.616C609.617 568.096 607.905 567.336 605.665 567.336C603.393 567.336 601.673 568.112 600.505 569.664C599.337 571.2 598.753 573.464 598.753 576.456V578.904H603.937V576.456C603.937 573.576 604.513 572.136 605.665 572.136C606.209 572.136 606.641 572.536 606.961 573.336C607.281 574.136 607.425 575.176 607.393 576.456C607.361 579.048 606.593 582.168 605.089 585.816C603.601 589.448 601.441 593.464 598.609 597.864V603ZM625.077 603.384C626.149 603.384 627.037 602.896 627.741 601.92C628.461 600.944 628.821 599.72 628.821 598.248V581.496C628.821 580.072 628.453 578.864 627.717 577.872C626.997 576.864 626.117 576.36 625.077 576.36C624.533 576.36 623.957 576.528 623.349 576.864C622.741 577.184 622.037 577.728 621.237 578.496V567.72H616.389V603H621.237V601.272C622.149 602.072 622.885 602.624 623.445 602.928C624.021 603.232 624.565 603.384 625.077 603.384ZM622.677 598.824C622.293 598.824 621.957 598.664 621.669 598.344C621.381 598.024 621.237 597.656 621.237 597.24V582.504C621.237 582.088 621.381 581.72 621.669 581.4C621.973 581.08 622.309 580.92 622.677 580.92C623.045 580.92 623.349 581.08 623.589 581.4C623.845 581.704 623.973 582.072 623.973 582.504V597.24C623.973 597.688 623.845 598.064 623.589 598.368C623.349 598.672 623.045 598.824 622.677 598.824Z"
            fill="white"
          />
        </g>
      </g>
      <g filter="url(#filter5_d_17_1987)" id="bubble">
        <path
          d="M819.658 484.695L821.477 483.645L822 481.611C838.985 415.628 910.417 365.133 997.133 365.133C1096.93 365.133 1176.13 431.799 1176.13 512.133C1176.13 592.468 1096.93 659.133 997.133 659.133C910.417 659.133 838.985 608.638 822 542.656L821.477 540.622L819.658 539.572L772.133 512.133L819.658 484.695Z"
          stroke="#0A061F"
          stroke-width="10"
          shape-rendering="crispEdges"
        />
      </g>
      <path
        d="M936.384 537.576C939.216 537.576 941.472 536.592 943.152 534.624C944.832 532.656 945.672 530.04 945.672 526.776C945.672 524.784 945.18 522.912 944.196 521.16C943.212 519.384 941.472 517.248 938.976 514.752C937.224 513.12 935.988 511.752 935.268 510.648C934.572 509.52 934.224 508.404 934.224 507.3C934.224 504.492 934.968 503.088 936.456 503.088C937.296 503.088 937.896 503.448 938.256 504.168C938.64 504.864 938.832 506.04 938.832 507.696H945.6C945.6 503.976 944.856 501.264 943.368 499.56C941.88 497.832 939.528 496.992 936.312 497.04C933.528 497.088 931.356 498.048 929.796 499.92C928.236 501.792 927.456 504.384 927.456 507.696C927.456 509.112 927.66 510.42 928.068 511.62C928.476 512.796 929.184 514.02 930.192 515.292C931.2 516.564 932.592 518.064 934.368 519.792C936.144 521.568 937.344 522.972 937.968 524.004C938.592 525.036 938.904 526.128 938.904 527.28C938.904 530.112 938.064 531.528 936.384 531.528C935.328 531.528 934.5 531.012 933.9 529.98C933.3 528.924 933 527.448 933 525.552H926.232C926.232 529.368 927.12 532.332 928.896 534.444C930.672 536.532 933.168 537.576 936.384 537.576ZM960.51 537.576C961.782 537.576 963.078 537.408 964.398 537.072V529.944C963.15 530.136 962.262 530.232 961.734 530.232C960.198 530.232 959.43 528.072 959.43 523.752V504.168H964.398V497.616H959.43V487.896H952.158V497.616H948.486V504.168H952.158V524.328C952.158 528.96 952.818 532.332 954.138 534.444C955.458 536.532 957.582 537.576 960.51 537.576ZM972.977 537.576C974.129 537.576 975.209 537.24 976.217 536.568C977.225 535.872 978.041 534.96 978.665 533.832H979.169C979.169 535.44 979.385 536.496 979.817 537H986.945C986.753 535.536 986.621 534.312 986.549 533.328C986.477 532.344 986.441 531.288 986.441 530.16V505.968C986.441 504.288 986.045 502.776 985.253 501.432C984.461 500.088 983.393 499.02 982.049 498.228C980.729 497.436 979.241 497.04 977.585 497.04C975.785 497.04 974.141 497.508 972.653 498.444C971.165 499.38 969.977 500.652 969.089 502.26C968.225 503.844 967.793 505.608 967.793 507.552V509.208H975.065C975.065 506.976 975.197 505.452 975.461 504.636C975.725 503.796 976.265 503.376 977.081 503.376C978.137 503.376 978.749 503.808 978.917 504.672C979.085 505.536 979.169 506.304 979.169 506.976V510.432C979.169 510.912 979.109 511.284 978.989 511.548C978.893 511.788 978.581 512.064 978.053 512.376C977.549 512.688 976.661 513.18 975.389 513.852C972.437 515.388 970.301 517.296 968.981 519.576C967.661 521.832 967.001 524.532 967.001 527.676C967.001 530.604 967.517 532.992 968.549 534.84C969.605 536.664 971.081 537.576 972.977 537.576ZM976.217 530.448C974.825 530.448 974.129 529.284 974.129 526.956C974.129 524.892 974.561 523.08 975.425 521.52C976.313 519.96 977.561 518.808 979.169 518.064V528.072C979.169 528.672 978.869 529.224 978.269 529.728C977.669 530.208 976.985 530.448 976.217 530.448ZM1000.64 551.112C1008.95 551.112 1013.1 547.752 1013.1 541.032C1013.1 538.296 1012.31 536.208 1010.72 534.768C1009.16 533.328 1006.59 532.368 1003.02 531.888C999.323 531.36 997.475 530.544 997.475 529.44C997.475 528.768 997.799 528.156 998.447 527.604C998.567 527.628 998.795 527.664 999.131 527.712C999.467 527.736 999.635 527.736 999.635 527.712C1002.95 527.712 1005.37 526.788 1006.91 524.94C1008.44 523.092 1009.21 520.176 1009.21 516.192V506.832C1009.21 505.872 1009.07 505.068 1008.78 504.42C1009.79 503.82 1011.23 503.52 1013.1 503.52V497.04C1012.38 497.04 1011.48 497.364 1010.4 498.012C1009.34 498.636 1008.25 499.512 1007.12 500.64C1005.37 498.24 1002.95 497.04 999.851 497.04C996.971 497.04 994.715 498.036 993.083 500.028C991.451 502.02 990.635 504.768 990.635 508.272V517.056C990.635 519.048 991.007 520.872 991.751 522.528C992.495 524.184 993.503 525.444 994.775 526.308C993.383 527.004 992.279 527.88 991.463 528.936C990.671 529.992 990.275 531.096 990.275 532.248C990.275 533.376 990.659 534.408 991.427 535.344C992.219 536.256 993.311 536.964 994.703 537.468C992.519 538.596 991.019 539.604 990.203 540.492C989.387 541.404 988.979 542.496 988.979 543.768C988.979 546.072 990.011 547.872 992.075 549.168C994.139 550.464 996.995 551.112 1000.64 551.112ZM999.851 521.664C998.459 521.664 997.763 520.488 997.763 518.136V507.336C997.763 504.936 998.459 503.736 999.851 503.736C1000.55 503.736 1001.09 504.06 1001.47 504.708C1001.88 505.332 1002.08 506.208 1002.08 507.336V518.136C1002.08 520.488 1001.34 521.664 999.851 521.664ZM1000.79 544.992C997.619 544.992 996.035 544.08 996.035 542.256C996.035 540.96 996.911 539.808 998.663 538.8L1002.44 539.52C1005.03 540.024 1006.33 540.96 1006.33 542.328C1006.33 543.168 1005.84 543.816 1004.85 544.272C1003.89 544.752 1002.54 544.992 1000.79 544.992ZM1024.47 537.576C1027.37 537.576 1029.66 536.64 1031.34 534.768C1033.05 532.872 1033.9 530.304 1033.9 527.064V522.888H1027.13V527.208C1027.13 528.432 1026.9 529.404 1026.45 530.124C1025.99 530.82 1025.36 531.168 1024.54 531.168C1023.72 531.168 1023.08 530.82 1022.6 530.124C1022.12 529.404 1021.88 528.432 1021.88 527.208V518.64H1033.9V507.552C1033.9 504.336 1033.05 501.78 1031.34 499.884C1029.66 497.988 1027.4 497.04 1024.54 497.04C1021.64 497.04 1019.33 498.024 1017.63 499.992C1015.95 501.936 1015.11 504.588 1015.11 507.948V526.668C1015.11 530.076 1015.94 532.752 1017.59 534.696C1019.27 536.616 1021.56 537.576 1024.47 537.576ZM1021.88 512.952V507.408C1021.88 504.72 1022.76 503.376 1024.54 503.376C1026.27 503.376 1027.13 504.72 1027.13 507.408V512.952H1021.88ZM1044.22 537.576C1045.85 537.576 1047.77 536.52 1049.98 534.408V537H1057.25V484.08H1049.98V500.208C1048.66 499.032 1047.56 498.216 1046.7 497.76C1045.84 497.28 1045.01 497.04 1044.22 497.04C1042.63 497.04 1041.3 497.784 1040.22 499.272C1039.14 500.736 1038.6 502.56 1038.6 504.744V529.872C1038.6 532.008 1039.14 533.832 1040.22 535.344C1041.32 536.832 1042.66 537.576 1044.22 537.576ZM1047.82 530.736C1047.26 530.736 1046.8 530.508 1046.41 530.052C1046.05 529.596 1045.87 529.032 1045.87 528.36V506.256C1045.87 505.584 1046.06 505.02 1046.45 504.564C1046.83 504.108 1047.29 503.88 1047.82 503.88C1048.37 503.88 1048.86 504.12 1049.29 504.6C1049.75 505.08 1049.98 505.632 1049.98 506.256V528.36C1049.98 528.984 1049.76 529.536 1049.33 530.016C1048.9 530.496 1048.39 530.736 1047.82 530.736Z"
        fill="#CF9B27"
        id="staged"
      />
      <path
        d="M900.592 537.576C903.808 537.576 906.172 536.664 907.684 534.84C909.196 533.016 909.952 530.16 909.952 526.272V522.456H902.68V527.928C902.68 529.104 902.524 529.932 902.212 530.412C901.9 530.868 901.36 531.096 900.592 531.096C899.848 531.096 899.32 530.868 899.008 530.412C898.72 529.932 898.576 529.104 898.576 527.928V506.688C898.576 505.512 898.72 504.696 899.008 504.24C899.32 503.76 899.848 503.52 900.592 503.52C901.36 503.52 901.9 503.76 902.212 504.24C902.524 504.696 902.68 505.512 902.68 506.688V511.44H909.952V508.344C909.952 504.456 909.196 501.6 907.684 499.776C906.172 497.952 903.808 497.04 900.592 497.04C897.376 497.04 895.024 497.976 893.536 499.848C892.048 501.696 891.304 504.648 891.304 508.704V525.912C891.304 529.968 892.048 532.932 893.536 534.804C895.024 536.652 897.376 537.576 900.592 537.576ZM923.231 537.576C926.015 537.576 928.271 536.64 929.999 534.768C931.727 532.896 932.591 530.448 932.591 527.424V507.192C932.591 504.192 931.727 501.756 929.999 499.884C928.271 497.988 926.015 497.04 923.231 497.04C920.447 497.04 918.203 497.988 916.499 499.884C914.795 501.78 913.943 504.288 913.943 507.408V527.208C913.943 530.328 914.795 532.836 916.499 534.732C918.203 536.628 920.447 537.576 923.231 537.576ZM923.231 531.168C921.599 531.168 920.783 529.848 920.783 527.208V507.408C920.783 504.72 921.599 503.376 923.231 503.376C924.911 503.376 925.751 504.72 925.751 507.408V527.208C925.751 529.848 924.911 531.168 923.231 531.168ZM962.423 497.04C961.919 497.04 961.415 497.148 960.911 497.364C960.407 497.556 959.759 497.964 958.967 498.588C958.199 499.212 957.155 500.16 955.835 501.432C955.379 500.088 954.719 499.02 953.855 498.228C952.991 497.436 952.007 497.04 950.903 497.04C950.159 497.04 949.391 497.28 948.599 497.76C947.807 498.24 946.559 499.296 944.855 500.928V497.616H937.583V537H944.855V505.968C945.791 504.72 946.703 504.096 947.591 504.096C948.887 504.096 949.535 504.672 949.535 505.824V537H956.375V505.968C957.311 504.72 958.223 504.096 959.111 504.096C960.407 504.096 961.055 504.672 961.055 505.824V537H967.895V504.744C967.895 502.584 967.367 500.76 966.311 499.272C965.255 497.784 963.959 497.04 962.423 497.04ZM998.353 497.04C997.849 497.04 997.345 497.148 996.841 497.364C996.337 497.556 995.689 497.964 994.897 498.588C994.129 499.212 993.085 500.16 991.765 501.432C991.309 500.088 990.649 499.02 989.785 498.228C988.921 497.436 987.937 497.04 986.833 497.04C986.089 497.04 985.321 497.28 984.529 497.76C983.737 498.24 982.489 499.296 980.785 500.928V497.616H973.513V537H980.785V505.968C981.721 504.72 982.633 504.096 983.521 504.096C984.817 504.096 985.465 504.672 985.465 505.824V537H992.305V505.968C993.241 504.72 994.153 504.096 995.041 504.096C996.337 504.096 996.985 504.672 996.985 505.824V537H1003.82V504.744C1003.82 502.584 1003.3 500.76 1002.24 499.272C1001.18 497.784 999.889 497.04 998.353 497.04ZM1009.44 491.352H1016.71V484.08H1009.44V491.352ZM1009.44 537H1016.71V497.616H1009.44V537ZM1032.03 537.576C1033.31 537.576 1034.6 537.408 1035.92 537.072V529.944C1034.67 530.136 1033.79 530.232 1033.26 530.232C1031.72 530.232 1030.95 528.072 1030.95 523.752V504.168H1035.92V497.616H1030.95V487.896H1023.68V497.616H1020.01V504.168H1023.68V524.328C1023.68 528.96 1024.34 532.332 1025.66 534.444C1026.98 536.532 1029.11 537.576 1032.03 537.576ZM1049.26 537.576C1050.53 537.576 1051.83 537.408 1053.15 537.072V529.944C1051.9 530.136 1051.01 530.232 1050.48 530.232C1048.95 530.232 1048.18 528.072 1048.18 523.752V504.168H1053.15V497.616H1048.18V487.896H1040.91V497.616H1037.24V504.168H1040.91V524.328C1040.91 528.96 1041.57 532.332 1042.89 534.444C1044.21 536.532 1046.33 537.576 1049.26 537.576ZM1065.83 537.576C1068.73 537.576 1071.02 536.64 1072.7 534.768C1074.41 532.872 1075.26 530.304 1075.26 527.064V522.888H1068.49V527.208C1068.49 528.432 1068.26 529.404 1067.81 530.124C1067.35 530.82 1066.72 531.168 1065.9 531.168C1065.08 531.168 1064.44 530.82 1063.96 530.124C1063.48 529.404 1063.24 528.432 1063.24 527.208V518.64H1075.26V507.552C1075.26 504.336 1074.41 501.78 1072.7 499.884C1071.02 497.988 1068.76 497.04 1065.9 497.04C1063 497.04 1060.69 498.024 1058.99 499.992C1057.31 501.936 1056.47 504.588 1056.47 507.948V526.668C1056.47 530.076 1057.3 532.752 1058.95 534.696C1060.63 536.616 1062.92 537.576 1065.83 537.576ZM1063.24 512.952V507.408C1063.24 504.72 1064.12 503.376 1065.9 503.376C1067.63 503.376 1068.49 504.72 1068.49 507.408V512.952H1063.24ZM1085.58 537.576C1087.21 537.576 1089.13 536.52 1091.34 534.408V537H1098.61V484.08H1091.34V500.208C1090.02 499.032 1088.92 498.216 1088.06 497.76C1087.2 497.28 1086.37 497.04 1085.58 497.04C1083.99 497.04 1082.66 497.784 1081.58 499.272C1080.5 500.736 1079.96 502.56 1079.96 504.744V529.872C1079.96 532.008 1080.5 533.832 1081.58 535.344C1082.68 536.832 1084.02 537.576 1085.58 537.576ZM1089.18 530.736C1088.62 530.736 1088.16 530.508 1087.77 530.052C1087.41 529.596 1087.23 529.032 1087.23 528.36V506.256C1087.23 505.584 1087.42 505.02 1087.81 504.564C1088.19 504.108 1088.65 503.88 1089.18 503.88C1089.73 503.88 1090.22 504.12 1090.65 504.6C1091.11 505.08 1091.34 505.632 1091.34 506.256V528.36C1091.34 528.984 1091.12 529.536 1090.69 530.016C1090.26 530.496 1089.75 530.736 1089.18 530.736Z"
        fill="#3C871B"
        id="committed"
      />
      <defs>
        <filter
          id="filter0_d_17_1987"
          x="292.399"
          y="302.816"
          width="441.296"
          height="426.508"
          filterUnits="userSpaceOnUse"
          color-interpolation-filters="sRGB"
        >
          <feFlood flood-opacity="0" result="BackgroundImageFix" />
          <feColorMatrix
            in="SourceAlpha"
            type="matrix"
            values="0 0 0 0 0 0 0 0 0 0 0 0 0 0 0 0 0 0 127 0"
            result="hardAlpha"
          />
          <feOffset dx="4" dy="4" />
          <feGaussianBlur stdDeviation="2" />
          <feComposite in2="hardAlpha" operator="out" />
          <feColorMatrix
            type="matrix"
            values="0 0 0 0 0 0 0 0 0 0 0 0 0 0 0 0 0 0 0.25 0"
          />
          <feBlend
            mode="normal"
            in2="BackgroundImageFix"
            result="effect1_dropShadow_17_1987"
          />
          <feBlend
            mode="normal"
            in="SourceGraphic"
            in2="effect1_dropShadow_17_1987"
            result="shape"
          />
        </filter>
        <filter
          id="filter1_i_17_1987"
          x="540.003"
          y="462.003"
          width="105"
          height="105"
          filterUnits="userSpaceOnUse"
          color-interpolation-filters="sRGB"
        >
          <feFlood flood-opacity="0" result="BackgroundImageFix" />
          <feBlend
            mode="normal"
            in="SourceGraphic"
            in2="BackgroundImageFix"
            result="shape"
          />
          <feColorMatrix
            in="SourceAlpha"
            type="matrix"
            values="0 0 0 0 0 0 0 0 0 0 0 0 0 0 0 0 0 0 127 0"
            result="hardAlpha"
          />
          <feOffset dx="4" dy="4" />
          <feGaussianBlur stdDeviation="2" />
          <feComposite in2="hardAlpha" operator="arithmetic" k2="-1" k3="1" />
          <feColorMatrix
            type="matrix"
            values="0 0 0 0 0 0 0 0 0 0 0 0 0 0 0 0 0 0 0.25 0"
          />
          <feBlend
            mode="normal"
            in2="shape"
            result="effect1_innerShadow_17_1987"
          />
        </filter>
        <filter
          id="filter2_i_17_1987"
          x="382.003"
          y="370.003"
          width="105"
          height="105"
          filterUnits="userSpaceOnUse"
          color-interpolation-filters="sRGB"
        >
          <feFlood flood-opacity="0" result="BackgroundImageFix" />
          <feBlend
            mode="normal"
            in="SourceGraphic"
            in2="BackgroundImageFix"
            result="shape"
          />
          <feColorMatrix
            in="SourceAlpha"
            type="matrix"
            values="0 0 0 0 0 0 0 0 0 0 0 0 0 0 0 0 0 0 127 0"
            result="hardAlpha"
          />
          <feOffset dx="4" dy="4" />
          <feGaussianBlur stdDeviation="2" />
          <feComposite in2="hardAlpha" operator="arithmetic" k2="-1" k3="1" />
          <feColorMatrix
            type="matrix"
            values="0 0 0 0 0 0 0 0 0 0 0 0 0 0 0 0 0 0 0.25 0"
          />
          <feBlend
            mode="normal"
            in2="shape"
            result="effect1_innerShadow_17_1987"
          />
        </filter>
        <filter
          id="filter3_i_17_1987"
          x="382"
          y="549"
          width="105.017"
          height="105.017"
          filterUnits="userSpaceOnUse"
          color-interpolation-filters="sRGB"
        >
          <feFlood flood-opacity="0" result="BackgroundImageFix" />
          <feBlend
            mode="normal"
            in="SourceGraphic"
            in2="BackgroundImageFix"
            result="shape"
          />
          <feColorMatrix
            in="SourceAlpha"
            type="matrix"
            values="0 0 0 0 0 0 0 0 0 0 0 0 0 0 0 0 0 0 127 0"
            result="hardAlpha"
          />
          <feOffset dx="4" dy="4" />
          <feGaussianBlur stdDeviation="2" />
          <feComposite in2="hardAlpha" operator="arithmetic" k2="-1" k3="1" />
          <feColorMatrix
            type="matrix"
            values="0 0 0 0 0 0 0 0 0 0 0 0 0 0 0 0 0 0 0.25 0"
          />
          <feBlend
            mode="normal"
            in2="shape"
            result="effect1_innerShadow_17_1987"
          />
        </filter>
        <filter
          id="filter4_i_17_1987"
          x="557.152"
          y="567.72"
          width="68.6398"
          height="37.664"
          filterUnits="userSpaceOnUse"
          color-interpolation-filters="sRGB"
        >
          <feFlood flood-opacity="0" result="BackgroundImageFix" />
          <feBlend
            mode="normal"
            in="SourceGraphic"
            in2="BackgroundImageFix"
            result="shape"
          />
          <feColorMatrix
            in="SourceAlpha"
            type="matrix"
            values="0 0 0 0 0 0 0 0 0 0 0 0 0 0 0 0 0 0 127 0"
            result="hardAlpha"
          />
          <feOffset dx="2" dy="2" />
          <feGaussianBlur stdDeviation="1" />
          <feComposite in2="hardAlpha" operator="arithmetic" k2="-1" k3="1" />
          <feColorMatrix
            type="matrix"
            values="0 0 0 0 0 0 0 0 0 0 0 0 0 0 0 0 0 0 0.25 0"
          />
          <feBlend
            mode="normal"
            in2="shape"
            result="effect1_innerShadow_17_1987"
          />
        </filter>
        <filter
          id="filter5_d_17_1987"
          x="762.133"
          y="360.133"
          width="427"
          height="312"
          filterUnits="userSpaceOnUse"
          color-interpolation-filters="sRGB"
        >
          <feFlood flood-opacity="0" result="BackgroundImageFix" />
          <feColorMatrix
            in="SourceAlpha"
            type="matrix"
            values="0 0 0 0 0 0 0 0 0 0 0 0 0 0 0 0 0 0 127 0"
            result="hardAlpha"
          />
          <feOffset dx="4" dy="4" />
          <feGaussianBlur stdDeviation="2" />
          <feComposite in2="hardAlpha" operator="out" />
          <feColorMatrix
            type="matrix"
            values="0 0 0 0 0 0 0 0 0 0 0 0 0 0 0 0 0 0 0.25 0"
          />
          <feBlend
            mode="normal"
            in2="BackgroundImageFix"
            result="effect1_dropShadow_17_1987"
          />
          <feBlend
            mode="normal"
            in="SourceGraphic"
            in2="effect1_dropShadow_17_1987"
            result="shape"
          />
        </filter>
      </defs>
    </svg>