<svg width="1440" height="1024" viewBox="0 0 1440 1024" fill="none" xmlns="http://www.w3.org/2000/svg">
<rect width="1440" height="1024" fill="white"/>
<g filter="url(#filter0_d_17_1987)">
<path d="M363.257 302.816L725.696 512.07L363.257 721.324L363.257 302.816Z" fill="#0A061F"/>
<path fill-rule="evenodd" clip-rule="evenodd" d="M304.108 504.455L480.689 504.47L569.025 351.466C543.72 337.9 514.795 330.206 484.073 330.206C386.574 330.206 307.174 407.7 304.108 504.455ZM579.081 357.283L490.769 510.244L579.098 663.234C630.15 631.453 664.131 574.827 664.131 510.263C664.131 445.693 630.143 389.061 579.081 357.283ZM569.043 669.051L480.728 516.086L304.108 516.072C307.174 612.827 386.574 690.321 484.073 690.321C514.802 690.321 543.733 682.623 569.043 669.051ZM484.073 510.264L484.108 510.244L484.073 510.224V510.264ZM292.399 510.263C292.399 404.405 378.215 318.589 484.073 318.589C589.932 318.589 675.748 404.405 675.748 510.263C675.748 616.122 589.932 701.938 484.073 701.938C378.215 701.938 292.399 616.122 292.399 510.263Z" fill="#0A061F"/>
<path fill-rule="evenodd" clip-rule="evenodd" d="M579.081 357.283L490.769 510.244L579.098 663.234C630.15 631.453 664.131 574.827 664.131 510.263C664.131 445.693 630.143 389.061 579.081 357.283Z" fill="#3C871B"/>
<path fill-rule="evenodd" clip-rule="evenodd" d="M304.108 504.455L480.689 504.47L569.025 351.466C543.72 337.9 514.795 330.206 484.073 330.206C386.574 330.206 307.174 407.7 304.108 504.455Z" fill="#932424"/>
<path fill-rule="evenodd" clip-rule="evenodd" d="M569.043 669.051L480.728 516.086L304.108 516.072C307.174 612.827 386.574 690.321 484.073 690.321C514.802 690.321 543.733 682.623 569.043 669.051Z" fill="#CF9B27"/>
<g filter="url(#filter1_i_17_1987)">
<path fill-rule="evenodd" clip-rule="evenodd" d="M590.503 563.003C618.394 563.003 641.003 540.394 641.003 512.503C641.003 484.613 618.394 462.003 590.503 462.003C562.613 462.003 540.003 484.613 540.003 512.503C540.003 540.394 562.613 563.003 590.503 563.003ZM567.706 513.785L583.306 531.218C584.244 532.265 585.763 532.265 586.7 531.218L614.301 500.375C615.238 499.327 615.238 497.629 614.301 496.582L610.906 492.789C609.969 491.742 608.45 491.742 607.512 492.789L585.003 517.943L574.494 506.199C573.557 505.151 572.038 505.151 571.1 506.199L567.706 509.992C566.769 511.039 566.769 512.737 567.706 513.785Z" fill="white"/>
</g>
<g filter="url(#filter2_i_17_1987)">
<path fill-rule="evenodd" clip-rule="evenodd" d="M432.503 471.004C460.394 471.004 483.003 448.394 483.003 420.504C483.003 392.613 460.394 370.004 432.503 370.004C404.613 370.004 382.003 392.613 382.003 420.504C382.003 448.394 404.613 471.004 432.503 471.004ZM453.988 408.004C452.003 404.565 447.474 403.45 443.893 405.518C440.311 407.586 439.013 412.065 440.998 415.504C442.983 418.942 447.511 420.057 451.093 417.989C454.674 415.921 455.973 411.442 453.988 408.004ZM439.12 422.526L417.648 436.336C416.566 437.032 415.141 436.719 414.523 435.649L410.314 428.358C409.696 427.288 410.138 425.898 411.281 425.309L433.977 413.619C435.043 413.07 436.331 413.421 436.907 414.418L439.892 419.589C440.468 420.586 440.128 421.877 439.12 422.526Z" fill="white"/>
</g>
<g filter="url(#filter3_i_17_1987)">
<path fill-rule="evenodd" clip-rule="evenodd" d="M407.258 643.243C431.412 657.188 462.298 648.912 476.243 624.758C490.188 600.605 481.912 569.719 457.758 555.774C433.605 541.829 402.719 550.105 388.774 574.258C374.829 598.412 383.105 629.298 407.258 643.243ZM438.524 597.381L450.215 604.131C451.65 604.959 452.141 606.794 451.313 608.229L449.813 610.827C448.985 612.262 447.15 612.753 445.715 611.925L434.024 605.175L427.274 616.866C426.445 618.301 424.61 618.793 423.175 617.964L420.577 616.464C419.143 615.636 418.651 613.801 419.479 612.366L426.229 600.675L414.538 593.925C413.103 593.097 412.612 591.262 413.44 589.827L414.94 587.229C415.768 585.794 417.603 585.303 419.038 586.131L430.729 592.881L437.479 581.189C438.308 579.755 440.143 579.263 441.577 580.091L444.175 581.591C445.61 582.42 446.102 584.255 445.274 585.689L438.524 597.381Z" fill="white"/>
</g>
<g filter="url(#filter4_i_17_1987)">
<path d="M558.608 603.384C559.68 603.384 560.568 602.896 561.272 601.92C561.992 600.944 562.352 599.72 562.352 598.248V581.496C562.352 580.072 561.984 578.864 561.248 577.872C560.528 576.864 559.648 576.36 558.608 576.36C558.064 576.36 557.488 576.528 556.88 576.864C556.272 577.184 555.568 577.728 554.768 578.496V567.72H549.92V603H554.768V601.272C555.68 602.072 556.416 602.624 556.976 602.928C557.552 603.232 558.096 603.384 558.608 603.384ZM556.208 598.824C555.824 598.824 555.488 598.664 555.2 598.344C554.912 598.024 554.768 597.656 554.768 597.24V582.504C554.768 582.088 554.912 581.72 555.2 581.4C555.504 581.08 555.84 580.92 556.208 580.92C556.576 580.92 556.88 581.08 557.12 581.4C557.376 581.704 557.504 582.072 557.504 582.504V597.24C557.504 597.688 557.376 598.064 557.12 598.368C556.88 598.672 556.576 598.824 556.208 598.824ZM565.374 603H579.438V597.864H571.23C573.998 593.224 576.038 589.128 577.35 585.576C578.678 582.024 579.342 578.872 579.342 576.12C579.342 573.288 578.75 571.12 577.566 569.616C576.382 568.096 574.67 567.336 572.43 567.336C570.158 567.336 568.438 568.112 567.27 569.664C566.102 571.2 565.518 573.464 565.518 576.456V578.904H570.702V576.456C570.702 573.576 571.278 572.136 572.43 572.136C572.974 572.136 573.406 572.536 573.726 573.336C574.046 574.136 574.19 575.176 574.158 576.456C574.126 579.048 573.358 582.168 571.854 585.816C570.366 589.448 568.206 593.464 565.374 597.864V603ZM591.842 603.384C592.914 603.384 593.802 602.896 594.506 601.92C595.226 600.944 595.586 599.72 595.586 598.248V581.496C595.586 580.072 595.218 578.864 594.482 577.872C593.762 576.864 592.882 576.36 591.842 576.36C591.298 576.36 590.722 576.528 590.114 576.864C589.506 577.184 588.802 577.728 588.002 578.496V567.72H583.154V603H588.002V601.272C588.914 602.072 589.65 602.624 590.21 602.928C590.786 603.232 591.33 603.384 591.842 603.384ZM589.442 598.824C589.058 598.824 588.722 598.664 588.434 598.344C588.146 598.024 588.002 597.656 588.002 597.24V582.504C588.002 582.088 588.146 581.72 588.434 581.4C588.738 581.08 589.074 580.92 589.442 580.92C589.81 580.92 590.114 581.08 590.354 581.4C590.61 581.704 590.738 582.072 590.738 582.504V597.24C590.738 597.688 590.61 598.064 590.354 598.368C590.114 598.672 589.81 598.824 589.442 598.824ZM598.609 603H612.673V597.864H604.465C607.233 593.224 609.273 589.128 610.585 585.576C611.913 582.024 612.577 578.872 612.577 576.12C612.577 573.288 611.985 571.12 610.801 569.616C609.617 568.096 607.905 567.336 605.665 567.336C603.393 567.336 601.673 568.112 600.505 569.664C599.337 571.2 598.753 573.464 598.753 576.456V578.904H603.937V576.456C603.937 573.576 604.513 572.136 605.665 572.136C606.209 572.136 606.641 572.536 606.961 573.336C607.281 574.136 607.425 575.176 607.393 576.456C607.361 579.048 606.593 582.168 605.089 585.816C603.601 589.448 601.441 593.464 598.609 597.864V603ZM625.077 603.384C626.149 603.384 627.037 602.896 627.741 601.92C628.461 600.944 628.821 599.72 628.821 598.248V581.496C628.821 580.072 628.453 578.864 627.717 577.872C626.997 576.864 626.117 576.36 625.077 576.36C624.533 576.36 623.957 576.528 623.349 576.864C622.741 577.184 622.037 577.728 621.237 578.496V567.72L616.389 567.72V603H621.237V601.272C622.149 602.072 622.885 602.624 623.445 602.928C624.021 603.232 624.565 603.384 625.077 603.384ZM622.677 598.824C622.293 598.824 621.957 598.664 621.669 598.344C621.381 598.024 621.237 597.656 621.237 597.24V582.504C621.237 582.088 621.381 581.72 621.669 581.4C621.973 581.08 622.309 580.92 622.677 580.92C623.045 580.92 623.349 581.08 623.589 581.4C623.845 581.704 623.973 582.072 623.973 582.504V597.24C623.973 597.688 623.845 598.064 623.589 598.368C623.349 598.672 623.045 598.824 622.677 598.824Z" fill="white"/>
</g>
</g>
<g filter="url(#filter5_d_17_1987)">
<path d="M819.658 484.695L821.477 483.645L822 481.611C838.985 415.628 910.417 365.133 997.133 365.133C1096.93 365.133 1176.13 431.799 1176.13 512.133C1176.13 592.468 1096.93 659.133 997.133 659.133C910.417 659.133 838.985 608.638 822 542.656L821.477 540.622L819.658 539.572L772.133 512.133L819.658 484.695Z" stroke="#0A061F" stroke-width="10" shape-rendering="crispEdges"/>
</g>
<path d="M900.592 537.576C903.808 537.576 906.172 536.664 907.684 534.84C909.196 533.016 909.952 530.16 909.952 526.272V522.456H902.68V527.928C902.68 529.104 902.524 529.932 902.212 530.412C901.9 530.868 901.36 531.096 900.592 531.096C899.848 531.096 899.32 530.868 899.008 530.412C898.72 529.932 898.576 529.104 898.576 527.928V506.688C898.576 505.512 898.72 504.696 899.008 504.24C899.32 503.76 899.848 503.52 900.592 503.52C901.36 503.52 901.9 503.76 902.212 504.24C902.524 504.696 902.68 505.512 902.68 506.688V511.44H909.952V508.344C909.952 504.456 909.196 501.6 907.684 499.776C906.172 497.952 903.808 497.04 900.592 497.04C897.376 497.04 895.024 497.976 893.536 499.848C892.048 501.696 891.304 504.648 891.304 508.704V525.912C891.304 529.968 892.048 532.932 893.536 534.804C895.024 536.652 897.376 537.576 900.592 537.576ZM923.231 537.576C926.015 537.576 928.271 536.64 929.999 534.768C931.727 532.896 932.591 530.448 932.591 527.424V507.192C932.591 504.192 931.727 501.756 929.999 499.884C928.271 497.988 926.015 497.04 923.231 497.04C920.447 497.04 918.203 497.988 916.499 499.884C914.795 501.78 913.943 504.288 913.943 507.408V527.208C913.943 530.328 914.795 532.836 916.499 534.732C918.203 536.628 920.447 537.576 923.231 537.576ZM923.231 531.168C921.599 531.168 920.783 529.848 920.783 527.208V507.408C920.783 504.72 921.599 503.376 923.231 503.376C924.911 503.376 925.751 504.72 925.751 507.408V527.208C925.751 529.848 924.911 531.168 923.231 531.168ZM962.423 497.04C961.919 497.04 961.415 497.148 960.911 497.364C960.407 497.556 959.759 497.964 958.967 498.588C958.199 499.212 957.155 500.16 955.835 501.432C955.379 500.088 954.719 499.02 953.855 498.228C952.991 497.436 952.007 497.04 950.903 497.04C950.159 497.04 949.391 497.28 948.599 497.76C947.807 498.24 946.559 499.296 944.855 500.928V497.616H937.583V537H944.855V505.968C945.791 504.72 946.703 504.096 947.591 504.096C948.887 504.096 949.535 504.672 949.535 505.824V537H956.375V505.968C957.311 504.72 958.223 504.096 959.111 504.096C960.407 504.096 961.055 504.672 961.055 505.824V537H967.895V504.744C967.895 502.584 967.367 500.76 966.311 499.272C965.255 497.784 963.959 497.04 962.423 497.04ZM998.353 497.04C997.849 497.04 997.345 497.148 996.841 497.364C996.337 497.556 995.689 497.964 994.897 498.588C994.129 499.212 993.085 500.16 991.765 501.432C991.309 500.088 990.649 499.02 989.785 498.228C988.921 497.436 987.937 497.04 986.833 497.04C986.089 497.04 985.321 497.28 984.529 497.76C983.737 498.24 982.489 499.296 980.785 500.928V497.616H973.513V537H980.785V505.968C981.721 504.72 982.633 504.096 983.521 504.096C984.817 504.096 985.465 504.672 985.465 505.824V537H992.305V505.968C993.241 504.72 994.153 504.096 995.041 504.096C996.337 504.096 996.985 504.672 996.985 505.824V537H1003.82V504.744C1003.82 502.584 1003.3 500.76 1002.24 499.272C1001.18 497.784 999.889 497.04 998.353 497.04ZM1009.44 491.352H1016.71V484.08H1009.44V491.352ZM1009.44 537H1016.71V497.616H1009.44V537ZM1032.03 537.576C1033.31 537.576 1034.6 537.408 1035.92 537.072V529.944C1034.67 530.136 1033.79 530.232 1033.26 530.232C1031.72 530.232 1030.95 528.072 1030.95 523.752V504.168H1035.92V497.616H1030.95V487.896H1023.68V497.616H1020.01V504.168H1023.68V524.328C1023.68 528.96 1024.34 532.332 1025.66 534.444C1026.98 536.532 1029.11 537.576 1032.03 537.576ZM1049.26 537.576C1050.53 537.576 1051.83 537.408 1053.15 537.072V529.944C1051.9 530.136 1051.01 530.232 1050.48 530.232C1048.95 530.232 1048.18 528.072 1048.18 523.752V504.168H1053.15V497.616H1048.18V487.896H1040.91V497.616H1037.24V504.168H1040.91V524.328C1040.91 528.96 1041.57 532.332 1042.89 534.444C1044.21 536.532 1046.33 537.576 1049.26 537.576ZM1065.83 537.576C1068.73 537.576 1071.02 536.64 1072.7 534.768C1074.41 532.872 1075.26 530.304 1075.26 527.064V522.888H1068.49V527.208C1068.49 528.432 1068.26 529.404 1067.81 530.124C1067.35 530.82 1066.72 531.168 1065.9 531.168C1065.08 531.168 1064.44 530.82 1063.96 530.124C1063.48 529.404 1063.24 528.432 1063.24 527.208V518.64H1075.26V507.552C1075.26 504.336 1074.41 501.78 1072.7 499.884C1071.02 497.988 1068.76 497.04 1065.9 497.04C1063 497.04 1060.69 498.024 1058.99 499.992C1057.31 501.936 1056.47 504.588 1056.47 507.948V526.668C1056.47 530.076 1057.3 532.752 1058.95 534.696C1060.63 536.616 1062.92 537.576 1065.83 537.576ZM1063.24 512.952V507.408C1063.24 504.72 1064.12 503.376 1065.9 503.376C1067.63 503.376 1068.49 504.72 1068.49 507.408V512.952H1063.24ZM1085.58 537.576C1087.21 537.576 1089.13 536.52 1091.34 534.408V537H1098.61V484.08H1091.34V500.208C1090.02 499.032 1088.92 498.216 1088.06 497.76C1087.2 497.28 1086.37 497.04 1085.58 497.04C1083.99 497.04 1082.66 497.784 1081.58 499.272C1080.5 500.736 1079.96 502.56 1079.96 504.744V529.872C1079.96 532.008 1080.5 533.832 1081.58 535.344C1082.68 536.832 1084.02 537.576 1085.58 537.576ZM1089.18 530.736C1088.62 530.736 1088.16 530.508 1087.77 530.052C1087.41 529.596 1087.23 529.032 1087.23 528.36V506.256C1087.23 505.584 1087.42 505.02 1087.81 504.564C1088.19 504.108 1088.65 503.88 1089.18 503.88C1089.73 503.88 1090.22 504.12 1090.65 504.6C1091.11 505.08 1091.34 505.632 1091.34 506.256V528.36C1091.34 528.984 1091.12 529.536 1090.69 530.016C1090.26 530.496 1089.75 530.736 1089.18 530.736Z" fill="#3C871B"/>
<defs>
<filter id="filter0_d_17_1987" x="292.399" y="302.816" width="441.296" height="426.508" filterUnits="userSpaceOnUse" color-interpolation-filters="sRGB">
<feFlood flood-opacity="0" result="BackgroundImageFix"/>
<feColorMatrix in="SourceAlpha" type="matrix" values="0 0 0 0 0 0 0 0 0 0 0 0 0 0 0 0 0 0 127 0" result="hardAlpha"/>
<feOffset dx="4" dy="4"/>
<feGaussianBlur stdDeviation="2"/>
<feComposite in2="hardAlpha" operator="out"/>
<feColorMatrix type="matrix" values="0 0 0 0 0 0 0 0 0 0 0 0 0 0 0 0 0 0 0.25 0"/>
<feBlend mode="normal" in2="BackgroundImageFix" result="effect1_dropShadow_17_1987"/>
<feBlend mode="normal" in="SourceGraphic" in2="effect1_dropShadow_17_1987" result="shape"/>
</filter>
<filter id="filter1_i_17_1987" x="540.003" y="462.003" width="105" height="105" filterUnits="userSpaceOnUse" color-interpolation-filters="sRGB">
<feFlood flood-opacity="0" result="BackgroundImageFix"/>
<feBlend mode="normal" in="SourceGraphic" in2="BackgroundImageFix" result="shape"/>
<feColorMatrix in="SourceAlpha" type="matrix" values="0 0 0 0 0 0 0 0 0 0 0 0 0 0 0 0 0 0 127 0" result="hardAlpha"/>
<feOffset dx="4" dy="4"/>
<feGaussianBlur stdDeviation="2"/>
<feComposite in2="hardAlpha" operator="arithmetic" k2="-1" k3="1"/>
<feColorMatrix type="matrix" values="0 0 0 0 0 0 0 0 0 0 0 0 0 0 0 0 0 0 0.25 0"/>
<feBlend mode="normal" in2="shape" result="effect1_innerShadow_17_1987"/>
</filter>
<filter id="filter2_i_17_1987" x="382.003" y="370.004" width="105" height="105" filterUnits="userSpaceOnUse" color-interpolation-filters="sRGB">
<feFlood flood-opacity="0" result="BackgroundImageFix"/>
<feBlend mode="normal" in="SourceGraphic" in2="BackgroundImageFix" result="shape"/>
<feColorMatrix in="SourceAlpha" type="matrix" values="0 0 0 0 0 0 0 0 0 0 0 0 0 0 0 0 0 0 127 0" result="hardAlpha"/>
<feOffset dx="4" dy="4"/>
<feGaussianBlur stdDeviation="2"/>
<feComposite in2="hardAlpha" operator="arithmetic" k2="-1" k3="1"/>
<feColorMatrix type="matrix" values="0 0 0 0 0 0 0 0 0 0 0 0 0 0 0 0 0 0 0.25 0"/>
<feBlend mode="normal" in2="shape" result="effect1_innerShadow_17_1987"/>
</filter>
<filter id="filter3_i_17_1987" x="382" y="549" width="105.017" height="105.017" filterUnits="userSpaceOnUse" color-interpolation-filters="sRGB">
<feFlood flood-opacity="0" result="BackgroundImageFix"/>
<feBlend mode="normal" in="SourceGraphic" in2="BackgroundImageFix" result="shape"/>
<feColorMatrix in="SourceAlpha" type="matrix" values="0 0 0 0 0 0 0 0 0 0 0 0 0 0 0 0 0 0 127 0" result="hardAlpha"/>
<feOffset dx="4" dy="4"/>
<feGaussianBlur stdDeviation="2"/>
<feComposite in2="hardAlpha" operator="arithmetic" k2="-1" k3="1"/>
<feColorMatrix type="matrix" values="0 0 0 0 0 0 0 0 0 0 0 0 0 0 0 0 0 0 0.25 0"/>
<feBlend mode="normal" in2="shape" result="effect1_innerShadow_17_1987"/>
</filter>
<filter id="filter4_i_17_1987" x="549.92" y="567.336" width="80.9008" height="38.048" filterUnits="userSpaceOnUse" color-interpolation-filters="sRGB">
<feFlood flood-opacity="0" result="BackgroundImageFix"/>
<feBlend mode="normal" in="SourceGraphic" in2="BackgroundImageFix" result="shape"/>
<feColorMatrix in="SourceAlpha" type="matrix" values="0 0 0 0 0 0 0 0 0 0 0 0 0 0 0 0 0 0 127 0" result="hardAlpha"/>
<feOffset dx="2" dy="2"/>
<feGaussianBlur stdDeviation="1"/>
<feComposite in2="hardAlpha" operator="arithmetic" k2="-1" k3="1"/>
<feColorMatrix type="matrix" values="0 0 0 0 0 0 0 0 0 0 0 0 0 0 0 0 0 0 0.25 0"/>
<feBlend mode="normal" in2="shape" result="effect1_innerShadow_17_1987"/>
</filter>
<filter id="filter5_d_17_1987" x="762.133" y="360.133" width="427" height="312" filterUnits="userSpaceOnUse" color-interpolation-filters="sRGB">
<feFlood flood-opacity="0" result="BackgroundImageFix"/>
<feColorMatrix in="SourceAlpha" type="matrix" values="0 0 0 0 0 0 0 0 0 0 0 0 0 0 0 0 0 0 127 0" result="hardAlpha"/>
<feOffset dx="4" dy="4"/>
<feGaussianBlur stdDeviation="2"/>
<feComposite in2="hardAlpha" operator="out"/>
<feColorMatrix type="matrix" values="0 0 0 0 0 0 0 0 0 0 0 0 0 0 0 0 0 0 0.25 0"/>
<feBlend mode="normal" in2="BackgroundImageFix" result="effect1_dropShadow_17_1987"/>
<feBlend mode="normal" in="SourceGraphic" in2="effect1_dropShadow_17_1987" result="shape"/>
</filter>
</defs>
</svg>
