<svg width="1440" height="1024" viewBox="0 0 1440 1024" fill="none" xmlns="http://www.w3.org/2000/svg">
<rect width="1440" height="1024" fill="white"/>
<g filter="url(#filter0_d_17_1987)">
<path d="M363.257 721.324L363.257 302.816L725.696 512.07L363.257 721.324Z" fill="#0A061F"/>
<path fill-rule="evenodd" clip-rule="evenodd" d="M567.457 671.729L479.178 518.799L302.505 518.799C303.41 547.497 311.209 576.394 326.569 602.999C375.319 687.436 482.131 717.452 567.457 671.729ZM302.515 507.182L479.139 507.182L567.468 354.192C514.419 325.87 448.388 324.755 392.475 357.036C336.556 389.321 304.505 447.072 302.515 507.182ZM577.533 359.991L489.219 512.956L577.517 665.921C659.776 614.888 687.188 507.379 638.438 422.942C623.074 396.33 601.942 375.124 577.533 359.991ZM482.504 512.971L482.469 512.951L482.469 512.99L482.504 512.971ZM578.341 678.965C486.665 731.895 369.438 700.484 316.509 608.808C263.58 517.131 294.99 399.905 386.667 346.976C478.343 294.047 595.569 325.457 648.498 417.133C701.428 508.81 670.017 626.036 578.341 678.965Z" fill="#0A061F"/>
<path fill-rule="evenodd" clip-rule="evenodd" d="M302.515 507.182L479.139 507.182L567.468 354.192C514.419 325.87 448.388 324.755 392.475 357.036C336.556 389.321 304.505 447.072 302.515 507.182Z" fill="#3C871B"/>
<path fill-rule="evenodd" clip-rule="evenodd" d="M567.457 671.729L479.178 518.799L302.505 518.799C303.41 547.497 311.209 576.394 326.569 602.999C375.319 687.436 482.131 717.452 567.457 671.729Z" fill="#932424"/>
<path fill-rule="evenodd" clip-rule="evenodd" d="M577.533 359.991L489.219 512.956L577.517 665.921C659.776 614.888 687.188 507.379 638.438 422.942C623.074 396.33 601.942 375.124 577.533 359.991Z" fill="#CF9B27"/>
<g filter="url(#filter1_i_17_1987)">
<path fill-rule="evenodd" clip-rule="evenodd" d="M474.963 394.43C461.018 370.276 430.133 362 405.979 375.945C381.825 389.89 373.549 420.776 387.495 444.93C401.44 469.083 432.325 477.359 456.479 463.414C480.633 449.469 488.908 418.583 474.963 394.43ZM443.737 438.782L451.034 416.555C451.473 415.22 450.713 413.904 449.337 413.616L408.827 405.135C407.451 404.847 405.98 405.696 405.542 407.031L403.954 411.867C403.516 413.203 404.275 414.519 405.651 414.807L438.689 421.723L433.773 436.696C433.335 438.031 434.095 439.347 435.47 439.635L440.452 440.678C441.828 440.966 443.299 440.117 443.737 438.782Z" fill="white"/>
</g>
<g filter="url(#filter2_i_17_1987)">
<path fill-rule="evenodd" clip-rule="evenodd" d="M474.289 577.261C460.344 553.108 429.458 544.832 405.304 558.777C381.151 572.722 372.875 603.608 386.82 627.761C400.765 651.915 431.651 660.191 455.804 646.246C479.958 632.301 488.234 601.415 474.289 577.261ZM408.987 590.155C407.002 593.593 408.301 598.073 411.882 600.141C415.463 602.208 419.992 601.093 421.977 597.655C423.962 594.217 422.663 589.738 419.082 587.67C415.501 585.602 410.972 586.717 408.987 590.155ZM428.998 595.77L451.693 607.46C452.837 608.05 453.278 609.44 452.661 610.51L448.451 617.801C447.834 618.87 446.409 619.184 445.327 618.488L423.855 604.678C422.847 604.029 422.507 602.737 423.083 601.741L426.068 596.57C426.643 595.573 427.932 595.221 428.998 595.77Z" fill="white"/>
</g>
<g filter="url(#filter3_i_17_1987)">
<path fill-rule="evenodd" clip-rule="evenodd" d="M636.075 513.005C636.075 485.114 613.465 462.505 585.575 462.505C557.684 462.505 535.075 485.114 535.075 513.005C535.075 540.895 557.684 563.505 585.575 563.505C613.465 563.505 636.075 540.895 636.075 513.005ZM580.725 508.859L580.725 495.359C580.725 493.703 582.068 492.359 583.725 492.359L586.725 492.359C588.381 492.359 589.725 493.703 589.725 495.359L589.725 508.859L603.225 508.859C604.881 508.859 606.225 510.203 606.225 511.859L606.225 514.859C606.225 516.516 604.881 517.859 603.225 517.859L589.725 517.859L589.725 531.359C589.725 533.016 588.381 534.359 586.725 534.359L583.725 534.359C582.068 534.359 580.725 533.016 580.725 531.359L580.725 517.859L567.225 517.859C565.568 517.859 564.225 516.516 564.225 514.859L564.225 511.859C564.225 510.203 565.568 508.859 567.225 508.859L580.725 508.859Z" fill="white"/>
</g>
<g filter="url(#filter4_i_17_1987)">
<path d="M524.617 399.672C524.233 399.007 523.679 398.495 522.955 398.137C522.218 397.787 521.419 397.62 520.56 397.636L520.392 397.345C521.32 396.809 521.858 396.332 522.005 395.915L519.629 391.8C518.848 392.398 518.185 392.883 517.641 393.252C517.097 393.622 516.499 393.995 515.848 394.371L501.88 402.435C500.91 402.995 500.17 403.727 499.658 404.633C499.146 405.538 498.885 406.51 498.876 407.55C498.858 408.576 499.126 409.568 499.678 410.524C500.278 411.563 501.096 412.356 502.132 412.903C503.169 413.45 504.299 413.712 505.524 413.689C506.726 413.66 507.889 413.321 509.011 412.673L509.967 412.121L507.543 407.923C506.254 408.667 505.331 409.098 504.771 409.218C504.198 409.346 503.776 409.174 503.504 408.703C503.152 408.093 503.197 407.596 503.64 407.211C504.083 406.826 504.498 406.521 504.886 406.297L506.882 405.145C507.159 404.985 507.394 404.896 507.586 404.877C507.757 404.852 508.02 404.941 508.376 405.141C508.724 405.328 509.304 405.677 510.116 406.188C511.987 407.38 513.801 407.977 515.557 407.979C517.3 407.989 519.078 407.47 520.894 406.422C522.584 405.446 523.791 404.352 524.514 403.141C525.215 401.923 525.249 400.767 524.617 399.672ZM519.422 400.177C519.886 400.981 519.446 401.771 518.102 402.547C516.91 403.235 515.72 403.59 514.531 403.611C513.335 403.618 512.254 403.282 511.288 402.601L517.066 399.265C517.413 399.065 517.831 399.054 518.322 399.233C518.799 399.419 519.166 399.734 519.422 400.177ZM517.079 387.383L514.487 382.894L483.934 400.534L485.494 403.236C486.214 403.171 486.932 403.2 487.649 403.321C488.289 403.469 488.989 403.721 489.748 404.077C490.508 404.433 491.257 405.026 491.995 405.856L494.863 404.2L493.135 401.207L517.079 387.383ZM511.281 376.574C510.897 375.908 510.343 375.397 509.619 375.039C508.882 374.689 508.083 374.522 507.224 374.538L507.056 374.247C507.984 373.711 508.522 373.234 508.669 372.816L506.293 368.701C505.512 369.3 504.849 369.784 504.305 370.154C503.761 370.523 503.163 370.896 502.512 371.272L488.544 379.336C487.575 379.896 486.834 380.629 486.322 381.534C485.81 382.439 485.549 383.412 485.54 384.452C485.523 385.478 485.79 386.469 486.342 387.425C486.942 388.464 487.76 389.258 488.797 389.805C489.833 390.352 490.963 390.614 492.188 390.59C493.39 390.561 494.553 390.223 495.675 389.575L496.631 389.023L494.207 384.824C492.918 385.568 491.995 386 491.435 386.119C490.862 386.247 490.44 386.075 490.168 385.604C489.816 384.994 489.861 384.497 490.304 384.112C490.747 383.727 491.162 383.423 491.55 383.199L493.546 382.047C493.823 381.887 494.058 381.797 494.25 381.779C494.421 381.754 494.684 381.842 495.04 382.043C495.388 382.23 495.968 382.579 496.78 383.089C498.651 384.281 500.465 384.879 502.221 384.881C503.964 384.891 505.742 384.372 507.558 383.324C509.248 382.348 510.455 381.254 511.178 380.042C511.879 378.824 511.913 377.668 511.281 376.574ZM506.086 377.079C506.55 377.883 506.11 378.672 504.766 379.448C503.574 380.136 502.384 380.491 501.195 380.512C499.999 380.52 498.918 380.183 497.952 379.503L503.73 376.167C504.077 375.967 504.495 375.956 504.986 376.134C505.463 376.321 505.83 376.636 506.086 377.079ZM503.743 364.285L501.151 359.795L470.598 377.435L472.158 380.137C472.878 380.073 473.596 380.101 474.313 380.223C474.953 380.371 475.653 380.623 476.412 380.979C477.172 381.334 477.921 381.927 478.659 382.758L481.527 381.102L479.799 378.109L503.743 364.285ZM497.945 353.475C497.561 352.81 497.007 352.298 496.283 351.94C495.546 351.59 494.747 351.423 493.888 351.439L493.72 351.148C494.648 350.612 495.186 350.135 495.333 349.718L492.957 345.603C492.176 346.201 491.513 346.686 490.969 347.055C490.425 347.425 489.827 347.798 489.176 348.174L475.209 356.238C474.239 356.798 473.498 357.53 472.986 358.435C472.474 359.341 472.213 360.313 472.204 361.353C472.187 362.379 472.454 363.371 473.006 364.327C473.606 365.366 474.424 366.159 475.461 366.706C476.497 367.253 477.627 367.515 478.852 367.492C480.054 367.463 481.217 367.124 482.339 366.476L483.295 365.924L480.871 361.726C479.583 362.47 478.659 362.901 478.1 363.021C477.527 363.148 477.104 362.977 476.832 362.506C476.48 361.896 476.525 361.399 476.968 361.014C477.411 360.629 477.827 360.324 478.215 360.1L480.21 358.948C480.487 358.788 480.722 358.699 480.914 358.68C481.085 358.655 481.348 358.744 481.704 358.944C482.052 359.131 482.632 359.48 483.444 359.99C485.315 361.183 487.129 361.78 488.885 361.782C490.628 361.792 492.406 361.273 494.222 360.225C495.912 359.249 497.119 358.155 497.842 356.944C498.543 355.726 498.577 354.57 497.945 353.475ZM492.75 353.98C493.214 354.784 492.774 355.574 491.43 356.35C490.238 357.038 489.048 357.393 487.86 357.414C486.663 357.421 485.582 357.084 484.616 356.404L490.394 353.068C490.741 352.868 491.159 352.857 491.65 353.036C492.128 353.222 492.494 353.537 492.75 353.98Z" fill="white"/>
</g>
</g>
<g filter="url(#filter5_d_17_1987)">
<path d="M819.658 484.695L821.477 483.645L822 481.611C838.985 415.628 910.417 365.133 997.133 365.133C1096.93 365.133 1176.13 431.799 1176.13 512.133C1176.13 592.468 1096.93 659.133 997.133 659.133C910.417 659.133 838.985 608.638 822 542.656L821.477 540.622L819.658 539.572L772.133 512.133L819.658 484.695Z" stroke="#0A061F" stroke-width="10" shape-rendering="crispEdges"/>
</g>
<path d="M936.384 537.576C939.216 537.576 941.472 536.592 943.152 534.624C944.832 532.656 945.672 530.04 945.672 526.776C945.672 524.784 945.18 522.912 944.196 521.16C943.212 519.384 941.472 517.248 938.976 514.752C937.224 513.12 935.988 511.752 935.268 510.648C934.572 509.52 934.224 508.404 934.224 507.3C934.224 504.492 934.968 503.088 936.456 503.088C937.296 503.088 937.896 503.448 938.256 504.168C938.64 504.864 938.832 506.04 938.832 507.696H945.6C945.6 503.976 944.856 501.264 943.368 499.56C941.88 497.832 939.528 496.992 936.312 497.04C933.528 497.088 931.356 498.048 929.796 499.92C928.236 501.792 927.456 504.384 927.456 507.696C927.456 509.112 927.66 510.42 928.068 511.62C928.476 512.796 929.184 514.02 930.192 515.292C931.2 516.564 932.592 518.064 934.368 519.792C936.144 521.568 937.344 522.972 937.968 524.004C938.592 525.036 938.904 526.128 938.904 527.28C938.904 530.112 938.064 531.528 936.384 531.528C935.328 531.528 934.5 531.012 933.9 529.98C933.3 528.924 933 527.448 933 525.552H926.232C926.232 529.368 927.12 532.332 928.896 534.444C930.672 536.532 933.168 537.576 936.384 537.576ZM960.51 537.576C961.782 537.576 963.078 537.408 964.398 537.072V529.944C963.15 530.136 962.262 530.232 961.734 530.232C960.198 530.232 959.43 528.072 959.43 523.752V504.168H964.398V497.616H959.43V487.896H952.158V497.616H948.486V504.168H952.158V524.328C952.158 528.96 952.818 532.332 954.138 534.444C955.458 536.532 957.582 537.576 960.51 537.576ZM972.977 537.576C974.129 537.576 975.209 537.24 976.217 536.568C977.225 535.872 978.041 534.96 978.665 533.832H979.169C979.169 535.44 979.385 536.496 979.817 537H986.945C986.753 535.536 986.621 534.312 986.549 533.328C986.477 532.344 986.441 531.288 986.441 530.16V505.968C986.441 504.288 986.045 502.776 985.253 501.432C984.461 500.088 983.393 499.02 982.049 498.228C980.729 497.436 979.241 497.04 977.585 497.04C975.785 497.04 974.141 497.508 972.653 498.444C971.165 499.38 969.977 500.652 969.089 502.26C968.225 503.844 967.793 505.608 967.793 507.552V509.208H975.065C975.065 506.976 975.197 505.452 975.461 504.636C975.725 503.796 976.265 503.376 977.081 503.376C978.137 503.376 978.749 503.808 978.917 504.672C979.085 505.536 979.169 506.304 979.169 506.976V510.432C979.169 510.912 979.109 511.284 978.989 511.548C978.893 511.788 978.581 512.064 978.053 512.376C977.549 512.688 976.661 513.18 975.389 513.852C972.437 515.388 970.301 517.296 968.981 519.576C967.661 521.832 967.001 524.532 967.001 527.676C967.001 530.604 967.517 532.992 968.549 534.84C969.605 536.664 971.081 537.576 972.977 537.576ZM976.217 530.448C974.825 530.448 974.129 529.284 974.129 526.956C974.129 524.892 974.561 523.08 975.425 521.52C976.313 519.96 977.561 518.808 979.169 518.064V528.072C979.169 528.672 978.869 529.224 978.269 529.728C977.669 530.208 976.985 530.448 976.217 530.448ZM1000.64 551.112C1008.95 551.112 1013.1 547.752 1013.1 541.032C1013.1 538.296 1012.31 536.208 1010.72 534.768C1009.16 533.328 1006.59 532.368 1003.02 531.888C999.323 531.36 997.475 530.544 997.475 529.44C997.475 528.768 997.799 528.156 998.447 527.604C998.567 527.628 998.795 527.664 999.131 527.712C999.467 527.736 999.635 527.736 999.635 527.712C1002.95 527.712 1005.37 526.788 1006.91 524.94C1008.44 523.092 1009.21 520.176 1009.21 516.192V506.832C1009.21 505.872 1009.07 505.068 1008.78 504.42C1009.79 503.82 1011.23 503.52 1013.1 503.52V497.04C1012.38 497.04 1011.48 497.364 1010.4 498.012C1009.34 498.636 1008.25 499.512 1007.12 500.64C1005.37 498.24 1002.95 497.04 999.851 497.04C996.971 497.04 994.715 498.036 993.083 500.028C991.451 502.02 990.635 504.768 990.635 508.272V517.056C990.635 519.048 991.007 520.872 991.751 522.528C992.495 524.184 993.503 525.444 994.775 526.308C993.383 527.004 992.279 527.88 991.463 528.936C990.671 529.992 990.275 531.096 990.275 532.248C990.275 533.376 990.659 534.408 991.427 535.344C992.219 536.256 993.311 536.964 994.703 537.468C992.519 538.596 991.019 539.604 990.203 540.492C989.387 541.404 988.979 542.496 988.979 543.768C988.979 546.072 990.011 547.872 992.075 549.168C994.139 550.464 996.995 551.112 1000.64 551.112ZM999.851 521.664C998.459 521.664 997.763 520.488 997.763 518.136V507.336C997.763 504.936 998.459 503.736 999.851 503.736C1000.55 503.736 1001.09 504.06 1001.47 504.708C1001.88 505.332 1002.08 506.208 1002.08 507.336V518.136C1002.08 520.488 1001.34 521.664 999.851 521.664ZM1000.79 544.992C997.619 544.992 996.035 544.08 996.035 542.256C996.035 540.96 996.911 539.808 998.663 538.8L1002.44 539.52C1005.03 540.024 1006.33 540.96 1006.33 542.328C1006.33 543.168 1005.84 543.816 1004.85 544.272C1003.89 544.752 1002.54 544.992 1000.79 544.992ZM1024.47 537.576C1027.37 537.576 1029.66 536.64 1031.34 534.768C1033.05 532.872 1033.9 530.304 1033.9 527.064V522.888H1027.13V527.208C1027.13 528.432 1026.9 529.404 1026.45 530.124C1025.99 530.82 1025.36 531.168 1024.54 531.168C1023.72 531.168 1023.08 530.82 1022.6 530.124C1022.12 529.404 1021.88 528.432 1021.88 527.208V518.64H1033.9V507.552C1033.9 504.336 1033.05 501.78 1031.34 499.884C1029.66 497.988 1027.4 497.04 1024.54 497.04C1021.64 497.04 1019.33 498.024 1017.63 499.992C1015.95 501.936 1015.11 504.588 1015.11 507.948V526.668C1015.11 530.076 1015.94 532.752 1017.59 534.696C1019.27 536.616 1021.56 537.576 1024.47 537.576ZM1021.88 512.952V507.408C1021.88 504.72 1022.76 503.376 1024.54 503.376C1026.27 503.376 1027.13 504.72 1027.13 507.408V512.952H1021.88ZM1044.22 537.576C1045.85 537.576 1047.77 536.52 1049.98 534.408V537H1057.25V484.08H1049.98V500.208C1048.66 499.032 1047.56 498.216 1046.7 497.76C1045.84 497.28 1045.01 497.04 1044.22 497.04C1042.63 497.04 1041.3 497.784 1040.22 499.272C1039.14 500.736 1038.6 502.56 1038.6 504.744V529.872C1038.6 532.008 1039.14 533.832 1040.22 535.344C1041.32 536.832 1042.66 537.576 1044.22 537.576ZM1047.82 530.736C1047.26 530.736 1046.8 530.508 1046.41 530.052C1046.05 529.596 1045.87 529.032 1045.87 528.36V506.256C1045.87 505.584 1046.06 505.02 1046.45 504.564C1046.83 504.108 1047.29 503.88 1047.82 503.88C1048.37 503.88 1048.86 504.12 1049.29 504.6C1049.75 505.08 1049.98 505.632 1049.98 506.256V528.36C1049.98 528.984 1049.76 529.536 1049.33 530.016C1048.9 530.496 1048.39 530.736 1047.82 530.736Z" fill="#CF9B27"/>
<defs>
<filter id="filter0_d_17_1987" x="290.798" y="302.816" width="442.898" height="426.508" filterUnits="userSpaceOnUse" color-interpolation-filters="sRGB">
<feFlood flood-opacity="0" result="BackgroundImageFix"/>
<feColorMatrix in="SourceAlpha" type="matrix" values="0 0 0 0 0 0 0 0 0 0 0 0 0 0 0 0 0 0 127 0" result="hardAlpha"/>
<feOffset dx="4" dy="4"/>
<feGaussianBlur stdDeviation="2"/>
<feComposite in2="hardAlpha" operator="out"/>
<feColorMatrix type="matrix" values="0 0 0 0 0 0 0 0 0 0 0 0 0 0 0 0 0 0 0.25 0"/>
<feBlend mode="normal" in2="BackgroundImageFix" result="effect1_dropShadow_17_1987"/>
<feBlend mode="normal" in="SourceGraphic" in2="effect1_dropShadow_17_1987" result="shape"/>
</filter>
<filter id="filter1_i_17_1987" x="380.72" y="369.171" width="105.017" height="105.017" filterUnits="userSpaceOnUse" color-interpolation-filters="sRGB">
<feFlood flood-opacity="0" result="BackgroundImageFix"/>
<feBlend mode="normal" in="SourceGraphic" in2="BackgroundImageFix" result="shape"/>
<feColorMatrix in="SourceAlpha" type="matrix" values="0 0 0 0 0 0 0 0 0 0 0 0 0 0 0 0 0 0 127 0" result="hardAlpha"/>
<feOffset dx="4" dy="4"/>
<feGaussianBlur stdDeviation="2"/>
<feComposite in2="hardAlpha" operator="arithmetic" k2="-1" k3="1"/>
<feColorMatrix type="matrix" values="0 0 0 0 0 0 0 0 0 0 0 0 0 0 0 0 0 0 0.25 0"/>
<feBlend mode="normal" in2="shape" result="effect1_innerShadow_17_1987"/>
</filter>
<filter id="filter2_i_17_1987" x="380.046" y="552.003" width="105.017" height="105.017" filterUnits="userSpaceOnUse" color-interpolation-filters="sRGB">
<feFlood flood-opacity="0" result="BackgroundImageFix"/>
<feBlend mode="normal" in="SourceGraphic" in2="BackgroundImageFix" result="shape"/>
<feColorMatrix in="SourceAlpha" type="matrix" values="0 0 0 0 0 0 0 0 0 0 0 0 0 0 0 0 0 0 127 0" result="hardAlpha"/>
<feOffset dx="4" dy="4"/>
<feGaussianBlur stdDeviation="2"/>
<feComposite in2="hardAlpha" operator="arithmetic" k2="-1" k3="1"/>
<feColorMatrix type="matrix" values="0 0 0 0 0 0 0 0 0 0 0 0 0 0 0 0 0 0 0.25 0"/>
<feBlend mode="normal" in2="shape" result="effect1_innerShadow_17_1987"/>
</filter>
<filter id="filter3_i_17_1987" x="535.075" y="462.505" width="105" height="105" filterUnits="userSpaceOnUse" color-interpolation-filters="sRGB">
<feFlood flood-opacity="0" result="BackgroundImageFix"/>
<feBlend mode="normal" in="SourceGraphic" in2="BackgroundImageFix" result="shape"/>
<feColorMatrix in="SourceAlpha" type="matrix" values="0 0 0 0 0 0 0 0 0 0 0 0 0 0 0 0 0 0 127 0" result="hardAlpha"/>
<feOffset dx="4" dy="4"/>
<feGaussianBlur stdDeviation="2"/>
<feComposite in2="hardAlpha" operator="arithmetic" k2="-1" k3="1"/>
<feColorMatrix type="matrix" values="0 0 0 0 0 0 0 0 0 0 0 0 0 0 0 0 0 0 0.25 0"/>
<feBlend mode="normal" in2="shape" result="effect1_innerShadow_17_1987"/>
</filter>
<filter id="filter4_i_17_1987" x="462.404" y="345.411" width="66.2057" height="77.5437" filterUnits="userSpaceOnUse" color-interpolation-filters="sRGB">
<feFlood flood-opacity="0" result="BackgroundImageFix"/>
<feBlend mode="normal" in="SourceGraphic" in2="BackgroundImageFix" result="shape"/>
<feColorMatrix in="SourceAlpha" type="matrix" values="0 0 0 0 0 0 0 0 0 0 0 0 0 0 0 0 0 0 127 0" result="hardAlpha"/>
<feOffset dx="2" dy="2"/>
<feGaussianBlur stdDeviation="1"/>
<feComposite in2="hardAlpha" operator="arithmetic" k2="-1" k3="1"/>
<feColorMatrix type="matrix" values="0 0 0 0 0 0 0 0 0 0 0 0 0 0 0 0 0 0 0.25 0"/>
<feBlend mode="normal" in2="shape" result="effect1_innerShadow_17_1987"/>
</filter>
<filter id="filter5_d_17_1987" x="762.133" y="360.133" width="427" height="312" filterUnits="userSpaceOnUse" color-interpolation-filters="sRGB">
<feFlood flood-opacity="0" result="BackgroundImageFix"/>
<feColorMatrix in="SourceAlpha" type="matrix" values="0 0 0 0 0 0 0 0 0 0 0 0 0 0 0 0 0 0 127 0" result="hardAlpha"/>
<feOffset dx="4" dy="4"/>
<feGaussianBlur stdDeviation="2"/>
<feComposite in2="hardAlpha" operator="out"/>
<feColorMatrix type="matrix" values="0 0 0 0 0 0 0 0 0 0 0 0 0 0 0 0 0 0 0.25 0"/>
<feBlend mode="normal" in2="BackgroundImageFix" result="effect1_dropShadow_17_1987"/>
<feBlend mode="normal" in="SourceGraphic" in2="effect1_dropShadow_17_1987" result="shape"/>
</filter>
</defs>
</svg>
