<svg
      width="1440"
      height="1024"
      viewBox="0 0 1440 1024"
      fill="none"
      xmlns="http://www.w3.org/2000/svg"
    >
      <style>
        #wheel {
          animation: 2s linear 0s 1 normal forwards running wheel;
          transform: rotate(120deg);
          transform-box: fill-box;
          transform-origin: 190px 210px;
        }
        @keyframes wheel {
          0% {
            transform: rotate(120deg);
          }
          100% {
            transform: rotate(240deg);
            transform-box: fill-box;
          }
        }
        #changed {
          animation: 2s linear 1s 1 normal forwards running changed;
          opacity: 1;
        }
        @keyframes changed {
          0% {
            opacity: 1;
          }
          50% {
            opacity: 0;
          }
          100% {
            opacity: 0;
          }
        }
        #staged {
          animation: 2s linear 0s 1 normal forwards running staged;
          opacity: 0;
        }
        @keyframes staged {
          0% {
            opacity: 0;
          }
          50% {
            opacity: 0;
          }
          100% {
            opacity: 1;
          }
        }
      </style>
      <rect width="1440" height="1024" fill="white" />
      <g filter="url(#filter0_d_17_1987)" id="wheel">
        <path
          d="M363.257 302.816L725.696 512.07L363.257 721.324L363.257 302.816Z"
          fill="#0A061F"
          class="pointers"
        />
        <path
          fill-rule="evenodd"
          clip-rule="evenodd"
          d="M304.108 504.455L480.689 504.469L569.025 351.466C543.72 337.9 514.795 330.206 484.073 330.206C386.574 330.206 307.174 407.7 304.108 504.455ZM579.081 357.283L490.769 510.244L579.098 663.234C630.15 631.453 664.131 574.826 664.131 510.263C664.131 445.693 630.143 389.061 579.081 357.283ZM569.043 669.051L480.728 516.086L304.108 516.072C307.174 612.827 386.574 690.321 484.073 690.321C514.802 690.321 543.733 682.623 569.043 669.051ZM484.073 510.263L484.108 510.244L484.073 510.224V510.263ZM292.399 510.263C292.399 404.405 378.215 318.589 484.073 318.589C589.932 318.589 675.748 404.405 675.748 510.263C675.748 616.122 589.932 701.938 484.073 701.938C378.215 701.938 292.399 616.122 292.399 510.263Z"
          fill="#0A061F"
          class="wheel-outlines"
        />
        <path
          fill-rule="evenodd"
          clip-rule="evenodd"
          d="M579.081 357.283L490.769 510.244L579.098 663.234C630.15 631.453 664.131 574.826 664.131 510.263C664.131 445.693 630.143 389.061 579.081 357.283Z"
          fill="#3C871B"
          class="green-piece"
        />
        <path
          fill-rule="evenodd"
          clip-rule="evenodd"
          d="M304.108 504.455L480.689 504.47L569.025 351.466C543.72 337.9 514.795 330.206 484.073 330.206C386.574 330.206 307.174 407.7 304.108 504.455Z"
          fill="#932424"
          class="red-piece"
        />
        <path
          fill-rule="evenodd"
          clip-rule="evenodd"
          d="M569.043 669.051L480.728 516.086L304.108 516.072C307.174 612.827 386.574 690.321 484.073 690.321C514.802 690.321 543.733 682.623 569.043 669.051Z"
          fill="#CF9B27"
          class="yellow-piece"
        />
        <g filter="url(#filter1_i_17_1987)" id="checkcircle">
          <path
            fill-rule="evenodd"
            clip-rule="evenodd"
            d="M590.503 563.003C618.394 563.003 641.003 540.394 641.003 512.503C641.003 484.613 618.394 462.003 590.503 462.003C562.613 462.003 540.003 484.613 540.003 512.503C540.003 540.394 562.613 563.003 590.503 563.003ZM567.706 513.785L583.306 531.218C584.244 532.265 585.763 532.265 586.7 531.218L614.301 500.375C615.238 499.327 615.238 497.629 614.301 496.582L610.906 492.789C609.969 491.742 608.45 491.742 607.512 492.789L585.003 517.942L574.494 506.199C573.557 505.151 572.038 505.151 571.1 506.199L567.706 509.992C566.769 511.039 566.769 512.737 567.706 513.785Z"
            fill="white"
          />
        </g>
        <g filter="url(#filter2_i_17_1987)" id="exclcircle">
          <path
            fill-rule="evenodd"
            clip-rule="evenodd"
            d="M432.503 471.003C460.394 471.003 483.003 448.394 483.003 420.503C483.003 392.613 460.394 370.003 432.503 370.003C404.613 370.003 382.003 392.613 382.003 420.503C382.003 448.394 404.613 471.003 432.503 471.003ZM453.988 408.003C452.003 404.565 447.474 403.45 443.893 405.518C440.311 407.586 439.013 412.065 440.998 415.503C442.983 418.942 447.511 420.057 451.093 417.989C454.674 415.921 455.973 411.442 453.988 408.003ZM439.12 422.526L417.648 436.336C416.566 437.032 415.141 436.719 414.523 435.649L410.314 428.358C409.696 427.288 410.138 425.898 411.281 425.309L433.977 413.619C435.043 413.07 436.331 413.421 436.907 414.418L439.892 419.589C440.468 420.586 440.128 421.877 439.12 422.526Z"
            fill="white"
          />
        </g>
        <g filter="url(#filter3_i_17_1987)" id="xcircle">
          <path
            fill-rule="evenodd"
            clip-rule="evenodd"
            d="M407.258 643.243C431.412 657.188 462.298 648.912 476.243 624.758C490.188 600.605 481.912 569.719 457.758 555.774C433.605 541.829 402.719 550.105 388.774 574.258C374.829 598.412 383.105 629.298 407.258 643.243ZM438.524 597.381L450.215 604.131C451.65 604.959 452.141 606.794 451.313 608.229L449.813 610.827C448.985 612.262 447.15 612.753 445.715 611.925L434.024 605.175L427.274 616.866C426.445 618.301 424.61 618.793 423.175 617.964L420.577 616.464C419.143 615.636 418.651 613.801 419.479 612.366L426.229 600.675L414.538 593.925C413.103 593.097 412.612 591.262 413.44 589.827L414.94 587.229C415.768 585.794 417.603 585.302 419.038 586.131L430.729 592.881L437.479 581.189C438.308 579.755 440.143 579.263 441.577 580.091L444.175 581.591C445.61 582.42 446.102 584.255 445.274 585.689L438.524 597.381Z"
            fill="white"
          />
        </g>
        <g filter="url(#filter4_i_17_1987)" id="sha">
          <path
            d="M561.136 603.384C561.904 603.384 562.624 603.16 563.296 602.712C563.968 602.248 564.512 601.64 564.928 600.888H565.264C565.264 601.96 565.408 602.664 565.696 603H570.448C570.32 602.024 570.232 601.208 570.184 600.552C570.136 599.896 570.112 599.192 570.112 598.44V582.312C570.112 581.192 569.848 580.184 569.32 579.288C568.792 578.392 568.08 577.68 567.184 577.152C566.304 576.624 565.312 576.36 564.208 576.36C563.008 576.36 561.912 576.672 560.92 577.296C559.928 577.92 559.136 578.768 558.544 579.84C557.968 580.896 557.68 582.072 557.68 583.368V584.472H562.528C562.528 582.984 562.616 581.968 562.792 581.424C562.968 580.864 563.328 580.584 563.872 580.584C564.576 580.584 564.984 580.872 565.096 581.448C565.208 582.024 565.264 582.536 565.264 582.984V585.288C565.264 585.608 565.224 585.856 565.144 586.032C565.08 586.192 564.872 586.376 564.52 586.584C564.184 586.792 563.592 587.12 562.744 587.568C560.776 588.592 559.352 589.864 558.472 591.384C557.592 592.888 557.152 594.688 557.152 596.784C557.152 598.736 557.496 600.328 558.184 601.56C558.888 602.776 559.872 603.384 561.136 603.384ZM563.296 598.632C562.368 598.632 561.904 597.856 561.904 596.304C561.904 594.928 562.192 593.72 562.768 592.68C563.36 591.64 564.192 590.872 565.264 590.376V597.048C565.264 597.448 565.064 597.816 564.664 598.152C564.264 598.472 563.808 598.632 563.296 598.632ZM575.548 603H580.732V567.72H577.612C577.308 568.376 576.924 568.984 576.46 569.544C576.012 570.024 575.444 570.504 574.756 570.984C574.068 571.464 573.18 571.816 572.092 572.04V575.352H575.548V603ZM587.808 603.384C588.576 603.384 589.296 603.16 589.968 602.712C590.64 602.248 591.184 601.64 591.6 600.888H591.936C591.936 601.96 592.08 602.664 592.368 603H597.12C596.992 602.024 596.904 601.208 596.856 600.552C596.808 599.896 596.784 599.192 596.784 598.44V582.312C596.784 581.192 596.52 580.184 595.992 579.288C595.464 578.392 594.752 577.68 593.856 577.152C592.976 576.624 591.984 576.36 590.88 576.36C589.68 576.36 588.584 576.672 587.592 577.296C586.6 577.92 585.808 578.768 585.216 579.84C584.64 580.896 584.352 582.072 584.352 583.368V584.472H589.2C589.2 582.984 589.288 581.968 589.464 581.424C589.64 580.864 590 580.584 590.544 580.584C591.248 580.584 591.656 580.872 591.768 581.448C591.88 582.024 591.936 582.536 591.936 582.984V585.288C591.936 585.608 591.896 585.856 591.816 586.032C591.752 586.192 591.544 586.376 591.192 586.584C590.856 586.792 590.264 587.12 589.416 587.568C587.448 588.592 586.024 589.864 585.144 591.384C584.264 592.888 583.824 594.688 583.824 596.784C583.824 598.736 584.168 600.328 584.856 601.56C585.56 602.776 586.544 603.384 587.808 603.384ZM589.968 598.632C589.04 598.632 588.576 597.856 588.576 596.304C588.576 594.928 588.864 593.72 589.44 592.68C590.032 591.64 590.864 590.872 591.936 590.376V597.048C591.936 597.448 591.736 597.816 591.336 598.152C590.936 598.472 590.48 598.632 589.968 598.632ZM602.22 603H607.404V567.72H604.284C603.98 568.376 603.596 568.984 603.132 569.544C602.684 570.024 602.116 570.504 601.428 570.984C600.74 571.464 599.852 571.816 598.764 572.04V575.352H602.22V603ZM614.48 603.384C615.248 603.384 615.968 603.16 616.64 602.712C617.312 602.248 617.856 601.64 618.272 600.888H618.608C618.608 601.96 618.752 602.664 619.04 603H623.792C623.664 602.024 623.576 601.208 623.528 600.552C623.48 599.896 623.456 599.192 623.456 598.44V582.312C623.456 581.192 623.192 580.184 622.664 579.288C622.136 578.392 621.424 577.68 620.528 577.152C619.648 576.624 618.656 576.36 617.552 576.36C616.352 576.36 615.256 576.672 614.264 577.296C613.272 577.92 612.48 578.768 611.888 579.84C611.312 580.896 611.024 582.072 611.024 583.368V584.472H615.872C615.872 582.984 615.96 581.968 616.136 581.424C616.312 580.864 616.672 580.584 617.216 580.584C617.92 580.584 618.328 580.872 618.44 581.448C618.552 582.024 618.608 582.536 618.608 582.984V585.288C618.608 585.608 618.568 585.856 618.488 586.032C618.424 586.192 618.216 586.376 617.864 586.584C617.528 586.792 616.936 587.12 616.088 587.568C614.12 588.592 612.696 589.864 611.816 591.384C610.936 592.888 610.496 594.688 610.496 596.784C610.496 598.736 610.84 600.328 611.528 601.56C612.232 602.776 613.216 603.384 614.48 603.384ZM616.64 598.632C615.712 598.632 615.248 597.856 615.248 596.304C615.248 594.928 615.536 593.72 616.112 592.68C616.704 591.64 617.536 590.872 618.608 590.376V597.048C618.608 597.448 618.408 597.816 618.008 598.152C617.608 598.472 617.152 598.632 616.64 598.632Z"
            fill="white"
          />
        </g>
      </g>
      <g filter="url(#filter5_d_17_1987)" id="bubble">
        <path
          d="M819.658 484.695L821.477 483.645L822 481.611C838.985 415.628 910.417 365.133 997.133 365.133C1096.93 365.133 1176.13 431.799 1176.13 512.133C1176.13 592.468 1096.93 659.133 997.133 659.133C910.417 659.133 838.985 608.638 822 542.656L821.477 540.622L819.658 539.572L772.133 512.133L819.658 484.695Z"
          stroke="#0A061F"
          stroke-width="10"
          shape-rendering="crispEdges"
        />
      </g>
      <path
        xmlns="http://www.w3.org/2000/svg"
        d="M924.592 537.576C927.808 537.576 930.172 536.664 931.684 534.84C933.196 533.016 933.952 530.16 933.952 526.272V522.456H926.68V527.928C926.68 529.104 926.524 529.932 926.212 530.412C925.9 530.868 925.36 531.096 924.592 531.096C923.848 531.096 923.32 530.868 923.008 530.412C922.72 529.932 922.576 529.104 922.576 527.928V506.688C922.576 505.512 922.72 504.696 923.008 504.24C923.32 503.76 923.848 503.52 924.592 503.52C925.36 503.52 925.9 503.76 926.212 504.24C926.524 504.696 926.68 505.512 926.68 506.688V511.44H933.952V508.344C933.952 504.456 933.196 501.6 931.684 499.776C930.172 497.952 927.808 497.04 924.592 497.04C921.376 497.04 919.024 497.976 917.536 499.848C916.048 501.696 915.304 504.648 915.304 508.704V525.912C915.304 529.968 916.048 532.932 917.536 534.804C919.024 536.652 921.376 537.576 924.592 537.576ZM938.591 537H945.863V505.968C946.319 505.272 946.715 504.792 947.051 504.528C947.411 504.24 947.807 504.096 948.239 504.096C949.391 504.096 949.967 504.672 949.967 505.824V537H957.239V504.744C957.239 502.56 956.711 500.736 955.655 499.272C954.623 497.784 953.327 497.04 951.767 497.04C950.207 497.04 948.239 498.36 945.863 501V484.08H938.591V537ZM967.251 537.576C968.403 537.576 969.483 537.24 970.491 536.568C971.499 535.872 972.315 534.96 972.939 533.832H973.443C973.443 535.44 973.659 536.496 974.091 537H981.219C981.027 535.536 980.895 534.312 980.823 533.328C980.751 532.344 980.715 531.288 980.715 530.16V505.968C980.715 504.288 980.319 502.776 979.527 501.432C978.735 500.088 977.667 499.02 976.323 498.228C975.003 497.436 973.515 497.04 971.859 497.04C970.059 497.04 968.415 497.508 966.927 498.444C965.439 499.38 964.251 500.652 963.363 502.26C962.499 503.844 962.067 505.608 962.067 507.552V509.208H969.339C969.339 506.976 969.471 505.452 969.735 504.636C969.999 503.796 970.539 503.376 971.355 503.376C972.411 503.376 973.023 503.808 973.191 504.672C973.359 505.536 973.443 506.304 973.443 506.976V510.432C973.443 510.912 973.383 511.284 973.263 511.548C973.167 511.788 972.855 512.064 972.327 512.376C971.823 512.688 970.935 513.18 969.663 513.852C966.711 515.388 964.575 517.296 963.255 519.576C961.935 521.832 961.275 524.532 961.275 527.676C961.275 530.604 961.791 532.992 962.823 534.84C963.879 536.664 965.355 537.576 967.251 537.576ZM970.491 530.448C969.099 530.448 968.403 529.284 968.403 526.956C968.403 524.892 968.835 523.08 969.699 521.52C970.587 519.96 971.835 518.808 973.443 518.064V528.072C973.443 528.672 973.143 529.224 972.543 529.728C971.943 530.208 971.259 530.448 970.491 530.448ZM985.489 537H992.761V505.968C993.193 505.248 993.577 504.756 993.913 504.492C994.273 504.228 994.681 504.096 995.137 504.096C996.289 504.096 996.865 504.672 996.865 505.824V537H1004.14V504.744C1004.14 502.512 1003.62 500.676 1002.59 499.236C1001.56 497.772 1000.25 497.04 998.665 497.04C997.945 497.04 997.189 497.304 996.397 497.832C995.605 498.336 994.393 499.392 992.761 501V497.616H985.489V537ZM1018.96 551.112C1027.27 551.112 1031.42 547.752 1031.42 541.032C1031.42 538.296 1030.63 536.208 1029.04 534.768C1027.48 533.328 1024.92 532.368 1021.34 531.888C1017.64 531.36 1015.8 530.544 1015.8 529.44C1015.8 528.768 1016.12 528.156 1016.77 527.604C1016.89 527.628 1017.12 527.664 1017.45 527.712C1017.79 527.736 1017.96 527.736 1017.96 527.712C1021.27 527.712 1023.69 526.788 1025.23 524.94C1026.76 523.092 1027.53 520.176 1027.53 516.192V506.832C1027.53 505.872 1027.39 505.068 1027.1 504.42C1028.11 503.82 1029.55 503.52 1031.42 503.52V497.04C1030.7 497.04 1029.8 497.364 1028.72 498.012C1027.66 498.636 1026.57 499.512 1025.44 500.64C1023.69 498.24 1021.27 497.04 1018.17 497.04C1015.29 497.04 1013.04 498.036 1011.4 500.028C1009.77 502.02 1008.96 504.768 1008.96 508.272V517.056C1008.96 519.048 1009.33 520.872 1010.07 522.528C1010.82 524.184 1011.82 525.444 1013.1 526.308C1011.7 527.004 1010.6 527.88 1009.78 528.936C1008.99 529.992 1008.6 531.096 1008.6 532.248C1008.6 533.376 1008.98 534.408 1009.75 535.344C1010.54 536.256 1011.63 536.964 1013.02 537.468C1010.84 538.596 1009.34 539.604 1008.52 540.492C1007.71 541.404 1007.3 542.496 1007.3 543.768C1007.3 546.072 1008.33 547.872 1010.4 549.168C1012.46 550.464 1015.32 551.112 1018.96 551.112ZM1018.17 521.664C1016.78 521.664 1016.08 520.488 1016.08 518.136V507.336C1016.08 504.936 1016.78 503.736 1018.17 503.736C1018.87 503.736 1019.41 504.06 1019.79 504.708C1020.2 505.332 1020.4 506.208 1020.4 507.336V518.136C1020.4 520.488 1019.66 521.664 1018.17 521.664ZM1019.11 544.992C1015.94 544.992 1014.36 544.08 1014.36 542.256C1014.36 540.96 1015.23 539.808 1016.98 538.8L1020.76 539.52C1023.36 540.024 1024.65 540.96 1024.65 542.328C1024.65 543.168 1024.16 543.816 1023.18 544.272C1022.22 544.752 1020.86 544.992 1019.11 544.992ZM1042.79 537.576C1045.69 537.576 1047.99 536.64 1049.67 534.768C1051.37 532.872 1052.22 530.304 1052.22 527.064V522.888H1045.45V527.208C1045.45 528.432 1045.23 529.404 1044.77 530.124C1044.31 530.82 1043.68 531.168 1042.86 531.168C1042.05 531.168 1041.4 530.82 1040.92 530.124C1040.44 529.404 1040.2 528.432 1040.2 527.208V518.64H1052.22V507.552C1052.22 504.336 1051.37 501.78 1049.67 499.884C1047.99 497.988 1045.72 497.04 1042.86 497.04C1039.96 497.04 1037.65 498.024 1035.95 499.992C1034.27 501.936 1033.43 504.588 1033.43 507.948V526.668C1033.43 530.076 1034.26 532.752 1035.91 534.696C1037.59 536.616 1039.89 537.576 1042.79 537.576ZM1040.2 512.952V507.408C1040.2 504.72 1041.09 503.376 1042.86 503.376C1044.59 503.376 1045.45 504.72 1045.45 507.408V512.952H1040.2ZM1062.54 537.576C1064.17 537.576 1066.09 536.52 1068.3 534.408V537H1075.57V484.08H1068.3V500.208C1066.98 499.032 1065.88 498.216 1065.02 497.76C1064.16 497.28 1063.33 497.04 1062.54 497.04C1060.95 497.04 1059.62 497.784 1058.54 499.272C1057.46 500.736 1056.92 502.56 1056.92 504.744V529.872C1056.92 532.008 1057.46 533.832 1058.54 535.344C1059.64 536.832 1060.98 537.576 1062.54 537.576ZM1066.14 530.736C1065.58 530.736 1065.12 530.508 1064.73 530.052C1064.37 529.596 1064.19 529.032 1064.19 528.36V506.256C1064.19 505.584 1064.38 505.02 1064.77 504.564C1065.15 504.108 1065.61 503.88 1066.14 503.88C1066.69 503.88 1067.18 504.12 1067.61 504.6C1068.07 505.08 1068.3 505.632 1068.3 506.256V528.36C1068.3 528.984 1068.08 529.536 1067.65 530.016C1067.22 530.496 1066.71 530.736 1066.14 530.736Z"
        fill="#932424"
        id="changed"
      />
      <path 
        d="M936.384 537.576C939.216 537.576 941.472 536.592 943.152 534.624C944.832 532.656 945.672 530.04 945.672 526.776C945.672 524.784 945.18 522.912 944.196 521.16C943.212 519.384 941.472 517.248 938.976 514.752C937.224 513.12 935.988 511.752 935.268 510.648C934.572 509.52 934.224 508.404 934.224 507.3C934.224 504.492 934.968 503.088 936.456 503.088C937.296 503.088 937.896 503.448 938.256 504.168C938.64 504.864 938.832 506.04 938.832 507.696H945.6C945.6 503.976 944.856 501.264 943.368 499.56C941.88 497.832 939.528 496.992 936.312 497.04C933.528 497.088 931.356 498.048 929.796 499.92C928.236 501.792 927.456 504.384 927.456 507.696C927.456 509.112 927.66 510.42 928.068 511.62C928.476 512.796 929.184 514.02 930.192 515.292C931.2 516.564 932.592 518.064 934.368 519.792C936.144 521.568 937.344 522.972 937.968 524.004C938.592 525.036 938.904 526.128 938.904 527.28C938.904 530.112 938.064 531.528 936.384 531.528C935.328 531.528 934.5 531.012 933.9 529.98C933.3 528.924 933 527.448 933 525.552H926.232C926.232 529.368 927.12 532.332 928.896 534.444C930.672 536.532 933.168 537.576 936.384 537.576ZM960.51 537.576C961.782 537.576 963.078 537.408 964.398 537.072V529.944C963.15 530.136 962.262 530.232 961.734 530.232C960.198 530.232 959.43 528.072 959.43 523.752V504.168H964.398V497.616H959.43V487.896H952.158V497.616H948.486V504.168H952.158V524.328C952.158 528.96 952.818 532.332 954.138 534.444C955.458 536.532 957.582 537.576 960.51 537.576ZM972.977 537.576C974.129 537.576 975.209 537.24 976.217 536.568C977.225 535.872 978.041 534.96 978.665 533.832H979.169C979.169 535.44 979.385 536.496 979.817 537H986.945C986.753 535.536 986.621 534.312 986.549 533.328C986.477 532.344 986.441 531.288 986.441 530.16V505.968C986.441 504.288 986.045 502.776 985.253 501.432C984.461 500.088 983.393 499.02 982.049 498.228C980.729 497.436 979.241 497.04 977.585 497.04C975.785 497.04 974.141 497.508 972.653 498.444C971.165 499.38 969.977 500.652 969.089 502.26C968.225 503.844 967.793 505.608 967.793 507.552V509.208H975.065C975.065 506.976 975.197 505.452 975.461 504.636C975.725 503.796 976.265 503.376 977.081 503.376C978.137 503.376 978.749 503.808 978.917 504.672C979.085 505.536 979.169 506.304 979.169 506.976V510.432C979.169 510.912 979.109 511.284 978.989 511.548C978.893 511.788 978.581 512.064 978.053 512.376C977.549 512.688 976.661 513.18 975.389 513.852C972.437 515.388 970.301 517.296 968.981 519.576C967.661 521.832 967.001 524.532 967.001 527.676C967.001 530.604 967.517 532.992 968.549 534.84C969.605 536.664 971.081 537.576 972.977 537.576ZM976.217 530.448C974.825 530.448 974.129 529.284 974.129 526.956C974.129 524.892 974.561 523.08 975.425 521.52C976.313 519.96 977.561 518.808 979.169 518.064V528.072C979.169 528.672 978.869 529.224 978.269 529.728C977.669 530.208 976.985 530.448 976.217 530.448ZM1000.64 551.112C1008.95 551.112 1013.1 547.752 1013.1 541.032C1013.1 538.296 1012.31 536.208 1010.72 534.768C1009.16 533.328 1006.59 532.368 1003.02 531.888C999.323 531.36 997.475 530.544 997.475 529.44C997.475 528.768 997.799 528.156 998.447 527.604C998.567 527.628 998.795 527.664 999.131 527.712C999.467 527.736 999.635 527.736 999.635 527.712C1002.95 527.712 1005.37 526.788 1006.91 524.94C1008.44 523.092 1009.21 520.176 1009.21 516.192V506.832C1009.21 505.872 1009.07 505.068 1008.78 504.42C1009.79 503.82 1011.23 503.52 1013.1 503.52V497.04C1012.38 497.04 1011.48 497.364 1010.4 498.012C1009.34 498.636 1008.25 499.512 1007.12 500.64C1005.37 498.24 1002.95 497.04 999.851 497.04C996.971 497.04 994.715 498.036 993.083 500.028C991.451 502.02 990.635 504.768 990.635 508.272V517.056C990.635 519.048 991.007 520.872 991.751 522.528C992.495 524.184 993.503 525.444 994.775 526.308C993.383 527.004 992.279 527.88 991.463 528.936C990.671 529.992 990.275 531.096 990.275 532.248C990.275 533.376 990.659 534.408 991.427 535.344C992.219 536.256 993.311 536.964 994.703 537.468C992.519 538.596 991.019 539.604 990.203 540.492C989.387 541.404 988.979 542.496 988.979 543.768C988.979 546.072 990.011 547.872 992.075 549.168C994.139 550.464 996.995 551.112 1000.64 551.112ZM999.851 521.664C998.459 521.664 997.763 520.488 997.763 518.136V507.336C997.763 504.936 998.459 503.736 999.851 503.736C1000.55 503.736 1001.09 504.06 1001.47 504.708C1001.88 505.332 1002.08 506.208 1002.08 507.336V518.136C1002.08 520.488 1001.34 521.664 999.851 521.664ZM1000.79 544.992C997.619 544.992 996.035 544.08 996.035 542.256C996.035 540.96 996.911 539.808 998.663 538.8L1002.44 539.52C1005.03 540.024 1006.33 540.96 1006.33 542.328C1006.33 543.168 1005.84 543.816 1004.85 544.272C1003.89 544.752 1002.54 544.992 1000.79 544.992ZM1024.47 537.576C1027.37 537.576 1029.66 536.64 1031.34 534.768C1033.05 532.872 1033.9 530.304 1033.9 527.064V522.888H1027.13V527.208C1027.13 528.432 1026.9 529.404 1026.45 530.124C1025.99 530.82 1025.36 531.168 1024.54 531.168C1023.72 531.168 1023.08 530.82 1022.6 530.124C1022.12 529.404 1021.88 528.432 1021.88 527.208V518.64H1033.9V507.552C1033.9 504.336 1033.05 501.78 1031.34 499.884C1029.66 497.988 1027.4 497.04 1024.54 497.04C1021.64 497.04 1019.33 498.024 1017.63 499.992C1015.95 501.936 1015.11 504.588 1015.11 507.948V526.668C1015.11 530.076 1015.94 532.752 1017.59 534.696C1019.27 536.616 1021.56 537.576 1024.47 537.576ZM1021.88 512.952V507.408C1021.88 504.72 1022.76 503.376 1024.54 503.376C1026.27 503.376 1027.13 504.72 1027.13 507.408V512.952H1021.88ZM1044.22 537.576C1045.85 537.576 1047.77 536.52 1049.98 534.408V537H1057.25V484.08H1049.98V500.208C1048.66 499.032 1047.56 498.216 1046.7 497.76C1045.84 497.28 1045.01 497.04 1044.22 497.04C1042.63 497.04 1041.3 497.784 1040.22 499.272C1039.14 500.736 1038.6 502.56 1038.6 504.744V529.872C1038.6 532.008 1039.14 533.832 1040.22 535.344C1041.32 536.832 1042.66 537.576 1044.22 537.576ZM1047.82 530.736C1047.26 530.736 1046.8 530.508 1046.41 530.052C1046.05 529.596 1045.87 529.032 1045.87 528.36V506.256C1045.87 505.584 1046.06 505.02 1046.45 504.564C1046.83 504.108 1047.29 503.88 1047.82 503.88C1048.37 503.88 1048.86 504.12 1049.29 504.6C1049.75 505.08 1049.98 505.632 1049.98 506.256V528.36C1049.98 528.984 1049.76 529.536 1049.33 530.016C1048.9 530.496 1048.39 530.736 1047.82 530.736Z" 
        fill="#CF9B27" 
        id="staged"
      />

      <defs>
        <filter
          id="filter0_d_17_1987"
          x="292.399"
          y="302.816"
          width="441.296"
          height="426.508"
          filterUnits="userSpaceOnUse"
          color-interpolation-filters="sRGB"
        >
          <feFlood flood-opacity="0" result="BackgroundImageFix" />
          <feColorMatrix
            in="SourceAlpha"
            type="matrix"
            values="0 0 0 0 0 0 0 0 0 0 0 0 0 0 0 0 0 0 127 0"
            result="hardAlpha"
          />
          <feOffset dx="4" dy="4" />
          <feGaussianBlur stdDeviation="2" />
          <feComposite in2="hardAlpha" operator="out" />
          <feColorMatrix
            type="matrix"
            values="0 0 0 0 0 0 0 0 0 0 0 0 0 0 0 0 0 0 0.25 0"
          />
          <feBlend
            mode="normal"
            in2="BackgroundImageFix"
            result="effect1_dropShadow_17_1987"
          />
          <feBlend
            mode="normal"
            in="SourceGraphic"
            in2="effect1_dropShadow_17_1987"
            result="shape"
          />
        </filter>
        <filter
          id="filter1_i_17_1987"
          x="540.003"
          y="462.003"
          width="105"
          height="105"
          filterUnits="userSpaceOnUse"
          color-interpolation-filters="sRGB"
        >
          <feFlood flood-opacity="0" result="BackgroundImageFix" />
          <feBlend
            mode="normal"
            in="SourceGraphic"
            in2="BackgroundImageFix"
            result="shape"
          />
          <feColorMatrix
            in="SourceAlpha"
            type="matrix"
            values="0 0 0 0 0 0 0 0 0 0 0 0 0 0 0 0 0 0 127 0"
            result="hardAlpha"
          />
          <feOffset dx="4" dy="4" />
          <feGaussianBlur stdDeviation="2" />
          <feComposite in2="hardAlpha" operator="arithmetic" k2="-1" k3="1" />
          <feColorMatrix
            type="matrix"
            values="0 0 0 0 0 0 0 0 0 0 0 0 0 0 0 0 0 0 0.25 0"
          />
          <feBlend
            mode="normal"
            in2="shape"
            result="effect1_innerShadow_17_1987"
          />
        </filter>
        <filter
          id="filter2_i_17_1987"
          x="382.003"
          y="370.003"
          width="105"
          height="105"
          filterUnits="userSpaceOnUse"
          color-interpolation-filters="sRGB"
        >
          <feFlood flood-opacity="0" result="BackgroundImageFix" />
          <feBlend
            mode="normal"
            in="SourceGraphic"
            in2="BackgroundImageFix"
            result="shape"
          />
          <feColorMatrix
            in="SourceAlpha"
            type="matrix"
            values="0 0 0 0 0 0 0 0 0 0 0 0 0 0 0 0 0 0 127 0"
            result="hardAlpha"
          />
          <feOffset dx="4" dy="4" />
          <feGaussianBlur stdDeviation="2" />
          <feComposite in2="hardAlpha" operator="arithmetic" k2="-1" k3="1" />
          <feColorMatrix
            type="matrix"
            values="0 0 0 0 0 0 0 0 0 0 0 0 0 0 0 0 0 0 0.25 0"
          />
          <feBlend
            mode="normal"
            in2="shape"
            result="effect1_innerShadow_17_1987"
          />
        </filter>
        <filter
          id="filter3_i_17_1987"
          x="382"
          y="549"
          width="105.017"
          height="105.017"
          filterUnits="userSpaceOnUse"
          color-interpolation-filters="sRGB"
        >
          <feFlood flood-opacity="0" result="BackgroundImageFix" />
          <feBlend
            mode="normal"
            in="SourceGraphic"
            in2="BackgroundImageFix"
            result="shape"
          />
          <feColorMatrix
            in="SourceAlpha"
            type="matrix"
            values="0 0 0 0 0 0 0 0 0 0 0 0 0 0 0 0 0 0 127 0"
            result="hardAlpha"
          />
          <feOffset dx="4" dy="4" />
          <feGaussianBlur stdDeviation="2" />
          <feComposite in2="hardAlpha" operator="arithmetic" k2="-1" k3="1" />
          <feColorMatrix
            type="matrix"
            values="0 0 0 0 0 0 0 0 0 0 0 0 0 0 0 0 0 0 0.25 0"
          />
          <feBlend
            mode="normal"
            in2="shape"
            result="effect1_innerShadow_17_1987"
          />
        </filter>
        <filter
          id="filter4_i_17_1987"
          x="557.152"
          y="567.72"
          width="68.6398"
          height="37.664"
          filterUnits="userSpaceOnUse"
          color-interpolation-filters="sRGB"
        >
          <feFlood flood-opacity="0" result="BackgroundImageFix" />
          <feBlend
            mode="normal"
            in="SourceGraphic"
            in2="BackgroundImageFix"
            result="shape"
          />
          <feColorMatrix
            in="SourceAlpha"
            type="matrix"
            values="0 0 0 0 0 0 0 0 0 0 0 0 0 0 0 0 0 0 127 0"
            result="hardAlpha"
          />
          <feOffset dx="2" dy="2" />
          <feGaussianBlur stdDeviation="1" />
          <feComposite in2="hardAlpha" operator="arithmetic" k2="-1" k3="1" />
          <feColorMatrix
            type="matrix"
            values="0 0 0 0 0 0 0 0 0 0 0 0 0 0 0 0 0 0 0.25 0"
          />
          <feBlend
            mode="normal"
            in2="shape"
            result="effect1_innerShadow_17_1987"
          />
        </filter>
        <filter
          id="filter5_d_17_1987"
          x="762.133"
          y="360.133"
          width="427"
          height="312"
          filterUnits="userSpaceOnUse"
          color-interpolation-filters="sRGB"
        >
          <feFlood flood-opacity="0" result="BackgroundImageFix" />
          <feColorMatrix
            in="SourceAlpha"
            type="matrix"
            values="0 0 0 0 0 0 0 0 0 0 0 0 0 0 0 0 0 0 127 0"
            result="hardAlpha"
          />
          <feOffset dx="4" dy="4" />
          <feGaussianBlur stdDeviation="2" />
          <feComposite in2="hardAlpha" operator="out" />
          <feColorMatrix
            type="matrix"
            values="0 0 0 0 0 0 0 0 0 0 0 0 0 0 0 0 0 0 0.25 0"
          />
          <feBlend
            mode="normal"
            in2="BackgroundImageFix"
            result="effect1_dropShadow_17_1987"
          />
          <feBlend
            mode="normal"
            in="SourceGraphic"
            in2="effect1_dropShadow_17_1987"
            result="shape"
          />
        </filter>
      </defs>
    </svg>