<svg width="1440" height="1024" viewBox="0 0 1440 1024" fill="none" xmlns="http://www.w3.org/2000/svg" xmlns:xlink="http://www.w3.org/1999/xlink">
<style>.wheel_of_git_787 {
	animation: 2s linear 0s 1 normal forwards running wheel_of_git_787;
		transform: translateX(154px) translateY(182px) rotate(0deg);
		transform-box: fill-box;
		transform-origin: center;
}
@keyframes wheel_of_git_787 {
	0% {
		transform: translateX(154px) translateY(182px) rotate(0deg);
	}
	100% {
		transform: translateX(154px) translateY(182px) rotate(120deg);
		transform-box: fill-box;
		transform-origin: center;

	}
}._1__unchanged_101 {
	animation: 2s linear 1s 1 normal forwards running _1__unchanged_101;
		opacity: 1;
}
@keyframes _1__unchanged_101 {
	0% {
		opacity: 1;
	}
	50% {
		opacity: 1;
	}
	75% {
		opacity: 0;
	}
	100% {
		opacity: 0;
	}
}._2__changed_754 {
	animation: 2s linear 0s 1 normal forwards running _2__changed_754;
		opacity: 0;
}
@keyframes _2__changed_754 {
	0% {
		opacity: 0;
	}
	75% {
		opacity: 0;
	}
	100% {
		opacity: 1;
	}
}
</style>
<g clip-path="url(#clip_0_360)" width="1440" height="1024" data-name="wheel of commits">
	<rect width="1440" height="1024" fill="white" data-name="wheel of commits"/>
	<g transform="translate(934.95 391.26) rotate(120)" class="wheel_of_git_787" width="660.13" height="660.13" data-name="wheel of git">
		<path d="M209.626 0.625565L418.879 363.064H0.371689L209.626 0.625565Z" fill="#0A061F" data-name="pointers" transform="translate(-209.25 -120.82) rotate(90)"/>
		<g transform="translate(-187.49 51.56) rotate(120)" width="383.35" height="383.35" data-name="wheel">
			<path fill-rule="evenodd" clip-rule="evenodd" d="M11.7085 185.866L188.29 185.88L276.626 32.8769C251.32 19.3106 222.396 11.6166 191.674 11.6166C94.1745 11.6166 14.7746 89.111 11.7085 185.866ZM286.682 38.6934L198.37 191.654L286.698 344.644C337.751 312.864 371.732 256.237 371.732 191.674C371.732 127.104 337.743 70.4722 286.682 38.6934ZM276.644 350.462L188.329 197.497L11.7085 197.483C14.7749 294.237 94.1746 371.732 191.674 371.732C222.403 371.732 251.334 364.034 276.644 350.462ZM191.674 191.674L191.708 191.654L191.674 191.634V191.674ZM0 191.674C0 85.8154 85.8154 0 191.674 0C297.533 0 383.348 85.8154 383.348 191.674C383.348 297.533 297.533 383.348 191.674 383.348C85.8154 383.348 0 297.533 0 191.674Z" fill="#0A061F" data-name="outline" transform=" rotate(120)"/>
			<path fill-rule="evenodd" clip-rule="evenodd" d="M88.6816 0.693398L0.369537 153.654L88.6984 306.644C139.751 274.864 173.732 218.237 173.732 153.674C173.732 89.104 139.743 32.4722 88.6816 0.693398Z" fill="#3C871B" data-name="1 - committed" transform="translate(-132.69 152.44) rotate(120)"/>
			<path fill-rule="evenodd" clip-rule="evenodd" d="M0.708481 174.866L177.29 174.88L265.626 21.8769C240.32 8.31065 211.396 0.616634 180.674 0.616634C83.1744 0.616634 3.77461 78.1111 0.708481 174.866Z" fill="#932424" data-name="2 - changed" transform="translate(-15.91 4.33) rotate(120)"/>
			<path fill-rule="evenodd" clip-rule="evenodd" d="M265.643 153.462L177.329 0.496856L0.708481 0.482605C3.77481 97.2374 83.1746 174.732 180.674 174.732C211.403 174.732 240.334 167.034 265.643 153.462Z" fill="#CF9B27" data-name="3 - staged" transform="translate(-176.87 -88.6) rotate(120)"/>
		</g>
		<g filter="url(#filter0_i_31_2254)" data-name="check icon" transform="translate(-435.49 194.28) rotate(120)">
		<path fill-rule="evenodd" clip-rule="evenodd" d="M50.4999 101C78.3903 101 101 78.3904 101 50.5C101 22.6096 78.3903 0 50.4999 0C22.6096 0 -6.10352e-05 22.6096 -6.10352e-05 50.5C-6.10352e-05 78.3904 22.6096 101 50.4999 101ZM27.7029 51.7814L43.3029 69.2144C44.2401 70.2618 45.7597 70.2618 46.697 69.2145L74.297 38.3714C75.2342 37.3239 75.2342 35.6258 74.297 34.5784L70.903 30.7855C69.9658 29.7382 68.4461 29.7382 67.5089 30.7855L44.9999 55.9391L34.491 44.1955C33.5538 43.1481 32.0341 43.1481 31.0969 44.1955L27.7029 47.9885C26.7656 49.0359 26.7656 50.734 27.7029 51.7814Z" fill="white" data-name="check icon"/>
		</g>
		<g filter="url(#filter0_i_31_2255)" data-name="excl icon" transform="translate(-276.81 103.45) rotate(120)">
		<path fill-rule="evenodd" clip-rule="evenodd" d="M50.4999 101C78.3903 101 101 78.3905 101 50.5001C101 22.6098 78.3903 0.000137329 50.4999 0.000137329C22.6096 0.000137329 -6.10352e-05 22.6098 -6.10352e-05 50.5001C-6.10352e-05 78.3905 22.6096 101 50.4999 101ZM71.9845 38.0001C69.9995 34.5619 65.4708 33.447 61.8893 35.5148C58.3079 37.5825 57.0091 42.0619 58.9942 45.5001C60.9792 48.9383 65.5079 50.0533 69.0893 47.9855C72.6708 45.9178 73.9696 41.4383 71.9845 38.0001ZM57.1162 52.5226L35.6445 66.3326C34.5623 67.0286 33.1376 66.7153 32.52 65.6455L28.3107 58.3548C27.693 57.2849 28.1341 55.8945 29.2779 55.3053L51.9736 43.6153C53.0394 43.0664 54.3279 43.418 54.9034 44.4148L57.8887 49.5855C58.4642 50.5823 58.1245 51.874 57.1162 52.5226Z" fill="white" data-name="excl icon"/>
		</g>
		<g filter="url(#filter0_i_31_2256)" data-name="plus icon" transform="translate(-431.83 13.95) rotate(120)">
		<path fill-rule="evenodd" clip-rule="evenodd" d="M26.255 95.2393C50.4088 109.185 81.2941 100.909 95.2393 76.7551C109.184 52.6013 100.909 21.716 76.755 7.77079C52.6012 -6.1744 21.7159 2.1013 7.77073 26.2551C-6.17446 50.4088 2.10124 81.2942 26.255 95.2393ZM57.5201 49.3774L69.2115 56.1274C70.6461 56.9557 71.1378 58.7908 70.3096 60.2255L68.8096 62.8235C67.9813 64.2582 66.1461 64.7499 64.7115 63.9216L53.0201 57.1716L46.2701 68.8629C45.4419 70.2976 43.6067 70.7893 42.1721 69.961L39.574 68.461C38.1394 67.6327 37.6476 65.7976 38.4759 64.3629L45.2259 52.6716L33.5346 45.9216C32.1 45.0933 31.6082 43.2582 32.4365 41.8235L33.9365 39.2255C34.7648 37.7908 36.6 37.2991 38.0346 38.1274L49.7259 44.8774L56.4759 33.186C57.3042 31.7514 59.1394 31.2597 60.574 32.088L63.1721 33.588C64.6067 34.4162 65.0984 36.2514 64.2701 37.686L57.5201 49.3774Z" fill="white" data-name="plus icon"/>
		</g>
		<g data-name="a1a1a" transform="translate(-535.28 155.14) rotate(120)">
		<g filter="url(#filter0_i_31_2257)" data-name="a1a1a">
		<path d="M5.136 35.384C5.904 35.384 6.624 35.16 7.296 34.712C7.968 34.248 8.512 33.64 8.928 32.888H9.264C9.264 33.96 9.408 34.664 9.696 35H14.448C14.32 34.024 14.232 33.208 14.184 32.552C14.136 31.896 14.112 31.192 14.112 30.44V14.312C14.112 13.192 13.848 12.184 13.32 11.288C12.792 10.392 12.08 9.68 11.184 9.152C10.304 8.624 9.312 8.36 8.208 8.36C7.008 8.36 5.912 8.672 4.92 9.296C3.928 9.92 3.136 10.768 2.544 11.84C1.968 12.896 1.68 14.072 1.68 15.368V16.472H6.528C6.528 14.984 6.616 13.968 6.792 13.424C6.968 12.864 7.328 12.584 7.872 12.584C8.576 12.584 8.984 12.872 9.096 13.448C9.208 14.024 9.264 14.536 9.264 14.984V17.288C9.264 17.608 9.224 17.856 9.144 18.032C9.08 18.192 8.872 18.376 8.52 18.584C8.184 18.792 7.592 19.12 6.744 19.568C4.776 20.592 3.352 21.864 2.472 23.384C1.592 24.888 1.152 26.688 1.152 28.784C1.152 30.736 1.496 32.328 2.184 33.56C2.888 34.776 3.872 35.384 5.136 35.384ZM7.296 30.632C6.368 30.632 5.904 29.856 5.904 28.304C5.904 26.928 6.192 25.72 6.768 24.68C7.36 23.64 8.192 22.872 9.264 22.376V29.048C9.264 29.448 9.064 29.816 8.664 30.152C8.264 30.472 7.808 30.632 7.296 30.632ZM19.5476 35H24.7316V-0.280001H21.6116C21.3076 0.375999 20.9236 0.983999 20.4596 1.544C20.0116 2.024 19.4436 2.504 18.7556 2.984C18.0676 3.464 17.1796 3.816 16.0916 4.04V7.352H19.5476V35ZM31.8079 35.384C32.5759 35.384 33.2959 35.16 33.9679 34.712C34.6399 34.248 35.1839 33.64 35.5999 32.888H35.9359C35.9359 33.96 36.0799 34.664 36.3679 35H41.1199C40.9919 34.024 40.9039 33.208 40.8559 32.552C40.8079 31.896 40.7839 31.192 40.7839 30.44V14.312C40.7839 13.192 40.5199 12.184 39.9919 11.288C39.4639 10.392 38.7519 9.68 37.8559 9.152C36.9759 8.624 35.9839 8.36 34.8799 8.36C33.6799 8.36 32.5839 8.672 31.5919 9.296C30.5999 9.92 29.8079 10.768 29.2159 11.84C28.6399 12.896 28.3519 14.072 28.3519 15.368V16.472H33.1999C33.1999 14.984 33.2879 13.968 33.4639 13.424C33.6399 12.864 33.9999 12.584 34.5439 12.584C35.2479 12.584 35.6559 12.872 35.7679 13.448C35.8799 14.024 35.9359 14.536 35.9359 14.984V17.288C35.9359 17.608 35.8959 17.856 35.8159 18.032C35.7519 18.192 35.5439 18.376 35.1919 18.584C34.8559 18.792 34.2639 19.12 33.4159 19.568C31.4479 20.592 30.0239 21.864 29.1439 23.384C28.2639 24.888 27.8239 26.688 27.8239 28.784C27.8239 30.736 28.1679 32.328 28.8559 33.56C29.5599 34.776 30.5439 35.384 31.8079 35.384ZM33.9679 30.632C33.0399 30.632 32.5759 29.856 32.5759 28.304C32.5759 26.928 32.8639 25.72 33.4399 24.68C34.0319 23.64 34.8639 22.872 35.9359 22.376V29.048C35.9359 29.448 35.7359 29.816 35.3359 30.152C34.9359 30.472 34.4799 30.632 33.9679 30.632ZM46.2195 35H51.4035V-0.280001H48.2835C47.9795 0.375999 47.5955 0.983999 47.1315 1.544C46.6835 2.024 46.1155 2.504 45.4275 2.984C44.7395 3.464 43.8515 3.816 42.7635 4.04V7.352H46.2195V35ZM58.4798 35.384C59.2478 35.384 59.9678 35.16 60.6398 34.712C61.3118 34.248 61.8558 33.64 62.2718 32.888H62.6078C62.6078 33.96 62.7518 34.664 63.0398 35H67.7918C67.6638 34.024 67.5758 33.208 67.5278 32.552C67.4798 31.896 67.4557 31.192 67.4557 30.44V14.312C67.4557 13.192 67.1918 12.184 66.6638 11.288C66.1358 10.392 65.4238 9.68 64.5278 9.152C63.6478 8.624 62.6558 8.36 61.5518 8.36C60.3518 8.36 59.2558 8.672 58.2638 9.296C57.2718 9.92 56.4798 10.768 55.8878 11.84C55.3118 12.896 55.0238 14.072 55.0238 15.368V16.472H59.8718C59.8718 14.984 59.9598 13.968 60.1358 13.424C60.3118 12.864 60.6718 12.584 61.2158 12.584C61.9198 12.584 62.3278 12.872 62.4398 13.448C62.5518 14.024 62.6078 14.536 62.6078 14.984V17.288C62.6078 17.608 62.5678 17.856 62.4878 18.032C62.4238 18.192 62.2158 18.376 61.8638 18.584C61.5278 18.792 60.9358 19.12 60.0878 19.568C58.1198 20.592 56.6958 21.864 55.8158 23.384C54.9358 24.888 54.4958 26.688 54.4958 28.784C54.4958 30.736 54.8398 32.328 55.5278 33.56C56.2318 34.776 57.2158 35.384 58.4798 35.384ZM60.6398 30.632C59.7118 30.632 59.2478 29.856 59.2478 28.304C59.2478 26.928 59.5358 25.72 60.1118 24.68C60.7038 23.64 61.5358 22.872 62.6078 22.376V29.048C62.6078 29.448 62.4078 29.816 62.0078 30.152C61.6078 30.472 61.1518 30.632 60.6398 30.632Z" fill="white" data-name="a1a1a" transform="translate(-535.28 155.14) rotate(120)"/>
		</g>
		</g>
	</g>
	<g filter="url(#filter0_d_31_2247)" data-name="speech bubble" transform="translate(762.13 360.13)">
	<path d="M57.6583 124.695L59.4769 123.645L60.0004 121.611C76.9846 55.6282 148.417 5.1333 235.133 5.1333C334.929 5.1333 414.133 71.7988 414.133 152.133C414.133 232.468 334.929 299.133 235.133 299.133C148.417 299.133 76.9846 248.638 60.0004 182.656L59.4769 180.622L57.6583 179.572L10.1333 152.133L57.6583 124.695Z" stroke="#0A061F" stroke-width="10" shape-rendering="crispEdges" data-name="speech bubble"/>
	</g>
	<path d="M8.208 66.576C9.696 66.576 11.664 65.28 14.112 62.688V66H21.384V26.616H14.112V56.928C14.112 57.6 13.872 58.2 13.392 58.728C12.912 59.256 12.36 59.52 11.736 59.52C10.584 59.52 10.008 58.944 10.008 57.792V26.616H2.736V58.872C2.736 61.032 3.264 62.856 4.32 64.344C5.376 65.832 6.672 66.576 8.208 66.576ZM27.1378 66H34.4098V34.968C34.8418 34.248 35.2258 33.756 35.5618 33.492C35.9218 33.228 36.3298 33.096 36.7858 33.096C37.9378 33.096 38.5138 33.672 38.5138 34.824V66H45.7858V33.744C45.7858 31.512 45.2698 29.676 44.2378 28.236C43.2058 26.772 41.8978 26.04 40.3138 26.04C39.5938 26.04 38.8378 26.304 38.0458 26.832C37.2538 27.336 36.0418 28.392 34.4098 30V26.616H27.1378V66ZM60.1076 66.576C63.3236 66.576 65.6876 65.664 67.1996 63.84C68.7116 62.016 69.4676 59.16 69.4676 55.272V51.456H62.1956V56.928C62.1956 58.104 62.0396 58.932 61.7276 59.412C61.4156 59.868 60.8756 60.096 60.1076 60.096C59.3636 60.096 58.8356 59.868 58.5236 59.412C58.2356 58.932 58.0916 58.104 58.0916 56.928V35.688C58.0916 34.512 58.2356 33.696 58.5236 33.24C58.8356 32.76 59.3636 32.52 60.1076 32.52C60.8756 32.52 61.4156 32.76 61.7276 33.24C62.0396 33.696 62.1956 34.512 62.1956 35.688V40.44H69.4676V37.344C69.4676 33.456 68.7116 30.6 67.1996 28.776C65.6876 26.952 63.3236 26.04 60.1076 26.04C56.8916 26.04 54.5396 26.976 53.0516 28.848C51.5636 30.696 50.8196 33.648 50.8196 37.704V54.912C50.8196 58.968 51.5636 61.932 53.0516 63.804C54.5396 65.652 56.8916 66.576 60.1076 66.576ZM74.1066 66H81.3786V34.968C81.8346 34.272 82.2306 33.792 82.5666 33.528C82.9266 33.24 83.3226 33.096 83.7546 33.096C84.9066 33.096 85.4826 33.672 85.4826 34.824V66H92.7546V33.744C92.7546 31.56 92.2266 29.736 91.1706 28.272C90.1386 26.784 88.8426 26.04 87.2826 26.04C85.7226 26.04 83.7546 27.36 81.3786 30V13.08H74.1066V66ZM102.767 66.576C103.919 66.576 104.999 66.24 106.007 65.568C107.015 64.872 107.831 63.96 108.455 62.832H108.959C108.959 64.44 109.175 65.496 109.607 66H116.735C116.543 64.536 116.411 63.312 116.339 62.328C116.267 61.344 116.23 60.288 116.23 59.16V34.968C116.23 33.288 115.835 31.776 115.043 30.432C114.251 29.088 113.183 28.02 111.839 27.228C110.519 26.436 109.031 26.04 107.375 26.04C105.575 26.04 103.931 26.508 102.443 27.444C100.955 28.38 99.7665 29.652 98.8785 31.26C98.0145 32.844 97.5825 34.608 97.5825 36.552V38.208H104.855C104.855 35.976 104.987 34.452 105.251 33.636C105.515 32.796 106.055 32.376 106.871 32.376C107.927 32.376 108.539 32.808 108.707 33.672C108.875 34.536 108.959 35.304 108.959 35.976V39.432C108.959 39.912 108.899 40.284 108.779 40.548C108.683 40.788 108.371 41.064 107.843 41.376C107.339 41.688 106.451 42.18 105.179 42.852C102.227 44.388 100.091 46.296 98.7705 48.576C97.4505 50.832 96.7905 53.532 96.7905 56.676C96.7905 59.604 97.3065 61.992 98.3385 63.84C99.3945 65.664 100.871 66.576 102.767 66.576ZM106.007 59.448C104.615 59.448 103.919 58.284 103.919 55.956C103.919 53.892 104.351 52.08 105.215 50.52C106.103 48.96 107.351 47.808 108.959 47.064V57.072C108.959 57.672 108.659 58.224 108.059 58.728C107.459 59.208 106.775 59.448 106.007 59.448ZM121.005 66H128.277V34.968C128.709 34.248 129.093 33.756 129.429 33.492C129.789 33.228 130.197 33.096 130.653 33.096C131.805 33.096 132.381 33.672 132.381 34.824V66H139.653V33.744C139.653 31.512 139.137 29.676 138.105 28.236C137.073 26.772 135.765 26.04 134.181 26.04C133.461 26.04 132.705 26.304 131.913 26.832C131.121 27.336 129.909 28.392 128.277 30V26.616H121.005V66ZM154.479 80.112C162.783 80.112 166.935 76.752 166.935 70.032C166.935 67.296 166.143 65.208 164.559 63.768C162.999 62.328 160.431 61.368 156.855 60.888C153.159 60.36 151.311 59.544 151.311 58.44C151.311 57.768 151.635 57.156 152.283 56.604C152.403 56.628 152.631 56.664 152.967 56.712C153.303 56.736 153.471 56.736 153.471 56.712C156.783 56.712 159.207 55.788 160.743 53.94C162.279 52.092 163.047 49.176 163.047 45.192V35.832C163.047 34.872 162.903 34.068 162.615 33.42C163.623 32.82 165.063 32.52 166.935 32.52V26.04C166.215 26.04 165.315 26.364 164.235 27.012C163.179 27.636 162.087 28.512 160.959 29.64C159.207 27.24 156.783 26.04 153.687 26.04C150.807 26.04 148.551 27.036 146.919 29.028C145.287 31.02 144.471 33.768 144.471 37.272V46.056C144.471 48.048 144.843 49.872 145.587 51.528C146.331 53.184 147.339 54.444 148.611 55.308C147.219 56.004 146.115 56.88 145.299 57.936C144.507 58.992 144.111 60.096 144.111 61.248C144.111 62.376 144.495 63.408 145.263 64.344C146.055 65.256 147.147 65.964 148.539 66.468C146.355 67.596 144.855 68.604 144.039 69.492C143.223 70.404 142.815 71.496 142.815 72.768C142.815 75.072 143.847 76.872 145.911 78.168C147.975 79.464 150.831 80.112 154.479 80.112ZM153.687 50.664C152.295 50.664 151.599 49.488 151.599 47.136V36.336C151.599 33.936 152.295 32.736 153.687 32.736C154.383 32.736 154.923 33.06 155.307 33.708C155.715 34.332 155.919 35.208 155.919 36.336V47.136C155.919 49.488 155.175 50.664 153.687 50.664ZM154.623 73.992C151.455 73.992 149.871 73.08 149.871 71.256C149.871 69.96 150.747 68.808 152.499 67.8L156.279 68.52C158.871 69.024 160.167 69.96 160.167 71.328C160.167 72.168 159.675 72.816 158.691 73.272C157.731 73.752 156.375 73.992 154.623 73.992ZM178.305 66.576C181.209 66.576 183.501 65.64 185.181 63.768C186.885 61.872 187.737 59.304 187.737 56.064V51.888H180.969V56.208C180.969 57.432 180.741 58.404 180.285 59.124C179.829 59.82 179.193 60.168 178.377 60.168C177.561 60.168 176.913 59.82 176.433 59.124C175.953 58.404 175.713 57.432 175.713 56.208V47.64H187.737V36.552C187.737 33.336 186.885 30.78 185.181 28.884C183.501 26.988 181.233 26.04 178.377 26.04C175.473 26.04 173.169 27.024 171.465 28.992C169.785 30.936 168.945 33.588 168.945 36.948V55.668C168.945 59.076 169.773 61.752 171.429 63.696C173.109 65.616 175.401 66.576 178.305 66.576ZM175.713 41.952V36.408C175.713 33.72 176.601 32.376 178.377 32.376C180.105 32.376 180.969 33.72 180.969 36.408V41.952H175.713ZM198.052 66.576C199.684 66.576 201.604 65.52 203.812 63.408V66H211.084V13.08H203.812V29.208C202.492 28.032 201.4 27.216 200.536 26.76C199.672 26.28 198.844 26.04 198.052 26.04C196.468 26.04 195.136 26.784 194.056 28.272C192.976 29.736 192.436 31.56 192.436 33.744V58.872C192.436 61.008 192.976 62.832 194.056 64.344C195.16 65.832 196.492 66.576 198.052 66.576ZM201.652 59.736C201.1 59.736 200.632 59.508 200.248 59.052C199.888 58.596 199.708 58.032 199.708 57.36V35.256C199.708 34.584 199.9 34.02 200.284 33.564C200.668 33.108 201.124 32.88 201.652 32.88C202.204 32.88 202.696 33.12 203.128 33.6C203.584 34.08 203.812 34.632 203.812 35.256V57.36C203.812 57.984 203.596 58.536 203.164 59.016C202.732 59.496 202.228 59.736 201.652 59.736Z" fill="#3C871B" data-name="1 - unchanged" class="1__unchanged_101" transform="translate(889 471)"/>
	<path d="M11.592 66.576C14.808 66.576 17.172 65.664 18.684 63.84C20.196 62.016 20.952 59.16 20.952 55.272V51.456H13.68V56.928C13.68 58.104 13.524 58.932 13.212 59.412C12.9 59.868 12.36 60.096 11.592 60.096C10.848 60.096 10.32 59.868 10.008 59.412C9.72 58.932 9.576 58.104 9.576 56.928V35.688C9.576 34.512 9.72 33.696 10.008 33.24C10.32 32.76 10.848 32.52 11.592 32.52C12.36 32.52 12.9 32.76 13.212 33.24C13.524 33.696 13.68 34.512 13.68 35.688V40.44H20.952V37.344C20.952 33.456 20.196 30.6 18.684 28.776C17.172 26.952 14.808 26.04 11.592 26.04C8.376 26.04 6.024 26.976 4.536 28.848C3.048 30.696 2.304 33.648 2.304 37.704V54.912C2.304 58.968 3.048 61.932 4.536 63.804C6.024 65.652 8.376 66.576 11.592 66.576ZM25.5909 66H32.8629V34.968C33.3189 34.272 33.7149 33.792 34.0509 33.528C34.4109 33.24 34.8069 33.096 35.2389 33.096C36.3909 33.096 36.9669 33.672 36.9669 34.824V66H44.2389V33.744C44.2389 31.56 43.7109 29.736 42.6549 28.272C41.6229 26.784 40.3269 26.04 38.7669 26.04C37.2069 26.04 35.2389 27.36 32.8629 30V13.08H25.5909V66ZM54.2509 66.576C55.4029 66.576 56.4829 66.24 57.4909 65.568C58.4989 64.872 59.3149 63.96 59.9389 62.832H60.4429C60.4429 64.44 60.6589 65.496 61.0909 66H68.2189C68.0269 64.536 67.8949 63.312 67.8229 62.328C67.7509 61.344 67.7149 60.288 67.7149 59.16V34.968C67.7149 33.288 67.3189 31.776 66.5269 30.432C65.7349 29.088 64.6669 28.02 63.3229 27.228C62.0029 26.436 60.5149 26.04 58.8589 26.04C57.0589 26.04 55.4149 26.508 53.9269 27.444C52.4389 28.38 51.2509 29.652 50.3629 31.26C49.4989 32.844 49.0669 34.608 49.0669 36.552V38.208H56.3389C56.3389 35.976 56.4709 34.452 56.7349 33.636C56.9989 32.796 57.5389 32.376 58.3549 32.376C59.4109 32.376 60.0229 32.808 60.1909 33.672C60.3589 34.536 60.4429 35.304 60.4429 35.976V39.432C60.4429 39.912 60.3829 40.284 60.2629 40.548C60.1669 40.788 59.8549 41.064 59.3269 41.376C58.8229 41.688 57.9349 42.18 56.6629 42.852C53.7109 44.388 51.5749 46.296 50.2549 48.576C48.9349 50.832 48.2749 53.532 48.2749 56.676C48.2749 59.604 48.7909 61.992 49.8229 63.84C50.8789 65.664 52.3549 66.576 54.2509 66.576ZM57.4909 59.448C56.0989 59.448 55.4029 58.284 55.4029 55.956C55.4029 53.892 55.8349 52.08 56.6989 50.52C57.5869 48.96 58.8349 47.808 60.4429 47.064V57.072C60.4429 57.672 60.1429 58.224 59.5429 58.728C58.9429 59.208 58.2589 59.448 57.4909 59.448ZM72.4894 66H79.7614V34.968C80.1934 34.248 80.5774 33.756 80.9134 33.492C81.2734 33.228 81.6814 33.096 82.1374 33.096C83.2894 33.096 83.8654 33.672 83.8654 34.824V66H91.1374V33.744C91.1374 31.512 90.6214 29.676 89.5894 28.236C88.5574 26.772 87.2494 26.04 85.6654 26.04C84.9454 26.04 84.1894 26.304 83.3974 26.832C82.6054 27.336 81.3934 28.392 79.7614 30V26.616H72.4894V66ZM105.963 80.112C114.267 80.112 118.419 76.752 118.419 70.032C118.419 67.296 117.627 65.208 116.043 63.768C114.483 62.328 111.915 61.368 108.339 60.888C104.643 60.36 102.795 59.544 102.795 58.44C102.795 57.768 103.119 57.156 103.767 56.604C103.887 56.628 104.115 56.664 104.451 56.712C104.787 56.736 104.955 56.736 104.955 56.712C108.267 56.712 110.691 55.788 112.227 53.94C113.763 52.092 114.531 49.176 114.531 45.192V35.832C114.531 34.872 114.387 34.068 114.099 33.42C115.107 32.82 116.547 32.52 118.419 32.52V26.04C117.699 26.04 116.799 26.364 115.719 27.012C114.663 27.636 113.571 28.512 112.443 29.64C110.691 27.24 108.267 26.04 105.171 26.04C102.291 26.04 100.035 27.036 98.4032 29.028C96.7712 31.02 95.9552 33.768 95.9552 37.272V46.056C95.9552 48.048 96.3272 49.872 97.0712 51.528C97.8152 53.184 98.8232 54.444 100.095 55.308C98.7032 56.004 97.5992 56.88 96.7832 57.936C95.9912 58.992 95.5952 60.096 95.5952 61.248C95.5952 62.376 95.9792 63.408 96.7472 64.344C97.5392 65.256 98.6312 65.964 100.023 66.468C97.8392 67.596 96.3392 68.604 95.5232 69.492C94.7072 70.404 94.2992 71.496 94.2992 72.768C94.2992 75.072 95.3312 76.872 97.3952 78.168C99.4592 79.464 102.315 80.112 105.963 80.112ZM105.171 50.664C103.779 50.664 103.083 49.488 103.083 47.136V36.336C103.083 33.936 103.779 32.736 105.171 32.736C105.867 32.736 106.407 33.06 106.791 33.708C107.199 34.332 107.403 35.208 107.403 36.336V47.136C107.403 49.488 106.659 50.664 105.171 50.664ZM106.107 73.992C102.939 73.992 101.355 73.08 101.355 71.256C101.355 69.96 102.231 68.808 103.983 67.8L107.763 68.52C110.355 69.024 111.651 69.96 111.651 71.328C111.651 72.168 111.159 72.816 110.175 73.272C109.215 73.752 107.859 73.992 106.107 73.992ZM129.789 66.576C132.693 66.576 134.985 65.64 136.665 63.768C138.369 61.872 139.221 59.304 139.221 56.064V51.888H132.453V56.208C132.453 57.432 132.225 58.404 131.769 59.124C131.313 59.82 130.677 60.168 129.861 60.168C129.045 60.168 128.397 59.82 127.917 59.124C127.437 58.404 127.197 57.432 127.197 56.208V47.64H139.221V36.552C139.221 33.336 138.369 30.78 136.665 28.884C134.985 26.988 132.717 26.04 129.861 26.04C126.957 26.04 124.653 27.024 122.949 28.992C121.269 30.936 120.429 33.588 120.429 36.948V55.668C120.429 59.076 121.257 61.752 122.913 63.696C124.593 65.616 126.885 66.576 129.789 66.576ZM127.197 41.952V36.408C127.197 33.72 128.085 32.376 129.861 32.376C131.589 32.376 132.453 33.72 132.453 36.408V41.952H127.197ZM149.536 66.576C151.168 66.576 153.088 65.52 155.296 63.408V66H162.568V13.08H155.296V29.208C153.976 28.032 152.884 27.216 152.02 26.76C151.156 26.28 150.328 26.04 149.536 26.04C147.952 26.04 146.62 26.784 145.54 28.272C144.46 29.736 143.92 31.56 143.92 33.744V58.872C143.92 61.008 144.46 62.832 145.54 64.344C146.644 65.832 147.976 66.576 149.536 66.576ZM153.136 59.736C152.584 59.736 152.116 59.508 151.732 59.052C151.372 58.596 151.192 58.032 151.192 57.36V35.256C151.192 34.584 151.384 34.02 151.768 33.564C152.152 33.108 152.608 32.88 153.136 32.88C153.688 32.88 154.18 33.12 154.612 33.6C155.068 34.08 155.296 34.632 155.296 35.256V57.36C155.296 57.984 155.08 58.536 154.648 59.016C154.216 59.496 153.712 59.736 153.136 59.736Z" fill="#932424" data-name="2 - changed" class="2__changed_754" transform="translate(913 471)"/>
</g>
<defs><clipPath id="clip_0_360"><rect width="1440" height="1024"/></clipPath>
<filter id="filter0_i_31_2254" x="-6.10352e-05" y="0" width="105" height="105" filterUnits="userSpaceOnUse" color-interpolation-filters="sRGB">
<feFlood flood-opacity="0" result="BackgroundImageFix"/>
<feBlend mode="normal" in="SourceGraphic" in2="BackgroundImageFix" result="shape"/>
<feColorMatrix in="SourceAlpha" type="matrix" values="0 0 0 0 0 0 0 0 0 0 0 0 0 0 0 0 0 0 127 0" result="hardAlpha"/>
<feOffset dx="4" dy="4"/>
<feGaussianBlur stdDeviation="2"/>
<feComposite in2="hardAlpha" operator="arithmetic" k2="-1" k3="1"/>
<feColorMatrix type="matrix" values="0 0 0 0 0 0 0 0 0 0 0 0 0 0 0 0 0 0 0.25 0"/>
<feBlend mode="normal" in2="shape" result="effect1_innerShadow_31_2254"/>
</filter>

<filter id="filter0_i_31_2255" x="-6.10352e-05" y="0.000137329" width="105" height="105" filterUnits="userSpaceOnUse" color-interpolation-filters="sRGB">
<feFlood flood-opacity="0" result="BackgroundImageFix"/>
<feBlend mode="normal" in="SourceGraphic" in2="BackgroundImageFix" result="shape"/>
<feColorMatrix in="SourceAlpha" type="matrix" values="0 0 0 0 0 0 0 0 0 0 0 0 0 0 0 0 0 0 127 0" result="hardAlpha"/>
<feOffset dx="4" dy="4"/>
<feGaussianBlur stdDeviation="2"/>
<feComposite in2="hardAlpha" operator="arithmetic" k2="-1" k3="1"/>
<feColorMatrix type="matrix" values="0 0 0 0 0 0 0 0 0 0 0 0 0 0 0 0 0 0 0.25 0"/>
<feBlend mode="normal" in2="shape" result="effect1_innerShadow_31_2255"/>
</filter>

<filter id="filter0_i_31_2256" x="0.996582" y="0.996643" width="105.017" height="105.017" filterUnits="userSpaceOnUse" color-interpolation-filters="sRGB">
<feFlood flood-opacity="0" result="BackgroundImageFix"/>
<feBlend mode="normal" in="SourceGraphic" in2="BackgroundImageFix" result="shape"/>
<feColorMatrix in="SourceAlpha" type="matrix" values="0 0 0 0 0 0 0 0 0 0 0 0 0 0 0 0 0 0 127 0" result="hardAlpha"/>
<feOffset dx="4" dy="4"/>
<feGaussianBlur stdDeviation="2"/>
<feComposite in2="hardAlpha" operator="arithmetic" k2="-1" k3="1"/>
<feColorMatrix type="matrix" values="0 0 0 0 0 0 0 0 0 0 0 0 0 0 0 0 0 0 0.25 0"/>
<feBlend mode="normal" in2="shape" result="effect1_innerShadow_31_2256"/>
</filter>

<filter id="filter0_i_31_2257" x="1.152" y="-0.280001" width="68.6398" height="37.664" filterUnits="userSpaceOnUse" color-interpolation-filters="sRGB">
<feFlood flood-opacity="0" result="BackgroundImageFix"/>
<feBlend mode="normal" in="SourceGraphic" in2="BackgroundImageFix" result="shape"/>
<feColorMatrix in="SourceAlpha" type="matrix" values="0 0 0 0 0 0 0 0 0 0 0 0 0 0 0 0 0 0 127 0" result="hardAlpha"/>
<feOffset dx="2" dy="2"/>
<feGaussianBlur stdDeviation="1"/>
<feComposite in2="hardAlpha" operator="arithmetic" k2="-1" k3="1"/>
<feColorMatrix type="matrix" values="0 0 0 0 0 0 0 0 0 0 0 0 0 0 0 0 0 0 0.25 0"/>
<feBlend mode="normal" in2="shape" result="effect1_innerShadow_31_2257"/>
</filter>
<clipPath id="clip0_31_2257">
<rect width="85" height="38" fill="white"/>
</clipPath>

<filter id="filter0_d_31_2247" x="0.133301" y="0.133301" width="427" height="312" filterUnits="userSpaceOnUse" color-interpolation-filters="sRGB">
<feFlood flood-opacity="0" result="BackgroundImageFix"/>
<feColorMatrix in="SourceAlpha" type="matrix" values="0 0 0 0 0 0 0 0 0 0 0 0 0 0 0 0 0 0 127 0" result="hardAlpha"/>
<feOffset dx="4" dy="4"/>
<feGaussianBlur stdDeviation="2"/>
<feComposite in2="hardAlpha" operator="out"/>
<feColorMatrix type="matrix" values="0 0 0 0 0 0 0 0 0 0 0 0 0 0 0 0 0 0 0.25 0"/>
<feBlend mode="normal" in2="BackgroundImageFix" result="effect1_dropShadow_31_2247"/>
<feBlend mode="normal" in="SourceGraphic" in2="effect1_dropShadow_31_2247" result="shape"/>
</filter>

</defs>
</svg>