<svg width="1440" height="1024" viewBox="0 0 1440 1024" fill="none" xmlns="http://www.w3.org/2000/svg">
<rect width="1440" height="1024" fill="white"/>
<g filter="url(#filter0_d_17_1987)">
<path d="M725.696 512.07L363.257 721.324V302.816L725.696 512.07Z" fill="#0A061F"/>
<path fill-rule="evenodd" clip-rule="evenodd" d="M580.646 360.026L492.343 512.942L580.679 665.946C605.081 650.813 626.206 629.611 641.567 603.005C690.317 518.568 662.905 411.058 580.646 360.026ZM570.614 671.746L482.302 518.785L305.645 518.785C307.641 578.888 339.691 636.629 395.604 668.911C451.524 701.196 517.562 700.077 570.614 671.746ZM305.634 507.168L482.263 507.168L570.585 354.217C485.26 308.495 378.448 338.511 329.698 422.948C314.334 449.559 306.535 478.463 305.634 507.168ZM485.633 512.976L485.633 513.016L485.667 512.996L485.633 512.976ZM581.47 346.982C673.146 399.911 704.557 517.137 651.628 608.813C598.698 700.49 481.472 731.9 389.796 678.971C298.119 626.042 266.709 508.816 319.638 417.139C372.568 325.463 489.794 294.052 581.47 346.982Z" fill="#0A061F"/>
<path fill-rule="evenodd" clip-rule="evenodd" d="M570.614 671.746L482.302 518.785L305.645 518.785C307.641 578.888 339.691 636.629 395.604 668.911C451.524 701.196 517.562 700.077 570.614 671.746Z" fill="#3C871B"/>
<path fill-rule="evenodd" clip-rule="evenodd" d="M580.646 360.026L492.343 512.942L580.679 665.945C605.081 650.813 626.206 629.611 641.567 603.005C690.317 518.568 662.905 411.058 580.646 360.026Z" fill="#932424"/>
<path fill-rule="evenodd" clip-rule="evenodd" d="M305.634 507.168L482.263 507.168L570.585 354.217C485.26 308.495 378.448 338.51 329.699 422.948C314.334 449.559 306.535 478.463 305.634 507.168Z" fill="#CF9B27"/>
<g filter="url(#filter1_i_17_1987)">
<path fill-rule="evenodd" clip-rule="evenodd" d="M386.744 578.777C372.799 602.931 381.074 633.816 405.228 647.762C429.382 661.707 460.267 653.431 474.212 629.277C488.158 605.124 479.882 574.238 455.728 560.293C431.574 546.348 400.689 554.624 386.744 578.777ZM440.767 583.644L417.87 588.437C416.494 588.725 415.734 590.041 416.172 591.377L429.083 630.701C429.522 632.036 430.992 632.885 432.368 632.597L437.35 631.554C438.725 631.266 439.485 629.95 439.047 628.615L428.518 596.545L443.942 593.315C445.318 593.028 446.078 591.711 445.639 590.376L444.052 585.54C443.613 584.205 442.143 583.356 440.767 583.644Z" fill="white"/>
</g>
<g filter="url(#filter2_i_17_1987)">
<path fill-rule="evenodd" clip-rule="evenodd" d="M545.418 487.945C531.473 512.099 539.749 542.984 563.902 556.93C588.056 570.875 618.941 562.599 632.887 538.445C646.832 514.292 638.556 483.406 614.402 469.461C590.249 455.516 559.363 463.792 545.418 487.945ZM589.235 538.051C593.205 538.051 596.435 534.687 596.435 530.551C596.435 526.416 593.205 523.051 589.235 523.051C585.265 523.051 582.035 526.416 582.035 530.551C582.035 534.687 585.265 538.051 589.235 538.051ZM584.093 517.914L582.869 492.414C582.807 491.129 583.791 490.051 585.026 490.051L593.445 490.051C594.68 490.051 595.664 491.129 595.602 492.414L594.378 517.914C594.32 519.111 593.372 520.051 592.221 520.051L586.25 520.051C585.099 520.051 584.15 519.111 584.093 517.914Z" fill="white"/>
</g>
<g filter="url(#filter3_i_17_1987)">
<path fill-rule="evenodd" clip-rule="evenodd" d="M408.877 379.963C384.723 393.908 376.448 424.793 390.393 448.947C404.338 473.101 435.223 481.377 459.377 467.431C483.531 453.486 491.806 422.601 477.861 398.447C463.916 374.293 433.031 366.018 408.877 379.963ZM432.962 429.97L421.271 436.72C419.836 437.549 418.001 437.057 417.173 435.622L415.673 433.024C414.844 431.59 415.336 429.754 416.771 428.926L428.462 422.176L421.712 410.485C420.884 409.05 421.376 407.215 422.81 406.387L425.408 404.887C426.843 404.058 428.678 404.55 429.506 405.985L436.256 417.676L447.948 410.926C449.382 410.098 451.217 410.59 452.046 412.024L453.546 414.622C454.374 416.057 453.882 417.892 452.448 418.72L440.756 425.47L447.506 437.162C448.335 438.596 447.843 440.431 446.408 441.26L443.81 442.76C442.376 443.588 440.54 443.096 439.712 441.662L432.962 429.97Z" fill="white"/>
</g>
<g filter="url(#filter4_i_17_1987)">
<path d="M366.457 533.154C366.073 533.819 365.907 534.555 365.959 535.361C366.025 536.175 366.279 536.95 366.722 537.686L366.554 537.977C365.626 537.441 364.944 537.214 364.509 537.295L362.133 541.411C363.043 541.788 363.793 542.12 364.385 542.406C364.978 542.692 365.599 543.024 366.251 543.4L380.218 551.464C381.188 552.024 382.193 552.299 383.233 552.29C384.273 552.28 385.245 552.02 386.15 551.508C387.048 551.01 387.772 550.283 388.324 549.327C388.924 548.287 389.202 547.182 389.158 546.011C389.113 544.84 388.775 543.73 388.143 542.681C387.516 541.655 386.642 540.817 385.519 540.169L384.563 539.617L382.139 543.816C383.428 544.56 384.264 545.144 384.647 545.568C385.044 546.001 385.106 546.453 384.834 546.924C384.482 547.533 384.029 547.743 383.474 547.552C382.919 547.361 382.448 547.153 382.06 546.929L380.064 545.777C379.787 545.617 379.593 545.459 379.48 545.301C379.374 545.166 379.318 544.894 379.314 544.485C379.302 544.09 379.314 543.413 379.35 542.455C379.447 540.238 379.058 538.369 378.181 536.847C377.319 535.333 375.98 534.052 374.165 533.004C372.474 532.028 370.923 531.53 369.513 531.51C368.107 531.511 367.089 532.06 366.457 533.154ZM369.492 537.401C369.956 536.597 370.86 536.583 372.204 537.359C373.396 538.047 374.298 538.901 374.911 539.92C375.515 540.952 375.765 542.057 375.658 543.233L369.88 539.897C369.534 539.697 369.315 539.34 369.224 538.826C369.147 538.319 369.236 537.844 369.492 537.401ZM359.584 545.827L356.992 550.317L387.545 567.957L389.105 565.255C388.689 564.663 388.354 564.027 388.101 563.345C387.91 562.717 387.778 561.985 387.706 561.149C387.635 560.313 387.774 559.368 388.124 558.314L385.256 556.658L383.528 559.651L359.584 545.827ZM353.121 556.253C352.737 556.918 352.571 557.653 352.623 558.459C352.689 559.273 352.943 560.048 353.387 560.785L353.219 561.076C352.29 560.54 351.608 560.312 351.174 560.394L348.798 564.509C349.707 564.886 350.457 565.218 351.05 565.505C351.642 565.791 352.263 566.122 352.915 566.498L366.882 574.562C367.852 575.122 368.857 575.398 369.897 575.388C370.937 575.379 371.909 575.118 372.815 574.606C373.712 574.108 374.436 573.381 374.988 572.425C375.588 571.386 375.866 570.281 375.822 569.11C375.777 567.939 375.439 566.829 374.807 565.78C374.18 564.753 373.306 563.916 372.183 563.268L371.227 562.716L368.803 566.914C370.092 567.658 370.928 568.242 371.311 568.667C371.708 569.099 371.77 569.551 371.498 570.022C371.146 570.632 370.693 570.841 370.138 570.65C369.583 570.459 369.112 570.252 368.724 570.028L366.729 568.876C366.451 568.716 366.257 568.557 366.144 568.4C366.038 568.264 365.982 567.992 365.978 567.583C365.966 567.188 365.978 566.512 366.014 565.553C366.111 563.337 365.722 561.468 364.845 559.946C363.983 558.432 362.644 557.15 360.829 556.102C359.138 555.126 357.588 554.628 356.177 554.608C354.771 554.61 353.753 555.158 353.121 556.253ZM356.156 560.499C356.62 559.696 357.524 559.682 358.868 560.458C360.06 561.146 360.962 561.999 361.575 563.018C362.18 564.051 362.429 565.155 362.322 566.332L356.544 562.996C356.198 562.796 355.979 562.438 355.888 561.924C355.811 561.418 355.9 560.943 356.156 560.499ZM346.248 568.926L343.656 573.415L374.209 591.055L375.769 588.353C375.353 587.762 375.018 587.125 374.765 586.443C374.574 585.815 374.442 585.083 374.37 584.248C374.299 583.412 374.438 582.467 374.788 581.413L371.92 579.757L370.192 582.75L346.248 568.926ZM339.785 579.351C339.401 580.016 339.235 580.752 339.287 581.558C339.353 582.372 339.607 583.147 340.051 583.883L339.883 584.174C338.954 583.638 338.273 583.411 337.838 583.492L335.462 587.608C336.371 587.985 337.121 588.317 337.714 588.603C338.306 588.889 338.927 589.221 339.579 589.597L353.546 597.661C354.516 598.221 355.521 598.496 356.561 598.487C357.601 598.478 358.573 598.217 359.479 597.705C360.376 597.207 361.1 596.48 361.652 595.524C362.252 594.484 362.53 593.379 362.486 592.208C362.441 591.037 362.103 589.927 361.471 588.878C360.844 587.852 359.97 587.014 358.847 586.366L357.891 585.814L355.467 590.013C356.756 590.757 357.592 591.341 357.975 591.765C358.372 592.198 358.434 592.65 358.162 593.121C357.81 593.73 357.357 593.94 356.802 593.749C356.247 593.558 355.776 593.35 355.388 593.126L353.393 591.974C353.115 591.814 352.921 591.656 352.808 591.498C352.702 591.363 352.646 591.091 352.642 590.682C352.63 590.287 352.642 589.61 352.678 588.652C352.775 586.435 352.386 584.566 351.509 583.044C350.647 581.53 349.308 580.249 347.493 579.201C345.802 578.225 344.252 577.727 342.841 577.707C341.436 577.708 340.417 578.257 339.785 579.351ZM342.82 583.598C343.284 582.794 344.188 582.78 345.532 583.556C346.724 584.244 347.626 585.098 348.239 586.117C348.844 587.149 349.093 588.254 348.986 589.43L343.208 586.094C342.862 585.894 342.643 585.537 342.552 585.023C342.475 584.516 342.564 584.041 342.82 583.598Z" fill="white"/>
</g>
</g>
<g filter="url(#filter5_d_17_1987)">
<path d="M819.658 484.695L821.477 483.645L822 481.611C838.985 415.628 910.417 365.133 997.133 365.133C1096.93 365.133 1176.13 431.799 1176.13 512.133C1176.13 592.468 1096.93 659.133 997.133 659.133C910.417 659.133 838.985 608.638 822 542.656L821.477 540.622L819.658 539.572L772.133 512.133L819.658 484.695Z" stroke="#0A061F" stroke-width="10" shape-rendering="crispEdges"/>
</g>
<path d="M924.592 537.576C927.808 537.576 930.172 536.664 931.684 534.84C933.196 533.016 933.952 530.16 933.952 526.272V522.456H926.68V527.928C926.68 529.104 926.524 529.932 926.212 530.412C925.9 530.868 925.36 531.096 924.592 531.096C923.848 531.096 923.32 530.868 923.008 530.412C922.72 529.932 922.576 529.104 922.576 527.928V506.688C922.576 505.512 922.72 504.696 923.008 504.24C923.32 503.76 923.848 503.52 924.592 503.52C925.36 503.52 925.9 503.76 926.212 504.24C926.524 504.696 926.68 505.512 926.68 506.688V511.44H933.952V508.344C933.952 504.456 933.196 501.6 931.684 499.776C930.172 497.952 927.808 497.04 924.592 497.04C921.376 497.04 919.024 497.976 917.536 499.848C916.048 501.696 915.304 504.648 915.304 508.704V525.912C915.304 529.968 916.048 532.932 917.536 534.804C919.024 536.652 921.376 537.576 924.592 537.576ZM938.591 537H945.863V505.968C946.319 505.272 946.715 504.792 947.051 504.528C947.411 504.24 947.807 504.096 948.239 504.096C949.391 504.096 949.967 504.672 949.967 505.824V537H957.239V504.744C957.239 502.56 956.711 500.736 955.655 499.272C954.623 497.784 953.327 497.04 951.767 497.04C950.207 497.04 948.239 498.36 945.863 501V484.08H938.591V537ZM967.251 537.576C968.403 537.576 969.483 537.24 970.491 536.568C971.499 535.872 972.315 534.96 972.939 533.832H973.443C973.443 535.44 973.659 536.496 974.091 537H981.219C981.027 535.536 980.895 534.312 980.823 533.328C980.751 532.344 980.715 531.288 980.715 530.16V505.968C980.715 504.288 980.319 502.776 979.527 501.432C978.735 500.088 977.667 499.02 976.323 498.228C975.003 497.436 973.515 497.04 971.859 497.04C970.059 497.04 968.415 497.508 966.927 498.444C965.439 499.38 964.251 500.652 963.363 502.26C962.499 503.844 962.067 505.608 962.067 507.552V509.208H969.339C969.339 506.976 969.471 505.452 969.735 504.636C969.999 503.796 970.539 503.376 971.355 503.376C972.411 503.376 973.023 503.808 973.191 504.672C973.359 505.536 973.443 506.304 973.443 506.976V510.432C973.443 510.912 973.383 511.284 973.263 511.548C973.167 511.788 972.855 512.064 972.327 512.376C971.823 512.688 970.935 513.18 969.663 513.852C966.711 515.388 964.575 517.296 963.255 519.576C961.935 521.832 961.275 524.532 961.275 527.676C961.275 530.604 961.791 532.992 962.823 534.84C963.879 536.664 965.355 537.576 967.251 537.576ZM970.491 530.448C969.099 530.448 968.403 529.284 968.403 526.956C968.403 524.892 968.835 523.08 969.699 521.52C970.587 519.96 971.835 518.808 973.443 518.064V528.072C973.443 528.672 973.143 529.224 972.543 529.728C971.943 530.208 971.259 530.448 970.491 530.448ZM985.489 537H992.761V505.968C993.193 505.248 993.577 504.756 993.913 504.492C994.273 504.228 994.681 504.096 995.137 504.096C996.289 504.096 996.865 504.672 996.865 505.824V537H1004.14V504.744C1004.14 502.512 1003.62 500.676 1002.59 499.236C1001.56 497.772 1000.25 497.04 998.665 497.04C997.945 497.04 997.189 497.304 996.397 497.832C995.605 498.336 994.393 499.392 992.761 501V497.616H985.489V537ZM1018.96 551.112C1027.27 551.112 1031.42 547.752 1031.42 541.032C1031.42 538.296 1030.63 536.208 1029.04 534.768C1027.48 533.328 1024.92 532.368 1021.34 531.888C1017.64 531.36 1015.8 530.544 1015.8 529.44C1015.8 528.768 1016.12 528.156 1016.77 527.604C1016.89 527.628 1017.12 527.664 1017.45 527.712C1017.79 527.736 1017.96 527.736 1017.96 527.712C1021.27 527.712 1023.69 526.788 1025.23 524.94C1026.76 523.092 1027.53 520.176 1027.53 516.192V506.832C1027.53 505.872 1027.39 505.068 1027.1 504.42C1028.11 503.82 1029.55 503.52 1031.42 503.52V497.04C1030.7 497.04 1029.8 497.364 1028.72 498.012C1027.66 498.636 1026.57 499.512 1025.44 500.64C1023.69 498.24 1021.27 497.04 1018.17 497.04C1015.29 497.04 1013.04 498.036 1011.4 500.028C1009.77 502.02 1008.96 504.768 1008.96 508.272V517.056C1008.96 519.048 1009.33 520.872 1010.07 522.528C1010.82 524.184 1011.82 525.444 1013.1 526.308C1011.7 527.004 1010.6 527.88 1009.78 528.936C1008.99 529.992 1008.6 531.096 1008.6 532.248C1008.6 533.376 1008.98 534.408 1009.75 535.344C1010.54 536.256 1011.63 536.964 1013.02 537.468C1010.84 538.596 1009.34 539.604 1008.52 540.492C1007.71 541.404 1007.3 542.496 1007.3 543.768C1007.3 546.072 1008.33 547.872 1010.4 549.168C1012.46 550.464 1015.32 551.112 1018.96 551.112ZM1018.17 521.664C1016.78 521.664 1016.08 520.488 1016.08 518.136V507.336C1016.08 504.936 1016.78 503.736 1018.17 503.736C1018.87 503.736 1019.41 504.06 1019.79 504.708C1020.2 505.332 1020.4 506.208 1020.4 507.336V518.136C1020.4 520.488 1019.66 521.664 1018.17 521.664ZM1019.11 544.992C1015.94 544.992 1014.36 544.08 1014.36 542.256C1014.36 540.96 1015.23 539.808 1016.98 538.8L1020.76 539.52C1023.36 540.024 1024.65 540.96 1024.65 542.328C1024.65 543.168 1024.16 543.816 1023.18 544.272C1022.22 544.752 1020.86 544.992 1019.11 544.992ZM1042.79 537.576C1045.69 537.576 1047.99 536.64 1049.67 534.768C1051.37 532.872 1052.22 530.304 1052.22 527.064V522.888H1045.45V527.208C1045.45 528.432 1045.23 529.404 1044.77 530.124C1044.31 530.82 1043.68 531.168 1042.86 531.168C1042.05 531.168 1041.4 530.82 1040.92 530.124C1040.44 529.404 1040.2 528.432 1040.2 527.208V518.64H1052.22V507.552C1052.22 504.336 1051.37 501.78 1049.67 499.884C1047.99 497.988 1045.72 497.04 1042.86 497.04C1039.96 497.04 1037.65 498.024 1035.95 499.992C1034.27 501.936 1033.43 504.588 1033.43 507.948V526.668C1033.43 530.076 1034.26 532.752 1035.91 534.696C1037.59 536.616 1039.89 537.576 1042.79 537.576ZM1040.2 512.952V507.408C1040.2 504.72 1041.09 503.376 1042.86 503.376C1044.59 503.376 1045.45 504.72 1045.45 507.408V512.952H1040.2ZM1062.54 537.576C1064.17 537.576 1066.09 536.52 1068.3 534.408V537H1075.57V484.08H1068.3V500.208C1066.98 499.032 1065.88 498.216 1065.02 497.76C1064.16 497.28 1063.33 497.04 1062.54 497.04C1060.95 497.04 1059.62 497.784 1058.54 499.272C1057.46 500.736 1056.92 502.56 1056.92 504.744V529.872C1056.92 532.008 1057.46 533.832 1058.54 535.344C1059.64 536.832 1060.98 537.576 1062.54 537.576ZM1066.14 530.736C1065.58 530.736 1065.12 530.508 1064.73 530.052C1064.37 529.596 1064.19 529.032 1064.19 528.36V506.256C1064.19 505.584 1064.38 505.02 1064.77 504.564C1065.15 504.108 1065.61 503.88 1066.14 503.88C1066.69 503.88 1067.18 504.12 1067.61 504.6C1068.07 505.08 1068.3 505.632 1068.3 506.256V528.36C1068.3 528.984 1068.08 529.536 1067.65 530.016C1067.22 530.496 1066.71 530.736 1066.14 530.736Z" fill="#932424"/>
<defs>
<filter id="filter0_d_17_1987" x="293.927" y="302.816" width="439.769" height="426.508" filterUnits="userSpaceOnUse" color-interpolation-filters="sRGB">
<feFlood flood-opacity="0" result="BackgroundImageFix"/>
<feColorMatrix in="SourceAlpha" type="matrix" values="0 0 0 0 0 0 0 0 0 0 0 0 0 0 0 0 0 0 127 0" result="hardAlpha"/>
<feOffset dx="4" dy="4"/>
<feGaussianBlur stdDeviation="2"/>
<feComposite in2="hardAlpha" operator="out"/>
<feColorMatrix type="matrix" values="0 0 0 0 0 0 0 0 0 0 0 0 0 0 0 0 0 0 0.25 0"/>
<feBlend mode="normal" in2="BackgroundImageFix" result="effect1_dropShadow_17_1987"/>
<feBlend mode="normal" in="SourceGraphic" in2="effect1_dropShadow_17_1987" result="shape"/>
</filter>
<filter id="filter1_i_17_1987" x="379.97" y="553.519" width="105.017" height="105.017" filterUnits="userSpaceOnUse" color-interpolation-filters="sRGB">
<feFlood flood-opacity="0" result="BackgroundImageFix"/>
<feBlend mode="normal" in="SourceGraphic" in2="BackgroundImageFix" result="shape"/>
<feColorMatrix in="SourceAlpha" type="matrix" values="0 0 0 0 0 0 0 0 0 0 0 0 0 0 0 0 0 0 127 0" result="hardAlpha"/>
<feOffset dx="4" dy="4"/>
<feGaussianBlur stdDeviation="2"/>
<feComposite in2="hardAlpha" operator="arithmetic" k2="-1" k3="1"/>
<feColorMatrix type="matrix" values="0 0 0 0 0 0 0 0 0 0 0 0 0 0 0 0 0 0 0.25 0"/>
<feBlend mode="normal" in2="shape" result="effect1_innerShadow_17_1987"/>
</filter>
<filter id="filter2_i_17_1987" x="538.644" y="462.687" width="105.017" height="105.017" filterUnits="userSpaceOnUse" color-interpolation-filters="sRGB">
<feFlood flood-opacity="0" result="BackgroundImageFix"/>
<feBlend mode="normal" in="SourceGraphic" in2="BackgroundImageFix" result="shape"/>
<feColorMatrix in="SourceAlpha" type="matrix" values="0 0 0 0 0 0 0 0 0 0 0 0 0 0 0 0 0 0 127 0" result="hardAlpha"/>
<feOffset dx="4" dy="4"/>
<feGaussianBlur stdDeviation="2"/>
<feComposite in2="hardAlpha" operator="arithmetic" k2="-1" k3="1"/>
<feColorMatrix type="matrix" values="0 0 0 0 0 0 0 0 0 0 0 0 0 0 0 0 0 0 0.25 0"/>
<feBlend mode="normal" in2="shape" result="effect1_innerShadow_17_1987"/>
</filter>
<filter id="filter3_i_17_1987" x="383.619" y="373.189" width="105.017" height="105.017" filterUnits="userSpaceOnUse" color-interpolation-filters="sRGB">
<feFlood flood-opacity="0" result="BackgroundImageFix"/>
<feBlend mode="normal" in="SourceGraphic" in2="BackgroundImageFix" result="shape"/>
<feColorMatrix in="SourceAlpha" type="matrix" values="0 0 0 0 0 0 0 0 0 0 0 0 0 0 0 0 0 0 127 0" result="hardAlpha"/>
<feOffset dx="4" dy="4"/>
<feGaussianBlur stdDeviation="2"/>
<feComposite in2="hardAlpha" operator="arithmetic" k2="-1" k3="1"/>
<feColorMatrix type="matrix" values="0 0 0 0 0 0 0 0 0 0 0 0 0 0 0 0 0 0 0.25 0"/>
<feBlend mode="normal" in2="shape" result="effect1_innerShadow_17_1987"/>
</filter>
<filter id="filter4_i_17_1987" x="335.129" y="529.704" width="66.2058" height="77.5437" filterUnits="userSpaceOnUse" color-interpolation-filters="sRGB">
<feFlood flood-opacity="0" result="BackgroundImageFix"/>
<feBlend mode="normal" in="SourceGraphic" in2="BackgroundImageFix" result="shape"/>
<feColorMatrix in="SourceAlpha" type="matrix" values="0 0 0 0 0 0 0 0 0 0 0 0 0 0 0 0 0 0 127 0" result="hardAlpha"/>
<feOffset dx="2" dy="2"/>
<feGaussianBlur stdDeviation="1"/>
<feComposite in2="hardAlpha" operator="arithmetic" k2="-1" k3="1"/>
<feColorMatrix type="matrix" values="0 0 0 0 0 0 0 0 0 0 0 0 0 0 0 0 0 0 0.25 0"/>
<feBlend mode="normal" in2="shape" result="effect1_innerShadow_17_1987"/>
</filter>
<filter id="filter5_d_17_1987" x="762.133" y="360.133" width="427" height="312" filterUnits="userSpaceOnUse" color-interpolation-filters="sRGB">
<feFlood flood-opacity="0" result="BackgroundImageFix"/>
<feColorMatrix in="SourceAlpha" type="matrix" values="0 0 0 0 0 0 0 0 0 0 0 0 0 0 0 0 0 0 127 0" result="hardAlpha"/>
<feOffset dx="4" dy="4"/>
<feGaussianBlur stdDeviation="2"/>
<feComposite in2="hardAlpha" operator="out"/>
<feColorMatrix type="matrix" values="0 0 0 0 0 0 0 0 0 0 0 0 0 0 0 0 0 0 0.25 0"/>
<feBlend mode="normal" in2="BackgroundImageFix" result="effect1_dropShadow_17_1987"/>
<feBlend mode="normal" in="SourceGraphic" in2="effect1_dropShadow_17_1987" result="shape"/>
</filter>
</defs>
</svg>
