<svg width="1440" height="1024" viewBox="0 0 1440 1024" fill="none" xmlns="http://www.w3.org/2000/svg">
<rect width="1440" height="1024" fill="white"/>
<g filter="url(#filter0_d_17_1987)">
<path d="M363.257 302.816L725.696 512.07L363.257 721.324L363.257 302.816Z" fill="#0A061F"/>
<path fill-rule="evenodd" clip-rule="evenodd" d="M304.108 504.455L480.689 504.47L569.025 351.466C543.72 337.9 514.795 330.206 484.073 330.206C386.574 330.206 307.174 407.7 304.108 504.455ZM579.081 357.283L490.769 510.244L579.098 663.234C630.15 631.453 664.131 574.827 664.131 510.263C664.131 445.693 630.143 389.061 579.081 357.283ZM569.043 669.051L480.728 516.086L304.108 516.072C307.174 612.827 386.574 690.321 484.073 690.321C514.802 690.321 543.733 682.623 569.043 669.051ZM484.073 510.264L484.108 510.244L484.073 510.224V510.264ZM292.399 510.263C292.399 404.405 378.215 318.589 484.073 318.589C589.932 318.589 675.748 404.405 675.748 510.263C675.748 616.122 589.932 701.938 484.073 701.938C378.215 701.938 292.399 616.122 292.399 510.263Z" fill="#0A061F"/>
<path fill-rule="evenodd" clip-rule="evenodd" d="M579.081 357.283L490.769 510.244L579.098 663.234C630.15 631.453 664.131 574.827 664.131 510.263C664.131 445.693 630.143 389.061 579.081 357.283Z" fill="#3C871B"/>
<path fill-rule="evenodd" clip-rule="evenodd" d="M304.108 504.455L480.689 504.47L569.025 351.466C543.72 337.9 514.795 330.206 484.073 330.206C386.574 330.206 307.174 407.7 304.108 504.455Z" fill="#932424"/>
<path fill-rule="evenodd" clip-rule="evenodd" d="M569.043 669.051L480.728 516.086L304.108 516.072C307.174 612.827 386.574 690.321 484.073 690.321C514.802 690.321 543.733 682.623 569.043 669.051Z" fill="#CF9B27"/>
<g filter="url(#filter1_i_17_1987)">
<path fill-rule="evenodd" clip-rule="evenodd" d="M590.503 563.003C618.394 563.003 641.003 540.394 641.003 512.503C641.003 484.613 618.394 462.003 590.503 462.003C562.613 462.003 540.003 484.613 540.003 512.503C540.003 540.394 562.613 563.003 590.503 563.003ZM567.706 513.785L583.306 531.218C584.244 532.265 585.763 532.265 586.7 531.218L614.301 500.375C615.238 499.327 615.238 497.629 614.301 496.582L610.906 492.789C609.969 491.742 608.45 491.742 607.512 492.789L585.003 517.943L574.494 506.199C573.557 505.151 572.038 505.151 571.1 506.199L567.706 509.992C566.769 511.039 566.769 512.737 567.706 513.785Z" fill="white"/>
</g>
<g filter="url(#filter2_i_17_1987)">
<path fill-rule="evenodd" clip-rule="evenodd" d="M432.503 471.004C460.394 471.004 483.003 448.394 483.003 420.504C483.003 392.613 460.394 370.004 432.503 370.004C404.613 370.004 382.003 392.613 382.003 420.504C382.003 448.394 404.613 471.004 432.503 471.004ZM453.988 408.004C452.003 404.565 447.474 403.45 443.893 405.518C440.311 407.586 439.013 412.065 440.998 415.504C442.983 418.942 447.511 420.057 451.093 417.989C454.674 415.921 455.973 411.442 453.988 408.004ZM439.12 422.526L417.648 436.336C416.566 437.032 415.141 436.719 414.523 435.649L410.314 428.358C409.696 427.288 410.138 425.898 411.281 425.309L433.977 413.619C435.043 413.07 436.331 413.421 436.907 414.418L439.892 419.589C440.468 420.586 440.128 421.877 439.12 422.526Z" fill="white"/>
</g>
<g filter="url(#filter3_i_17_1987)">
<path fill-rule="evenodd" clip-rule="evenodd" d="M407.258 643.243C431.412 657.188 462.298 648.912 476.243 624.758C490.188 600.605 481.912 569.719 457.758 555.774C433.605 541.829 402.719 550.105 388.774 574.258C374.829 598.412 383.105 629.298 407.258 643.243ZM438.524 597.381L450.215 604.131C451.65 604.959 452.141 606.794 451.313 608.229L449.813 610.827C448.985 612.262 447.15 612.753 445.715 611.925L434.024 605.175L427.274 616.866C426.445 618.301 424.61 618.793 423.175 617.964L420.577 616.464C419.143 615.636 418.651 613.801 419.479 612.366L426.229 600.675L414.538 593.925C413.103 593.097 412.612 591.262 413.44 589.827L414.94 587.229C415.768 585.794 417.603 585.303 419.038 586.131L430.729 592.881L437.479 581.189C438.308 579.755 440.143 579.263 441.577 580.091L444.175 581.591C445.61 582.42 446.102 584.255 445.274 585.689L438.524 597.381Z" fill="white"/>
</g>
</g>
<g filter="url(#filter4_d_17_1987)">
<path d="M819.658 484.695L821.477 483.645L822 481.611C838.985 415.628 910.417 365.133 997.133 365.133C1096.93 365.133 1176.13 431.799 1176.13 512.133C1176.13 592.468 1096.93 659.133 997.133 659.133C910.417 659.133 838.985 608.638 822 542.656L821.477 540.622L819.658 539.572L772.133 512.133L819.658 484.695Z" stroke="#0A061F" stroke-width="10" shape-rendering="crispEdges"/>
</g>
<path d="M897.208 537.576C898.696 537.576 900.664 536.28 903.112 533.688V537H910.384V497.616H903.112V527.928C903.112 528.6 902.872 529.2 902.392 529.728C901.912 530.256 901.36 530.52 900.736 530.52C899.584 530.52 899.008 529.944 899.008 528.792V497.616H891.736V529.872C891.736 532.032 892.264 533.856 893.32 535.344C894.376 536.832 895.672 537.576 897.208 537.576ZM916.138 537H923.41V505.968C923.842 505.248 924.226 504.756 924.562 504.492C924.922 504.228 925.33 504.096 925.786 504.096C926.938 504.096 927.514 504.672 927.514 505.824V537H934.786V504.744C934.786 502.512 934.27 500.676 933.238 499.236C932.206 497.772 930.898 497.04 929.314 497.04C928.594 497.04 927.838 497.304 927.046 497.832C926.254 498.336 925.042 499.392 923.41 501V497.616H916.138V537ZM949.108 537.576C952.324 537.576 954.688 536.664 956.2 534.84C957.712 533.016 958.468 530.16 958.468 526.272V522.456H951.196V527.928C951.196 529.104 951.04 529.932 950.728 530.412C950.416 530.868 949.876 531.096 949.108 531.096C948.364 531.096 947.836 530.868 947.524 530.412C947.236 529.932 947.092 529.104 947.092 527.928V506.688C947.092 505.512 947.236 504.696 947.524 504.24C947.836 503.76 948.364 503.52 949.108 503.52C949.876 503.52 950.416 503.76 950.728 504.24C951.04 504.696 951.196 505.512 951.196 506.688V511.44H958.468V508.344C958.468 504.456 957.712 501.6 956.2 499.776C954.688 497.952 952.324 497.04 949.108 497.04C945.892 497.04 943.54 497.976 942.052 499.848C940.564 501.696 939.82 504.648 939.82 508.704V525.912C939.82 529.968 940.564 532.932 942.052 534.804C943.54 536.652 945.892 537.576 949.108 537.576ZM963.107 537H970.379V505.968C970.835 505.272 971.231 504.792 971.567 504.528C971.927 504.24 972.323 504.096 972.755 504.096C973.907 504.096 974.483 504.672 974.483 505.824V537H981.755V504.744C981.755 502.56 981.227 500.736 980.171 499.272C979.139 497.784 977.843 497.04 976.283 497.04C974.723 497.04 972.755 498.36 970.379 501V484.08H963.107V537ZM991.767 537.576C992.919 537.576 993.999 537.24 995.007 536.568C996.015 535.872 996.831 534.96 997.455 533.832H997.959C997.959 535.44 998.175 536.496 998.607 537H1005.73C1005.54 535.536 1005.41 534.312 1005.34 533.328C1005.27 532.344 1005.23 531.288 1005.23 530.16V505.968C1005.23 504.288 1004.83 502.776 1004.04 501.432C1003.25 500.088 1002.18 499.02 1000.84 498.228C999.519 497.436 998.031 497.04 996.375 497.04C994.575 497.04 992.931 497.508 991.443 498.444C989.955 499.38 988.767 500.652 987.879 502.26C987.015 503.844 986.583 505.608 986.583 507.552V509.208H993.855C993.855 506.976 993.987 505.452 994.251 504.636C994.515 503.796 995.055 503.376 995.871 503.376C996.927 503.376 997.539 503.808 997.707 504.672C997.875 505.536 997.959 506.304 997.959 506.976V510.432C997.959 510.912 997.899 511.284 997.779 511.548C997.683 511.788 997.371 512.064 996.843 512.376C996.339 512.688 995.451 513.18 994.179 513.852C991.227 515.388 989.091 517.296 987.771 519.576C986.451 521.832 985.791 524.532 985.791 527.676C985.791 530.604 986.307 532.992 987.339 534.84C988.395 536.664 989.871 537.576 991.767 537.576ZM995.007 530.448C993.615 530.448 992.919 529.284 992.919 526.956C992.919 524.892 993.351 523.08 994.215 521.52C995.103 519.96 996.351 518.808 997.959 518.064V528.072C997.959 528.672 997.659 529.224 997.059 529.728C996.459 530.208 995.775 530.448 995.007 530.448ZM1010.01 537H1017.28V505.968C1017.71 505.248 1018.09 504.756 1018.43 504.492C1018.79 504.228 1019.2 504.096 1019.65 504.096C1020.81 504.096 1021.38 504.672 1021.38 505.824V537H1028.65V504.744C1028.65 502.512 1028.14 500.676 1027.11 499.236C1026.07 497.772 1024.77 497.04 1023.18 497.04C1022.46 497.04 1021.71 497.304 1020.91 497.832C1020.12 498.336 1018.91 499.392 1017.28 501V497.616H1010.01V537ZM1043.48 551.112C1051.78 551.112 1055.93 547.752 1055.93 541.032C1055.93 538.296 1055.14 536.208 1053.56 534.768C1052 533.328 1049.43 532.368 1045.85 531.888C1042.16 531.36 1040.31 530.544 1040.31 529.44C1040.31 528.768 1040.63 528.156 1041.28 527.604C1041.4 527.628 1041.63 527.664 1041.97 527.712C1042.3 527.736 1042.47 527.736 1042.47 527.712C1045.78 527.712 1048.21 526.788 1049.74 524.94C1051.28 523.092 1052.05 520.176 1052.05 516.192V506.832C1052.05 505.872 1051.9 505.068 1051.61 504.42C1052.62 503.82 1054.06 503.52 1055.93 503.52V497.04C1055.21 497.04 1054.31 497.364 1053.23 498.012C1052.18 498.636 1051.09 499.512 1049.96 500.64C1048.21 498.24 1045.78 497.04 1042.69 497.04C1039.81 497.04 1037.55 498.036 1035.92 500.028C1034.29 502.02 1033.47 504.768 1033.47 508.272V517.056C1033.47 519.048 1033.84 520.872 1034.59 522.528C1035.33 524.184 1036.34 525.444 1037.61 526.308C1036.22 527.004 1035.11 527.88 1034.3 528.936C1033.51 529.992 1033.11 531.096 1033.11 532.248C1033.11 533.376 1033.49 534.408 1034.26 535.344C1035.05 536.256 1036.15 536.964 1037.54 537.468C1035.35 538.596 1033.85 539.604 1033.04 540.492C1032.22 541.404 1031.81 542.496 1031.81 543.768C1031.81 546.072 1032.85 547.872 1034.91 549.168C1036.97 550.464 1039.83 551.112 1043.48 551.112ZM1042.69 521.664C1041.29 521.664 1040.6 520.488 1040.6 518.136V507.336C1040.6 504.936 1041.29 503.736 1042.69 503.736C1043.38 503.736 1043.92 504.06 1044.31 504.708C1044.71 505.332 1044.92 506.208 1044.92 507.336V518.136C1044.92 520.488 1044.17 521.664 1042.69 521.664ZM1043.62 544.992C1040.45 544.992 1038.87 544.08 1038.87 542.256C1038.87 540.96 1039.75 539.808 1041.5 538.8L1045.28 539.52C1047.87 540.024 1049.17 540.96 1049.17 542.328C1049.17 543.168 1048.67 543.816 1047.69 544.272C1046.73 544.752 1045.37 544.992 1043.62 544.992ZM1067.3 537.576C1070.21 537.576 1072.5 536.64 1074.18 534.768C1075.88 532.872 1076.74 530.304 1076.74 527.064V522.888H1069.97V527.208C1069.97 528.432 1069.74 529.404 1069.28 530.124C1068.83 530.82 1068.19 531.168 1067.38 531.168C1066.56 531.168 1065.91 530.82 1065.43 530.124C1064.95 529.404 1064.71 528.432 1064.71 527.208V518.64H1076.74V507.552C1076.74 504.336 1075.88 501.78 1074.18 499.884C1072.5 497.988 1070.23 497.04 1067.38 497.04C1064.47 497.04 1062.17 498.024 1060.46 499.992C1058.78 501.936 1057.94 504.588 1057.94 507.948V526.668C1057.94 530.076 1058.77 532.752 1060.43 534.696C1062.11 536.616 1064.4 537.576 1067.3 537.576ZM1064.71 512.952V507.408C1064.71 504.72 1065.6 503.376 1067.38 503.376C1069.1 503.376 1069.97 504.72 1069.97 507.408V512.952H1064.71ZM1087.05 537.576C1088.68 537.576 1090.6 536.52 1092.81 534.408V537H1100.08V484.08H1092.81V500.208C1091.49 499.032 1090.4 498.216 1089.54 497.76C1088.67 497.28 1087.84 497.04 1087.05 497.04C1085.47 497.04 1084.14 497.784 1083.06 499.272C1081.98 500.736 1081.44 502.56 1081.44 504.744V529.872C1081.44 532.008 1081.98 533.832 1083.06 535.344C1084.16 536.832 1085.49 537.576 1087.05 537.576ZM1090.65 530.736C1090.1 530.736 1089.63 530.508 1089.25 530.052C1088.89 529.596 1088.71 529.032 1088.71 528.36V506.256C1088.71 505.584 1088.9 505.02 1089.28 504.564C1089.67 504.108 1090.12 503.88 1090.65 503.88C1091.2 503.88 1091.7 504.12 1092.13 504.6C1092.58 505.08 1092.81 505.632 1092.81 506.256V528.36C1092.81 528.984 1092.6 529.536 1092.16 530.016C1091.73 530.496 1091.23 530.736 1090.65 530.736Z" fill="#3C871B"/>
<g filter="url(#filter5_i_17_1987)">
<path d="M561.136 603.384C561.904 603.384 562.624 603.16 563.296 602.712C563.968 602.248 564.512 601.64 564.928 600.888H565.264C565.264 601.96 565.408 602.664 565.696 603H570.448C570.32 602.024 570.232 601.208 570.184 600.552C570.136 599.896 570.112 599.192 570.112 598.44V582.312C570.112 581.192 569.848 580.184 569.32 579.288C568.792 578.392 568.08 577.68 567.184 577.152C566.304 576.624 565.312 576.36 564.208 576.36C563.008 576.36 561.912 576.672 560.92 577.296C559.928 577.92 559.136 578.768 558.544 579.84C557.968 580.896 557.68 582.072 557.68 583.368V584.472H562.528C562.528 582.984 562.616 581.968 562.792 581.424C562.968 580.864 563.328 580.584 563.872 580.584C564.576 580.584 564.984 580.872 565.096 581.448C565.208 582.024 565.264 582.536 565.264 582.984V585.288C565.264 585.608 565.224 585.856 565.144 586.032C565.08 586.192 564.872 586.376 564.52 586.584C564.184 586.792 563.592 587.12 562.744 587.568C560.776 588.592 559.352 589.864 558.472 591.384C557.592 592.888 557.152 594.688 557.152 596.784C557.152 598.736 557.496 600.328 558.184 601.56C558.888 602.776 559.872 603.384 561.136 603.384ZM563.296 598.632C562.368 598.632 561.904 597.856 561.904 596.304C561.904 594.928 562.192 593.72 562.768 592.68C563.36 591.64 564.192 590.872 565.264 590.376V597.048C565.264 597.448 565.064 597.816 564.664 598.152C564.264 598.472 563.808 598.632 563.296 598.632ZM575.548 603H580.732V567.72H577.612C577.308 568.376 576.924 568.984 576.46 569.544C576.012 570.024 575.444 570.504 574.756 570.984C574.068 571.464 573.18 571.816 572.092 572.04V575.352H575.548V603ZM587.808 603.384C588.576 603.384 589.296 603.16 589.968 602.712C590.64 602.248 591.184 601.64 591.6 600.888H591.936C591.936 601.96 592.08 602.664 592.368 603H597.12C596.992 602.024 596.904 601.208 596.856 600.552C596.808 599.896 596.784 599.192 596.784 598.44V582.312C596.784 581.192 596.52 580.184 595.992 579.288C595.464 578.392 594.752 577.68 593.856 577.152C592.976 576.624 591.984 576.36 590.88 576.36C589.68 576.36 588.584 576.672 587.592 577.296C586.6 577.92 585.808 578.768 585.216 579.84C584.64 580.896 584.352 582.072 584.352 583.368V584.472H589.2C589.2 582.984 589.288 581.968 589.464 581.424C589.64 580.864 590 580.584 590.544 580.584C591.248 580.584 591.656 580.872 591.768 581.448C591.88 582.024 591.936 582.536 591.936 582.984V585.288C591.936 585.608 591.896 585.856 591.816 586.032C591.752 586.192 591.544 586.376 591.192 586.584C590.856 586.792 590.264 587.12 589.416 587.568C587.448 588.592 586.024 589.864 585.144 591.384C584.264 592.888 583.824 594.688 583.824 596.784C583.824 598.736 584.168 600.328 584.856 601.56C585.56 602.776 586.544 603.384 587.808 603.384ZM589.968 598.632C589.04 598.632 588.576 597.856 588.576 596.304C588.576 594.928 588.864 593.72 589.44 592.68C590.032 591.64 590.864 590.872 591.936 590.376V597.048C591.936 597.448 591.736 597.816 591.336 598.152C590.936 598.472 590.48 598.632 589.968 598.632ZM602.22 603H607.404V567.72H604.284C603.98 568.376 603.596 568.984 603.132 569.544C602.684 570.024 602.116 570.504 601.428 570.984C600.74 571.464 599.852 571.816 598.764 572.04V575.352H602.22V603ZM614.48 603.384C615.248 603.384 615.968 603.16 616.64 602.712C617.312 602.248 617.856 601.64 618.272 600.888H618.608C618.608 601.96 618.752 602.664 619.04 603H623.792C623.664 602.024 623.576 601.208 623.528 600.552C623.48 599.896 623.456 599.192 623.456 598.44V582.312C623.456 581.192 623.192 580.184 622.664 579.288C622.136 578.392 621.424 577.68 620.528 577.152C619.648 576.624 618.656 576.36 617.552 576.36C616.352 576.36 615.256 576.672 614.264 577.296C613.272 577.92 612.48 578.768 611.888 579.84C611.312 580.896 611.024 582.072 611.024 583.368V584.472H615.872C615.872 582.984 615.96 581.968 616.136 581.424C616.312 580.864 616.672 580.584 617.216 580.584C617.92 580.584 618.328 580.872 618.44 581.448C618.552 582.024 618.608 582.536 618.608 582.984V585.288C618.608 585.608 618.568 585.856 618.488 586.032C618.424 586.192 618.216 586.376 617.864 586.584C617.528 586.792 616.936 587.12 616.088 587.568C614.12 588.592 612.696 589.864 611.816 591.384C610.936 592.888 610.496 594.688 610.496 596.784C610.496 598.736 610.84 600.328 611.528 601.56C612.232 602.776 613.216 603.384 614.48 603.384ZM616.64 598.632C615.712 598.632 615.248 597.856 615.248 596.304C615.248 594.928 615.536 593.72 616.112 592.68C616.704 591.64 617.536 590.872 618.608 590.376V597.048C618.608 597.448 618.408 597.816 618.008 598.152C617.608 598.472 617.152 598.632 616.64 598.632Z" fill="white"/>
</g>
<defs>
<filter id="filter0_d_17_1987" x="292.399" y="302.816" width="441.296" height="426.508" filterUnits="userSpaceOnUse" color-interpolation-filters="sRGB">
<feFlood flood-opacity="0" result="BackgroundImageFix"/>
<feColorMatrix in="SourceAlpha" type="matrix" values="0 0 0 0 0 0 0 0 0 0 0 0 0 0 0 0 0 0 127 0" result="hardAlpha"/>
<feOffset dx="4" dy="4"/>
<feGaussianBlur stdDeviation="2"/>
<feComposite in2="hardAlpha" operator="out"/>
<feColorMatrix type="matrix" values="0 0 0 0 0 0 0 0 0 0 0 0 0 0 0 0 0 0 0.25 0"/>
<feBlend mode="normal" in2="BackgroundImageFix" result="effect1_dropShadow_17_1987"/>
<feBlend mode="normal" in="SourceGraphic" in2="effect1_dropShadow_17_1987" result="shape"/>
</filter>
<filter id="filter1_i_17_1987" x="540.003" y="462.003" width="105" height="105" filterUnits="userSpaceOnUse" color-interpolation-filters="sRGB">
<feFlood flood-opacity="0" result="BackgroundImageFix"/>
<feBlend mode="normal" in="SourceGraphic" in2="BackgroundImageFix" result="shape"/>
<feColorMatrix in="SourceAlpha" type="matrix" values="0 0 0 0 0 0 0 0 0 0 0 0 0 0 0 0 0 0 127 0" result="hardAlpha"/>
<feOffset dx="4" dy="4"/>
<feGaussianBlur stdDeviation="2"/>
<feComposite in2="hardAlpha" operator="arithmetic" k2="-1" k3="1"/>
<feColorMatrix type="matrix" values="0 0 0 0 0 0 0 0 0 0 0 0 0 0 0 0 0 0 0.25 0"/>
<feBlend mode="normal" in2="shape" result="effect1_innerShadow_17_1987"/>
</filter>
<filter id="filter2_i_17_1987" x="382.003" y="370.004" width="105" height="105" filterUnits="userSpaceOnUse" color-interpolation-filters="sRGB">
<feFlood flood-opacity="0" result="BackgroundImageFix"/>
<feBlend mode="normal" in="SourceGraphic" in2="BackgroundImageFix" result="shape"/>
<feColorMatrix in="SourceAlpha" type="matrix" values="0 0 0 0 0 0 0 0 0 0 0 0 0 0 0 0 0 0 127 0" result="hardAlpha"/>
<feOffset dx="4" dy="4"/>
<feGaussianBlur stdDeviation="2"/>
<feComposite in2="hardAlpha" operator="arithmetic" k2="-1" k3="1"/>
<feColorMatrix type="matrix" values="0 0 0 0 0 0 0 0 0 0 0 0 0 0 0 0 0 0 0.25 0"/>
<feBlend mode="normal" in2="shape" result="effect1_innerShadow_17_1987"/>
</filter>
<filter id="filter3_i_17_1987" x="382" y="549" width="105.017" height="105.017" filterUnits="userSpaceOnUse" color-interpolation-filters="sRGB">
<feFlood flood-opacity="0" result="BackgroundImageFix"/>
<feBlend mode="normal" in="SourceGraphic" in2="BackgroundImageFix" result="shape"/>
<feColorMatrix in="SourceAlpha" type="matrix" values="0 0 0 0 0 0 0 0 0 0 0 0 0 0 0 0 0 0 127 0" result="hardAlpha"/>
<feOffset dx="4" dy="4"/>
<feGaussianBlur stdDeviation="2"/>
<feComposite in2="hardAlpha" operator="arithmetic" k2="-1" k3="1"/>
<feColorMatrix type="matrix" values="0 0 0 0 0 0 0 0 0 0 0 0 0 0 0 0 0 0 0.25 0"/>
<feBlend mode="normal" in2="shape" result="effect1_innerShadow_17_1987"/>
</filter>
<filter id="filter4_d_17_1987" x="762.133" y="360.133" width="427" height="312" filterUnits="userSpaceOnUse" color-interpolation-filters="sRGB">
<feFlood flood-opacity="0" result="BackgroundImageFix"/>
<feColorMatrix in="SourceAlpha" type="matrix" values="0 0 0 0 0 0 0 0 0 0 0 0 0 0 0 0 0 0 127 0" result="hardAlpha"/>
<feOffset dx="4" dy="4"/>
<feGaussianBlur stdDeviation="2"/>
<feComposite in2="hardAlpha" operator="out"/>
<feColorMatrix type="matrix" values="0 0 0 0 0 0 0 0 0 0 0 0 0 0 0 0 0 0 0.25 0"/>
<feBlend mode="normal" in2="BackgroundImageFix" result="effect1_dropShadow_17_1987"/>
<feBlend mode="normal" in="SourceGraphic" in2="effect1_dropShadow_17_1987" result="shape"/>
</filter>
<filter id="filter5_i_17_1987" x="557.152" y="567.72" width="68.6398" height="37.664" filterUnits="userSpaceOnUse" color-interpolation-filters="sRGB">
<feFlood flood-opacity="0" result="BackgroundImageFix"/>
<feBlend mode="normal" in="SourceGraphic" in2="BackgroundImageFix" result="shape"/>
<feColorMatrix in="SourceAlpha" type="matrix" values="0 0 0 0 0 0 0 0 0 0 0 0 0 0 0 0 0 0 127 0" result="hardAlpha"/>
<feOffset dx="2" dy="2"/>
<feGaussianBlur stdDeviation="1"/>
<feComposite in2="hardAlpha" operator="arithmetic" k2="-1" k3="1"/>
<feColorMatrix type="matrix" values="0 0 0 0 0 0 0 0 0 0 0 0 0 0 0 0 0 0 0.25 0"/>
<feBlend mode="normal" in2="shape" result="effect1_innerShadow_17_1987"/>
</filter>
</defs>
</svg>
